{"glyphs":{"0":{"ha":829,"x_min":38,"x_max":791,"o":"m 412 0 q 202 50 286 0 q 79 191 119 100 q 38 403 38 281 q 75 622 38 529 q 193 767 111 715 q 410 819 275 819 q 628 768 544 819 q 752 624 712 717 q 791 403 791 530 q 749 191 791 281 q 623 50 707 100 q 412 0 539 0 m 414 180 q 577 243 522 180 q 632 410 632 306 q 577 576 632 515 q 415 637 523 637 q 252 574 305 637 q 199 406 199 511 q 253 241 199 303 q 414 180 308 180 z "},"1":{"ha":389,"x_min":23,"x_max":304,"o":"m 23 781 q 51 808 23 808 l 275 808 q 303 781 303 808 q 304 405 303 593 q 304 28 304 216 q 277 0 304 0 l 162 0 q 134 28 134 0 q 135 323 134 176 q 136 618 136 471 q 119 629 136 630 q 80 626 102 629 q 41 629 58 624 q 24 655 24 633 q 23 718 24 687 q 23 781 23 749 z "},"2":{"ha":673,"x_min":37,"x_max":629,"o":"m 117 0 q 94 2 109 0 q 79 16 79 5 q 85 33 79 24 q 97 45 92 41 q 222 169 154 104 q 349 306 290 234 q 435 455 408 377 q 445 489 440 471 q 449 522 449 507 q 413 618 449 580 q 319 656 377 656 q 223 625 261 656 q 186 534 186 594 q 195 488 186 507 q 213 456 204 469 q 222 433 222 443 q 209 408 222 426 q 180 372 196 390 q 159 348 165 355 q 150 340 155 344 q 139 337 145 337 q 123 345 132 337 q 59 439 81 380 q 37 551 37 497 q 75 694 37 635 q 179 786 114 754 q 325 818 245 818 q 469 785 404 818 q 574 691 535 751 q 614 548 614 630 q 591 443 614 496 q 535 342 568 390 q 469 255 502 294 q 413 193 435 217 q 390 165 390 169 q 395 161 390 161 q 401 160 399 160 l 600 160 q 620 153 614 160 q 627 133 626 146 q 629 82 629 113 q 629 28 629 50 q 601 0 629 0 l 117 0 z "},"3":{"ha":654,"x_min":43,"x_max":597,"o":"m 524 808 q 545 806 532 808 q 557 791 557 803 q 554 777 557 784 q 547 765 550 770 q 523 731 541 758 q 481 671 505 705 q 434 604 457 637 q 397 548 412 571 q 382 524 382 526 q 390 517 382 519 q 543 435 489 497 q 597 271 597 374 q 554 119 597 182 q 440 23 511 56 q 286 -9 370 -9 q 163 11 230 -9 q 54 68 96 31 q 43 87 43 77 q 57 118 43 93 q 85 169 70 142 q 104 202 100 195 q 114 215 109 209 q 128 222 119 222 q 155 210 138 222 q 199 185 172 197 q 261 172 225 172 q 333 182 295 172 q 398 215 371 191 q 425 281 425 239 q 394 349 425 325 q 322 382 363 373 q 245 392 280 392 q 205 389 225 392 q 166 383 186 387 l 164 383 q 160 387 160 383 q 179 416 160 389 q 224 483 197 444 q 279 561 252 522 q 325 627 307 600 q 344 657 344 654 q 340 662 344 661 q 334 663 336 663 l 114 663 q 87 690 89 663 q 86 735 86 712 q 85 780 85 758 q 114 808 85 808 l 524 808 z "},"4":{"ha":694,"x_min":28,"x_max":655,"o":"m 410 0 q 382 28 382 0 l 382 165 q 374 174 382 174 l 61 174 q 40 177 52 174 q 28 193 28 180 q 32 205 28 199 q 37 216 35 211 q 141 396 90 307 q 244 576 193 486 q 308 690 276 633 q 374 804 340 748 q 398 818 382 818 l 524 818 q 551 790 551 818 q 550 643 551 716 q 549 495 549 569 l 550 325 q 558 316 550 316 l 627 316 q 654 288 654 316 q 655 246 654 267 q 655 203 655 224 q 640 176 655 180 q 603 173 624 171 q 567 176 583 176 q 551 165 551 177 l 553 28 q 526 0 553 0 l 410 0 m 229 316 l 382 316 l 382 534 l 229 316 z "},"5":{"ha":661,"x_min":44,"x_max":612,"o":"m 308 -9 q 221 -1 268 -9 q 131 26 174 8 q 55 69 87 43 q 44 88 44 77 q 57 116 44 95 q 83 160 69 138 q 102 189 98 182 q 112 200 106 195 q 125 205 117 205 q 143 199 132 205 q 207 179 176 184 q 273 173 238 173 q 347 183 308 173 q 412 219 385 194 q 439 286 439 243 q 412 355 439 332 q 344 387 384 378 q 269 395 304 395 q 205 388 236 395 q 144 369 174 380 q 134 365 139 367 q 123 363 128 363 q 106 374 109 363 q 102 396 102 385 q 102 588 102 492 q 101 781 101 684 q 129 808 101 808 l 523 808 q 550 781 550 808 q 550 727 550 753 q 549 673 549 700 q 522 645 549 645 l 254 645 q 246 636 246 645 l 247 522 q 256 513 247 513 q 289 515 273 513 q 323 517 306 517 q 465 489 399 517 q 571 404 530 460 q 612 266 612 348 q 569 121 612 183 q 457 25 526 59 q 308 -9 387 -9 z "},"6":{"ha":713,"x_min":32,"x_max":682,"o":"m 361 -9 q 190 32 264 -9 q 74 148 115 74 q 32 320 32 222 q 64 480 32 406 q 149 618 96 555 q 269 732 203 682 q 405 822 336 783 q 419 826 412 826 q 439 815 429 826 q 466 784 446 807 q 503 738 486 761 q 521 706 521 714 q 513 691 521 696 q 498 683 506 686 q 474 672 486 677 q 449 661 461 667 q 354 602 399 636 q 275 522 309 567 q 266 510 273 519 q 259 497 259 501 q 262 495 259 495 q 276 500 267 495 q 289 507 286 505 q 408 536 345 536 q 549 505 488 536 q 646 414 611 473 q 682 273 682 355 q 637 119 682 182 q 519 23 592 56 q 361 -9 446 -9 m 351 160 l 361 160 q 428 173 394 160 q 485 210 462 185 q 508 273 508 235 q 484 333 508 310 q 427 367 460 356 q 362 378 393 378 q 289 368 325 378 q 228 334 252 358 q 204 264 204 309 q 228 205 204 228 q 287 171 252 182 q 351 160 321 160 z "},"7":{"ha":612,"x_min":38,"x_max":585,"o":"m 555 808 q 575 805 566 808 q 585 788 585 801 q 581 770 585 781 q 486 528 534 649 q 391 285 438 406 q 358 200 374 242 q 325 115 342 157 q 307 66 316 91 q 287 18 298 41 q 261 0 279 0 l 133 0 q 113 3 123 0 q 103 20 103 7 q 108 39 103 28 q 229 326 168 182 q 348 615 290 470 q 349 620 349 618 q 340 627 349 627 l 68 627 q 40 654 40 627 l 38 781 q 66 808 38 808 l 555 808 z "},"8":{"ha":636,"x_min":18,"x_max":619,"o":"m 18 265 q 55 393 18 340 q 156 481 93 446 q 163 489 163 485 q 157 497 163 492 q 109 553 124 523 q 94 625 94 583 q 127 732 94 690 q 213 797 161 775 q 324 818 266 818 q 427 797 376 818 q 513 735 479 775 q 548 637 548 695 q 532 558 548 589 q 479 497 517 527 q 475 494 477 496 q 473 489 473 492 q 480 481 473 486 q 582 393 544 447 q 619 264 619 338 q 575 120 619 181 q 461 24 531 58 q 313 -9 391 -9 q 169 26 237 -9 q 59 123 101 61 q 18 265 18 185 m 220 612 q 250 550 220 571 q 317 528 280 528 q 382 550 355 528 q 410 612 410 572 q 383 677 410 654 q 316 701 357 701 q 248 677 276 701 q 220 612 220 654 m 181 269 q 221 181 181 213 q 315 150 262 150 q 411 182 369 150 q 453 272 453 214 q 411 361 453 330 q 315 393 369 393 q 221 360 260 393 q 181 269 181 326 z "},"9":{"ha":713,"x_min":33,"x_max":694,"o":"m 319 267 q 176 299 241 267 q 72 389 111 330 q 33 530 33 448 q 79 687 33 622 q 200 786 125 752 q 361 821 275 821 q 526 782 450 821 q 648 675 602 744 q 694 513 694 606 q 656 337 694 416 q 557 195 619 258 q 419 82 495 132 q 265 -11 342 31 q 251 -15 258 -15 q 230 -4 238 -15 q 203 27 223 5 q 165 73 183 50 q 148 105 148 96 q 156 120 148 115 q 171 128 164 125 q 198 139 184 134 q 224 150 212 144 q 319 197 273 171 q 406 257 366 224 q 420 269 407 258 q 433 284 433 280 q 429 286 433 286 q 411 283 422 286 q 394 278 400 279 q 357 270 375 273 q 319 267 338 267 m 197 530 q 222 459 197 486 q 287 420 248 432 q 362 408 325 408 q 428 420 391 408 q 494 455 466 431 q 522 514 522 479 l 522 543 q 495 605 522 581 q 430 641 467 629 q 361 652 392 652 q 286 640 323 652 q 222 601 248 628 q 197 530 197 574 z "},"A":{"ha":916,"x_min":23,"x_max":892,"o":"m 54 0 q 34 3 45 0 q 23 19 23 6 q 25 30 23 24 q 29 40 27 35 q 148 298 89 169 q 263 557 206 427 q 356 771 310 664 q 451 985 402 879 q 458 989 453 989 q 465 985 463 989 q 559 771 513 879 q 652 557 606 664 q 768 298 709 427 q 886 40 827 169 q 890 30 888 35 q 892 19 892 24 q 882 3 892 6 q 861 0 871 0 l 724 0 q 699 17 707 0 q 688 40 693 28 q 679 63 684 52 q 650 132 664 97 q 621 201 636 168 q 613 207 618 207 l 277 207 q 270 201 272 207 q 239 132 254 168 q 209 62 224 97 q 199 39 204 52 q 188 16 194 27 q 163 0 179 0 l 54 0 m 334 349 l 559 349 q 505 484 532 416 q 449 619 477 551 q 392 484 420 551 q 334 349 363 416 z "},"Á":{"ha":916,"x_min":23,"x_max":892,"o":"m 54 0 q 34 3 45 0 q 23 19 23 6 q 25 30 23 24 q 29 40 27 35 q 148 298 89 169 q 263 557 206 427 q 356 771 310 664 q 451 985 402 879 q 458 989 453 989 q 465 985 463 989 q 559 771 513 879 q 652 557 606 664 q 768 298 709 427 q 886 40 827 169 q 890 30 888 35 q 892 19 892 24 q 882 3 892 6 q 861 0 871 0 l 724 0 q 699 17 707 0 q 688 40 693 28 q 679 63 684 52 q 650 132 664 97 q 621 201 636 168 q 613 207 618 207 l 277 207 q 270 201 272 207 q 239 132 254 168 q 209 62 224 97 q 199 39 204 52 q 188 16 194 27 q 163 0 179 0 l 54 0 m 334 349 l 559 349 q 505 484 532 416 q 449 619 477 551 q 392 484 420 551 q 334 349 363 416 m 645 1232 q 670 1230 652 1232 q 687 1215 687 1227 q 678 1197 687 1206 q 663 1183 669 1188 q 614 1139 639 1161 q 566 1095 590 1117 q 540 1070 553 1083 q 513 1046 526 1058 q 494 1039 504 1039 l 454 1039 q 433 1042 445 1039 q 421 1056 421 1044 q 425 1069 421 1063 q 431 1081 428 1076 q 478 1151 454 1116 q 527 1219 502 1186 q 549 1232 536 1232 l 645 1232 z "},"Â":{"ha":916,"x_min":23,"x_max":892,"o":"m 54 0 q 34 3 45 0 q 23 19 23 6 q 25 30 23 24 q 29 40 27 35 q 148 298 89 169 q 263 557 206 427 q 356 771 310 664 q 451 985 402 879 q 458 989 453 989 q 465 985 463 989 q 559 771 513 879 q 652 557 606 664 q 768 298 709 427 q 886 40 827 169 q 890 30 888 35 q 892 19 892 24 q 882 3 892 6 q 861 0 871 0 l 724 0 q 699 17 707 0 q 688 40 693 28 q 679 63 684 52 q 650 132 664 97 q 621 201 636 168 q 613 207 618 207 l 277 207 q 270 201 272 207 q 239 132 254 168 q 209 62 224 97 q 199 39 204 52 q 188 16 194 27 q 163 0 179 0 l 54 0 m 334 349 l 559 349 q 505 484 532 416 q 449 619 477 551 q 392 484 420 551 q 334 349 363 416 m 581 1059 q 564 1066 572 1059 q 540 1086 558 1070 q 500 1120 522 1101 q 461 1152 478 1139 q 443 1166 445 1166 q 425 1152 440 1166 q 390 1120 410 1139 q 354 1086 370 1102 q 332 1067 337 1071 q 313 1059 323 1059 l 245 1059 q 221 1061 237 1059 q 204 1075 204 1063 q 212 1093 204 1084 q 226 1107 220 1103 q 326 1203 275 1156 q 428 1296 376 1251 q 437 1302 432 1299 q 447 1305 441 1305 q 457 1302 452 1305 q 466 1296 462 1299 q 568 1203 517 1251 q 667 1107 618 1156 q 681 1093 673 1103 q 689 1075 689 1084 q 672 1061 689 1063 q 648 1059 656 1059 l 581 1059 z "},"Ä":{"ha":916,"x_min":23,"x_max":892,"o":"m 54 0 q 34 3 45 0 q 23 19 23 6 q 25 30 23 24 q 29 40 27 35 q 148 298 89 169 q 263 557 206 427 q 356 771 310 664 q 451 985 402 879 q 458 989 453 989 q 465 985 463 989 q 559 771 513 879 q 652 557 606 664 q 768 298 709 427 q 886 40 827 169 q 890 30 888 35 q 892 19 892 24 q 882 3 892 6 q 861 0 871 0 l 724 0 q 699 17 707 0 q 688 40 693 28 q 679 63 684 52 q 650 132 664 97 q 621 201 636 168 q 613 207 618 207 l 277 207 q 270 201 272 207 q 239 132 254 168 q 209 62 224 97 q 199 39 204 52 q 188 16 194 27 q 163 0 179 0 l 54 0 m 334 349 l 559 349 q 505 484 532 416 q 449 619 477 551 q 392 484 420 551 q 334 349 363 416 m 208 1131 q 234 1195 208 1167 q 297 1222 260 1222 q 360 1195 333 1222 q 387 1133 387 1168 q 358 1069 387 1097 q 294 1042 330 1042 q 233 1069 258 1042 q 208 1131 208 1096 m 514 1128 q 542 1194 514 1166 q 607 1222 569 1222 q 668 1196 642 1222 q 694 1135 694 1170 q 666 1071 694 1100 q 602 1042 638 1042 q 541 1067 567 1042 q 514 1128 514 1092 z "},"À":{"ha":916,"x_min":23,"x_max":892,"o":"m 54 0 q 34 3 45 0 q 23 19 23 6 q 25 30 23 24 q 29 40 27 35 q 148 298 89 169 q 263 557 206 427 q 356 771 310 664 q 451 985 402 879 q 458 989 453 989 q 465 985 463 989 q 559 771 513 879 q 652 557 606 664 q 768 298 709 427 q 886 40 827 169 q 890 30 888 35 q 892 19 892 24 q 882 3 892 6 q 861 0 871 0 l 724 0 q 699 17 707 0 q 688 40 693 28 q 679 63 684 52 q 650 132 664 97 q 621 201 636 168 q 613 207 618 207 l 277 207 q 270 201 272 207 q 239 132 254 168 q 209 62 224 97 q 199 39 204 52 q 188 16 194 27 q 163 0 179 0 l 54 0 m 334 349 l 559 349 q 505 484 532 416 q 449 619 477 551 q 392 484 420 551 q 334 349 363 416 m 407 1046 q 387 1055 395 1046 q 319 1123 352 1088 q 252 1192 286 1158 q 239 1206 246 1197 q 231 1223 231 1215 q 248 1237 231 1235 q 271 1239 264 1239 l 370 1239 q 393 1225 385 1239 q 434 1157 415 1192 q 473 1088 454 1122 q 478 1077 476 1083 q 481 1065 481 1071 q 470 1049 481 1053 q 449 1046 458 1046 l 407 1046 z "},"Å":{"ha":916,"x_min":23,"x_max":892,"o":"m 54 0 q 34 3 45 0 q 23 19 23 6 q 25 30 23 24 q 29 40 27 35 q 148 298 89 169 q 263 557 206 427 q 356 771 310 664 q 451 985 402 879 q 458 989 453 989 q 465 985 463 989 q 559 771 513 879 q 652 557 606 664 q 768 298 709 427 q 886 40 827 169 q 890 30 888 35 q 892 19 892 24 q 882 3 892 6 q 861 0 871 0 l 724 0 q 699 17 707 0 q 688 40 693 28 q 679 63 684 52 q 650 132 664 97 q 621 201 636 168 q 613 207 618 207 l 277 207 q 270 201 272 207 q 239 132 254 168 q 209 62 224 97 q 199 39 204 52 q 188 16 194 27 q 163 0 179 0 l 54 0 m 334 349 l 559 349 q 505 484 532 416 q 449 619 477 551 q 392 484 420 551 q 334 349 363 416 m 305 1177 q 352 1279 305 1243 q 461 1314 399 1314 q 570 1278 525 1314 q 615 1175 615 1242 q 567 1073 615 1111 q 459 1036 519 1036 q 351 1074 397 1036 q 305 1177 305 1112 m 393 1173 q 413 1128 393 1145 q 461 1112 434 1112 q 508 1129 489 1112 q 528 1175 528 1147 q 509 1220 528 1205 q 462 1235 490 1235 q 413 1219 434 1235 q 393 1173 393 1203 z "},"Ã":{"ha":916,"x_min":23,"x_max":892,"o":"m 54 0 q 34 3 45 0 q 23 19 23 6 q 25 30 23 24 q 29 40 27 35 q 148 298 89 169 q 263 557 206 427 q 356 771 310 664 q 451 985 402 879 q 458 989 453 989 q 465 985 463 989 q 559 771 513 879 q 652 557 606 664 q 768 298 709 427 q 886 40 827 169 q 890 30 888 35 q 892 19 892 24 q 882 3 892 6 q 861 0 871 0 l 724 0 q 699 17 707 0 q 688 40 693 28 q 679 63 684 52 q 650 132 664 97 q 621 201 636 168 q 613 207 618 207 l 277 207 q 270 201 272 207 q 239 132 254 168 q 209 62 224 97 q 199 39 204 52 q 188 16 194 27 q 163 0 179 0 l 54 0 m 334 349 l 559 349 q 505 484 532 416 q 449 619 477 551 q 392 484 420 551 q 334 349 363 416 m 586 1093 q 510 1108 541 1093 q 454 1143 478 1123 q 406 1179 429 1164 q 354 1194 382 1194 q 310 1171 323 1194 q 291 1122 296 1147 q 282 1101 288 1108 q 260 1093 276 1093 q 222 1093 243 1093 q 200 1118 200 1093 q 245 1248 200 1194 q 368 1303 290 1303 q 433 1286 404 1303 q 488 1249 463 1270 q 536 1211 513 1227 q 583 1195 559 1195 q 629 1221 618 1195 q 646 1274 641 1247 q 655 1294 649 1287 q 675 1301 661 1301 q 702 1301 687 1301 q 728 1297 717 1302 q 739 1276 739 1293 q 720 1191 739 1233 q 668 1120 702 1148 q 586 1093 634 1093 z "},"Æ":{"ha":1149,"x_min":22,"x_max":1099,"o":"m 22 18 q 25 31 22 25 q 32 43 28 37 q 193 301 113 172 q 351 561 273 430 q 464 750 408 655 q 578 937 519 845 q 602 951 587 951 l 1054 951 q 1082 922 1082 951 q 1082 868 1082 896 q 1079 814 1081 840 q 1051 787 1077 787 l 765 787 q 757 779 757 787 q 756 671 757 725 q 755 564 755 618 q 764 555 755 555 l 1000 540 q 1026 513 1026 538 l 1026 443 q 1001 415 1026 417 l 764 394 q 755 386 755 393 q 756 279 755 332 q 757 172 757 225 q 765 163 757 163 l 1067 163 q 1095 136 1093 163 q 1098 82 1097 110 q 1099 28 1099 55 q 1071 0 1099 0 l 614 0 q 586 28 586 0 l 586 208 q 578 217 586 217 l 332 217 q 324 212 327 217 q 269 113 295 166 q 213 14 243 60 q 189 0 204 0 l 56 0 q 35 3 47 0 q 22 18 22 5 m 400 351 l 586 351 l 586 694 q 493 523 539 608 q 400 351 447 437 z "},"B":{"ha":848,"x_min":85,"x_max":798,"o":"m 85 922 q 113 951 85 951 l 388 951 q 510 941 448 951 q 626 904 573 930 q 712 831 680 878 q 745 711 745 784 q 717 594 745 644 q 635 508 689 545 q 630 505 633 507 q 627 500 627 503 q 630 495 627 497 q 635 492 633 493 q 751 406 705 457 q 798 273 798 355 q 766 142 798 195 q 679 58 733 90 q 560 14 625 27 q 429 0 494 0 l 113 0 q 85 28 85 0 q 86 105 85 66 q 88 181 87 143 q 90 486 90 334 q 88 771 90 629 q 86 847 87 809 q 85 922 85 885 m 260 553 l 418 553 q 490 566 455 553 q 547 606 525 578 q 570 675 570 633 q 542 746 570 722 q 474 779 514 770 q 397 787 434 787 l 259 787 q 260 670 260 729 q 260 553 260 612 m 259 158 l 425 158 q 487 163 453 158 q 552 180 521 168 q 603 217 583 193 q 623 277 623 240 q 600 337 623 315 q 544 372 578 360 q 473 387 509 383 q 408 391 436 391 l 260 391 q 260 275 260 333 q 259 158 260 216 z "},"C":{"ha":823,"x_min":51,"x_max":770,"o":"m 696 214 q 711 207 706 214 q 720 193 716 201 q 736 162 724 186 q 760 113 749 137 q 770 83 770 89 q 759 64 770 73 q 639 8 711 27 q 507 -10 567 -10 q 262 54 364 -10 q 105 229 160 119 q 51 475 51 338 q 80 662 51 574 q 164 817 109 749 q 301 923 220 884 q 486 961 382 961 q 618 944 548 961 q 739 893 688 927 q 753 873 753 884 q 746 853 753 869 q 731 816 740 837 q 714 779 722 795 q 704 756 707 762 q 695 742 701 749 q 681 735 690 735 q 670 738 675 735 q 659 744 665 741 q 581 783 621 768 q 494 798 541 798 q 382 769 431 798 q 298 694 332 741 q 246 591 264 648 q 229 477 229 534 q 259 317 229 391 q 351 198 289 243 q 506 153 412 153 q 594 166 553 153 q 673 204 634 179 q 684 211 679 208 q 696 214 690 214 z "},"Ç":{"ha":823,"x_min":51,"x_max":770,"o":"m 696 214 q 711 207 706 214 q 720 193 716 201 q 736 162 724 186 q 760 113 749 137 q 770 83 770 89 q 759 64 770 73 q 639 8 711 27 q 507 -10 567 -10 q 262 54 364 -10 q 105 229 160 119 q 51 475 51 338 q 80 662 51 574 q 164 817 109 749 q 301 923 220 884 q 486 961 382 961 q 618 944 548 961 q 739 893 688 927 q 753 873 753 884 q 746 853 753 869 q 731 816 740 837 q 714 779 722 795 q 704 756 707 762 q 695 742 701 749 q 681 735 690 735 q 670 738 675 735 q 659 744 665 741 q 581 783 621 768 q 494 798 541 798 q 382 769 431 798 q 298 694 332 741 q 246 591 264 648 q 229 477 229 534 q 259 317 229 391 q 351 198 289 243 q 506 153 412 153 q 594 166 553 153 q 673 204 634 179 q 684 211 679 208 q 696 214 690 214 m 299 -273 q 308 -253 299 -266 q 327 -230 316 -240 q 347 -219 338 -219 q 358 -221 353 -219 q 368 -226 363 -223 q 453 -247 406 -247 q 496 -242 471 -247 q 541 -224 522 -237 q 560 -188 560 -211 q 542 -151 560 -163 q 499 -135 524 -139 q 456 -132 475 -132 q 416 -135 437 -132 q 376 -142 396 -138 q 367 -143 370 -143 q 342 -122 349 -143 q 330 -88 335 -101 q 328 -77 328 -83 q 340 -56 328 -66 q 429 9 382 -22 q 446 15 436 15 l 524 13 q 537 12 528 13 q 545 3 545 10 q 535 -15 545 -4 q 514 -36 524 -26 q 503 -52 503 -47 q 509 -56 503 -56 q 516 -57 514 -57 q 600 -71 557 -59 q 671 -111 642 -83 q 701 -189 701 -139 q 678 -260 701 -232 q 621 -306 656 -289 q 547 -329 586 -322 q 473 -336 507 -336 q 388 -327 433 -336 q 311 -292 344 -317 q 299 -273 299 -283 z "},"D":{"ha":945,"x_min":85,"x_max":892,"o":"m 113 0 q 85 28 85 0 q 86 100 85 64 q 88 171 87 136 q 91 328 90 250 q 92 484 92 406 q 91 635 92 559 q 89 785 90 710 q 87 854 88 819 q 85 922 85 888 q 113 951 85 951 l 368 951 q 582 918 481 951 q 758 815 683 886 q 867 629 832 744 q 892 460 892 546 q 830 218 892 321 q 659 57 767 115 q 414 0 551 0 l 113 0 m 259 163 l 385 163 q 626 243 536 163 q 717 478 717 323 q 680 636 717 566 q 575 747 642 707 q 418 788 508 788 l 260 788 q 261 644 260 716 q 261 498 261 571 q 259 163 261 332 z "},"Ð":{"ha":945,"x_min":-64,"x_max":892,"o":"m 113 0 q 85 28 85 0 q 86 100 85 64 q 88 171 87 136 q 91 328 90 250 q 92 484 92 406 q 91 635 92 559 q 89 785 90 710 q 87 854 88 819 q 85 922 85 888 q 113 951 85 951 l 368 951 q 582 918 481 951 q 758 815 683 886 q 867 629 832 744 q 892 460 892 546 q 830 218 892 321 q 659 57 767 115 q 414 0 551 0 l 113 0 m 259 163 l 385 163 q 626 243 536 163 q 717 478 717 323 q 680 636 717 566 q 575 747 642 707 q 418 788 508 788 l 260 788 q 261 644 260 716 q 261 498 261 571 q 259 163 261 332 m -64 521 q -36 549 -64 549 l 361 549 q 389 521 389 549 l 389 421 q 361 393 389 393 l -36 393 q -64 421 -64 393 l -64 521 z "},"E":{"ha":747,"x_min":85,"x_max":698,"o":"m 85 922 q 113 951 85 951 l 653 951 q 681 922 681 951 q 681 868 681 896 q 680 814 681 841 q 652 787 677 787 l 267 787 q 258 779 258 787 q 259 670 258 724 q 259 560 259 615 q 267 552 259 552 l 601 552 q 629 524 629 552 l 629 431 q 601 404 629 404 l 267 404 q 259 395 259 404 q 259 284 259 340 q 258 172 258 228 q 267 163 258 163 l 668 163 q 696 136 694 163 q 697 82 697 110 q 698 28 698 55 q 670 0 698 0 l 113 0 q 85 28 85 0 q 86 103 85 66 q 87 177 87 140 q 90 488 90 333 q 87 706 90 597 q 85 922 85 814 z "},"É":{"ha":747,"x_min":85,"x_max":698,"o":"m 85 922 q 113 951 85 951 l 653 951 q 681 922 681 951 q 681 868 681 896 q 680 814 681 841 q 652 787 677 787 l 267 787 q 258 779 258 787 q 259 670 258 724 q 259 560 259 615 q 267 552 259 552 l 601 552 q 629 524 629 552 l 629 431 q 601 404 629 404 l 267 404 q 259 395 259 404 q 259 284 259 340 q 258 172 258 228 q 267 163 258 163 l 668 163 q 696 136 694 163 q 697 82 697 110 q 698 28 698 55 q 670 0 698 0 l 113 0 q 85 28 85 0 q 86 103 85 66 q 87 177 87 140 q 90 488 90 333 q 87 706 90 597 q 85 922 85 814 m 570 1208 q 595 1206 578 1208 q 612 1192 612 1204 q 603 1174 612 1183 q 589 1160 594 1165 q 540 1116 564 1138 q 492 1072 515 1094 q 465 1047 479 1060 q 438 1023 452 1035 q 419 1016 429 1016 l 379 1016 q 358 1019 370 1016 q 347 1033 347 1021 q 350 1046 347 1040 q 357 1058 353 1053 q 404 1128 380 1093 q 452 1196 427 1163 q 475 1208 462 1208 l 570 1208 z "},"Ê":{"ha":747,"x_min":85,"x_max":698,"o":"m 85 922 q 113 951 85 951 l 653 951 q 681 922 681 951 q 681 868 681 896 q 680 814 681 841 q 652 787 677 787 l 267 787 q 258 779 258 787 q 259 670 258 724 q 259 560 259 615 q 267 552 259 552 l 601 552 q 629 524 629 552 l 629 431 q 601 404 629 404 l 267 404 q 259 395 259 404 q 259 284 259 340 q 258 172 258 228 q 267 163 258 163 l 668 163 q 696 136 694 163 q 697 82 697 110 q 698 28 698 55 q 670 0 698 0 l 113 0 q 85 28 85 0 q 86 103 85 66 q 87 177 87 140 q 90 488 90 333 q 87 706 90 597 q 85 922 85 814 m 507 1036 q 489 1043 498 1036 q 465 1063 484 1047 q 425 1097 447 1078 q 387 1129 404 1116 q 368 1143 370 1143 q 350 1129 366 1143 q 315 1097 335 1116 q 279 1063 296 1079 q 257 1044 262 1048 q 238 1036 248 1036 l 170 1036 q 146 1038 163 1036 q 130 1052 130 1040 q 138 1070 130 1061 q 151 1084 146 1080 q 251 1180 201 1133 q 353 1273 302 1227 q 362 1279 357 1276 q 372 1282 367 1282 q 382 1279 378 1282 q 391 1273 387 1276 q 493 1180 443 1227 q 593 1084 543 1133 q 606 1070 598 1080 q 614 1052 614 1061 q 598 1038 614 1040 q 574 1036 581 1036 l 507 1036 z "},"Ë":{"ha":747,"x_min":85,"x_max":698,"o":"m 85 922 q 113 951 85 951 l 653 951 q 681 922 681 951 q 681 868 681 896 q 680 814 681 841 q 652 787 677 787 l 267 787 q 258 779 258 787 q 259 670 258 724 q 259 560 259 615 q 267 552 259 552 l 601 552 q 629 524 629 552 l 629 431 q 601 404 629 404 l 267 404 q 259 395 259 404 q 259 284 259 340 q 258 172 258 228 q 267 163 258 163 l 668 163 q 696 136 694 163 q 697 82 697 110 q 698 28 698 55 q 670 0 698 0 l 113 0 q 85 28 85 0 q 86 103 85 66 q 87 177 87 140 q 90 488 90 333 q 87 706 90 597 q 85 922 85 814 m 133 1108 q 159 1172 133 1144 q 222 1199 186 1199 q 286 1172 258 1199 q 313 1109 313 1145 q 284 1046 313 1074 q 220 1019 255 1019 q 158 1046 184 1019 q 133 1108 133 1073 m 439 1105 q 467 1171 439 1143 q 532 1199 494 1199 q 593 1173 567 1199 q 620 1112 620 1147 q 592 1048 620 1077 q 528 1019 564 1019 q 466 1044 492 1019 q 439 1105 439 1069 z "},"È":{"ha":747,"x_min":85,"x_max":698,"o":"m 85 922 q 113 951 85 951 l 653 951 q 681 922 681 951 q 681 868 681 896 q 680 814 681 841 q 652 787 677 787 l 267 787 q 258 779 258 787 q 259 670 258 724 q 259 560 259 615 q 267 552 259 552 l 601 552 q 629 524 629 552 l 629 431 q 601 404 629 404 l 267 404 q 259 395 259 404 q 259 284 259 340 q 258 172 258 228 q 267 163 258 163 l 668 163 q 696 136 694 163 q 697 82 697 110 q 698 28 698 55 q 670 0 698 0 l 113 0 q 85 28 85 0 q 86 103 85 66 q 87 177 87 140 q 90 488 90 333 q 87 706 90 597 q 85 922 85 814 m 332 1023 q 313 1031 321 1023 q 244 1100 277 1065 q 177 1168 211 1135 q 164 1183 172 1174 q 157 1200 157 1192 q 173 1214 157 1212 q 197 1216 189 1216 l 295 1216 q 319 1202 311 1216 q 360 1134 340 1169 q 398 1065 379 1099 q 404 1054 401 1060 q 406 1042 406 1048 q 395 1026 406 1029 q 374 1023 384 1023 l 332 1023 z "},"F":{"ha":741,"x_min":85,"x_max":700,"o":"m 85 922 q 113 951 85 951 l 671 951 q 699 922 699 951 q 700 868 699 897 q 698 814 700 840 q 670 787 696 787 l 267 787 q 258 779 258 787 q 259 666 258 723 q 259 553 259 610 q 267 545 259 545 l 611 545 q 639 517 639 545 l 639 411 q 611 383 639 383 l 267 383 q 259 375 259 383 q 259 257 259 316 q 258 140 259 199 q 258 84 258 112 q 257 28 258 56 q 229 0 255 0 l 113 0 q 85 28 85 0 q 86 103 85 66 q 87 177 87 140 q 90 488 90 333 q 87 706 90 597 q 85 922 85 814 z "},"G":{"ha":937,"x_min":52,"x_max":873,"o":"m 873 103 q 862 81 873 90 q 771 34 828 54 q 655 1 715 13 q 552 -10 595 -10 q 298 44 412 -10 q 119 201 185 98 q 52 451 52 304 q 112 718 52 604 q 282 897 171 833 q 548 960 393 960 q 685 947 610 960 q 814 906 760 935 q 831 884 831 898 q 823 854 831 880 q 808 803 816 829 q 797 770 800 777 q 789 754 794 761 q 774 747 785 747 q 765 749 769 747 q 757 751 761 750 q 660 781 709 771 q 559 791 611 791 q 318 704 408 791 q 229 466 229 618 q 313 241 229 323 q 538 159 397 159 q 631 168 583 159 q 719 196 679 177 q 724 203 724 198 q 723 280 724 241 q 722 357 722 319 q 713 365 722 365 l 555 365 q 527 393 527 365 l 527 459 q 555 487 527 487 l 840 487 q 868 459 868 487 q 870 281 868 370 q 873 103 873 192 z "},"H":{"ha":994,"x_min":85,"x_max":909,"o":"m 881 951 q 909 922 909 951 q 907 853 909 888 q 905 784 906 819 q 903 638 904 711 q 903 492 903 565 q 903 336 903 414 q 905 178 904 257 q 908 103 907 141 q 909 28 909 66 q 882 0 909 0 l 765 0 q 745 7 750 0 q 737 27 739 14 q 735 61 736 39 q 735 106 735 83 q 736 144 736 130 q 734 388 734 266 q 725 396 734 396 l 269 396 q 261 388 261 396 q 259 144 261 266 q 259 106 259 130 q 260 61 260 83 q 258 27 260 39 q 251 7 256 14 q 230 0 245 0 l 113 0 q 85 28 85 0 q 86 103 85 66 q 89 178 88 141 q 91 336 90 257 q 92 492 92 414 q 91 638 92 565 q 89 784 90 711 q 87 853 88 819 q 85 922 85 888 q 113 951 85 951 l 231 951 q 251 944 246 951 q 258 924 256 937 q 260 868 261 905 q 260 808 259 830 q 261 687 260 748 q 261 566 261 627 q 270 558 261 558 l 725 558 q 734 566 734 558 q 734 687 734 627 q 735 808 734 748 q 735 868 736 830 q 736 924 734 905 q 744 944 739 937 q 764 951 749 951 l 881 951 z "},"I":{"ha":329,"x_min":78,"x_max":251,"o":"m 78 923 q 106 951 78 951 l 223 951 q 251 923 251 951 q 250 699 251 811 q 250 475 250 587 q 250 252 250 363 q 251 28 251 140 q 223 0 251 0 l 106 0 q 78 28 78 0 q 79 252 78 140 q 79 475 79 363 q 79 699 79 587 q 78 923 78 811 z "},"Í":{"ha":329,"x_min":78,"x_max":395,"o":"m 78 923 q 106 951 78 951 l 223 951 q 251 923 251 951 q 250 699 251 811 q 250 475 250 587 q 250 252 250 363 q 251 28 251 140 q 223 0 251 0 l 106 0 q 78 28 78 0 q 79 252 78 140 q 79 475 79 363 q 79 699 79 587 q 78 923 78 811 m 353 1208 q 377 1206 360 1208 q 395 1192 395 1204 q 386 1174 395 1183 q 371 1160 376 1165 q 322 1116 347 1138 q 274 1072 298 1094 q 248 1047 261 1060 q 220 1023 234 1035 q 201 1016 212 1016 l 161 1016 q 141 1019 153 1016 q 129 1033 129 1021 q 132 1046 129 1040 q 139 1058 136 1053 q 186 1128 162 1093 q 235 1196 210 1163 q 257 1208 244 1208 l 353 1208 z "},"Î":{"ha":329,"x_min":-88,"x_max":397,"o":"m 78 923 q 106 951 78 951 l 223 951 q 251 923 251 951 q 250 699 251 811 q 250 475 250 587 q 250 252 250 363 q 251 28 251 140 q 223 0 251 0 l 106 0 q 78 28 78 0 q 79 252 78 140 q 79 475 79 363 q 79 699 79 587 q 78 923 78 811 m 289 1036 q 271 1043 280 1036 q 248 1063 266 1047 q 208 1097 229 1078 q 169 1129 186 1116 q 151 1143 153 1143 q 133 1129 148 1143 q 98 1097 117 1116 q 61 1063 78 1079 q 39 1044 45 1048 q 20 1036 31 1036 l -47 1036 q -72 1038 -55 1036 q -88 1052 -88 1040 q -80 1070 -88 1061 q -66 1084 -72 1080 q 34 1180 -17 1133 q 136 1273 84 1227 q 144 1279 140 1276 q 155 1282 149 1282 q 165 1279 160 1282 q 174 1273 170 1276 q 275 1180 225 1227 q 375 1084 326 1133 q 389 1070 380 1080 q 397 1052 397 1061 q 380 1038 397 1040 q 356 1036 363 1036 l 289 1036 z "},"Ï":{"ha":329,"x_min":-85,"x_max":402,"o":"m 78 923 q 106 951 78 951 l 223 951 q 251 923 251 951 q 250 699 251 811 q 250 475 250 587 q 250 252 250 363 q 251 28 251 140 q 223 0 251 0 l 106 0 q 78 28 78 0 q 79 252 78 140 q 79 475 79 363 q 79 699 79 587 q 78 923 78 811 m -85 1108 q -58 1172 -85 1144 q 5 1199 -32 1199 q 68 1172 41 1199 q 95 1109 95 1145 q 66 1046 95 1074 q 2 1019 37 1019 q -59 1046 -34 1019 q -85 1108 -85 1073 m 222 1105 q 249 1171 222 1143 q 315 1199 277 1199 q 376 1173 349 1199 q 402 1112 402 1147 q 374 1048 402 1077 q 310 1019 346 1019 q 248 1044 275 1019 q 222 1105 222 1069 z "},"Ì":{"ha":329,"x_min":-61,"x_max":251,"o":"m 78 923 q 106 951 78 951 l 223 951 q 251 923 251 951 q 250 699 251 811 q 250 475 250 587 q 250 252 250 363 q 251 28 251 140 q 223 0 251 0 l 106 0 q 78 28 78 0 q 79 252 78 140 q 79 475 79 363 q 79 699 79 587 q 78 923 78 811 m 115 1023 q 95 1031 103 1023 q 26 1100 60 1065 q -41 1168 -7 1135 q -54 1183 -46 1174 q -61 1200 -61 1192 q -45 1214 -61 1212 q -21 1216 -28 1216 l 77 1216 q 101 1202 93 1216 q 142 1134 123 1169 q 180 1065 161 1099 q 186 1054 184 1060 q 189 1042 189 1048 q 177 1026 189 1029 q 157 1023 166 1023 l 115 1023 z "},"J":{"ha":371,"x_min":-21,"x_max":330,"o":"m 328 480 q 328 333 328 406 q 329 185 329 259 q 248 -75 329 28 q 7 -196 168 -178 l 3 -196 q -21 -169 -21 -196 l -19 -59 q -12 -39 -18 -44 q 7 -31 -6 -34 q 34 -23 21 -26 q 61 -13 47 -20 q 137 77 119 17 q 156 196 156 137 q 156 559 156 378 q 155 923 155 741 q 183 951 155 951 l 302 951 q 330 923 330 951 q 329 702 330 812 q 328 480 328 591 z "},"K":{"ha":828,"x_min":85,"x_max":787,"o":"m 232 950 q 260 922 258 950 q 261 861 262 892 q 261 800 260 830 q 262 671 262 735 q 262 542 262 606 q 269 534 262 534 l 272 534 q 585 821 501 597 q 601 872 595 846 q 614 926 607 899 q 623 944 617 938 q 642 950 628 950 l 754 950 q 774 945 766 950 q 782 927 782 941 q 781 918 782 921 q 700 701 758 802 q 549 524 642 599 q 513 497 532 509 q 475 472 494 484 q 470 465 470 470 q 490 434 470 463 q 542 362 510 406 q 611 268 574 318 q 682 172 648 218 q 742 91 717 125 q 774 47 767 58 q 783 34 779 41 q 787 19 787 26 q 774 4 787 7 q 752 2 760 2 l 621 2 q 599 13 608 2 q 561 62 579 37 q 523 113 542 87 q 453 206 488 159 q 382 300 418 253 q 346 351 363 326 q 308 401 328 376 q 302 404 304 404 q 286 402 296 404 q 269 399 277 401 q 262 391 262 398 q 261 268 262 329 q 260 145 261 206 q 260 86 260 116 q 259 28 261 56 q 231 0 257 0 l 113 0 q 85 28 85 0 q 87 102 85 65 q 89 176 88 139 q 91 486 91 332 q 89 781 91 634 q 87 851 88 817 q 86 922 86 886 q 114 950 86 950 l 232 950 z "},"L":{"ha":718,"x_min":85,"x_max":670,"o":"m 85 922 q 113 951 85 951 l 229 951 q 257 923 257 951 q 258 680 257 802 q 259 437 259 559 q 259 305 259 372 q 258 172 258 238 q 267 163 258 163 l 639 163 q 667 136 666 163 l 669 28 q 641 0 670 0 l 113 0 q 85 28 85 0 q 86 103 85 66 q 87 177 87 140 q 90 488 90 333 q 87 706 90 597 q 85 922 85 814 z "},"Ł":{"ha":718,"x_min":16,"x_max":671,"o":"m 288 565 q 320 573 298 565 q 369 593 342 582 q 420 613 396 604 q 456 621 444 621 q 471 615 466 621 q 478 600 475 608 q 491 555 482 585 q 500 512 500 526 q 481 488 500 496 l 287 420 q 281 412 281 418 q 281 292 281 353 q 281 172 281 232 q 290 163 281 163 l 640 163 q 667 136 667 163 l 669 28 q 642 0 671 0 l 136 0 q 108 28 108 0 q 110 188 108 108 q 111 347 111 267 q 105 356 111 356 q 83 349 94 356 q 60 342 71 342 q 38 363 43 342 q 25 409 34 379 q 16 452 16 439 q 31 474 16 467 q 64 486 45 481 q 97 496 83 491 q 112 509 112 500 q 110 715 112 612 q 109 922 109 819 q 136 951 109 951 l 252 951 q 280 923 280 951 q 281 748 280 836 q 281 574 281 661 q 288 565 281 565 z "},"M":{"ha":1097,"x_min":85,"x_max":1013,"o":"m 113 0 q 85 28 85 0 q 86 103 85 66 q 89 178 88 140 q 92 335 91 256 q 92 491 92 413 q 91 689 92 590 q 87 886 90 788 l 87 893 q 89 918 87 899 q 101 937 90 937 q 121 923 111 937 q 137 903 132 909 q 338 613 241 762 q 537 321 435 465 q 544 317 541 317 q 551 321 547 317 q 754 614 655 466 q 960 905 854 763 q 976 925 965 911 q 996 938 987 938 q 1009 919 1008 938 q 1010 895 1010 900 l 1010 888 q 1006 689 1008 789 q 1005 491 1005 590 q 1006 335 1005 413 q 1008 178 1006 256 q 1011 103 1010 140 q 1013 28 1013 66 q 985 0 1013 0 l 868 0 q 847 7 853 0 q 840 27 842 14 q 840 48 840 37 q 840 69 840 59 l 838 168 q 836 315 837 241 q 836 463 836 389 q 835 472 836 465 q 831 479 835 479 q 825 474 829 479 q 821 467 822 469 q 733 331 777 399 q 646 193 690 262 q 611 137 629 165 q 574 81 593 109 q 565 70 570 76 q 551 63 559 63 q 538 69 544 63 q 528 80 532 75 q 495 128 511 104 q 462 177 478 153 q 367 316 414 246 q 271 455 320 387 q 267 461 271 456 q 261 465 264 465 q 257 458 258 465 q 256 450 256 452 q 256 307 256 378 q 254 163 255 235 l 252 68 q 253 47 252 58 q 252 27 253 37 q 245 7 250 14 q 224 0 239 0 l 113 0 z "},"N":{"ha":997,"x_min":84,"x_max":913,"o":"m 911 -27 q 871 6 907 -27 q 778 95 835 40 q 653 215 721 149 q 518 346 585 280 q 394 466 451 411 q 303 553 338 520 q 266 587 268 587 q 262 582 262 587 q 261 574 261 576 q 261 451 261 513 q 262 328 262 390 q 262 225 262 277 q 261 122 262 174 q 262 75 261 100 q 260 27 263 49 q 254 7 259 14 q 233 0 248 0 l 113 0 q 85 28 85 0 q 86 106 85 67 q 89 183 88 144 q 91 338 90 260 q 92 492 92 415 q 91 655 92 574 q 88 818 90 736 q 86 895 87 857 q 84 972 84 934 q 88 977 84 977 q 95 974 92 977 q 411 667 256 824 q 724 357 566 510 q 728 354 726 356 q 734 351 731 351 q 738 356 738 351 q 739 363 739 361 q 738 489 739 427 q 738 615 738 552 q 738 723 738 669 q 739 831 738 777 q 738 877 739 853 q 739 923 737 901 q 746 944 741 937 q 767 951 751 951 l 884 951 q 911 922 911 951 q 910 852 911 887 q 908 781 909 817 q 906 632 907 707 q 905 482 905 557 q 913 -25 905 229 l 911 -27 z "},"Ñ":{"ha":997,"x_min":84,"x_max":913,"o":"m 911 -27 q 871 6 907 -27 q 778 95 835 40 q 653 215 721 149 q 518 346 585 280 q 394 466 451 411 q 303 553 338 520 q 266 587 268 587 q 262 582 262 587 q 261 574 261 576 q 261 451 261 513 q 262 328 262 390 q 262 225 262 277 q 261 122 262 174 q 262 75 261 100 q 260 27 263 49 q 254 7 259 14 q 233 0 248 0 l 113 0 q 85 28 85 0 q 86 106 85 67 q 89 183 88 144 q 91 338 90 260 q 92 492 92 415 q 91 655 92 574 q 88 818 90 736 q 86 895 87 857 q 84 972 84 934 q 88 977 84 977 q 95 974 92 977 q 411 667 256 824 q 724 357 566 510 q 728 354 726 356 q 734 351 731 351 q 738 356 738 351 q 739 363 739 361 q 738 489 739 427 q 738 615 738 552 q 738 723 738 669 q 739 831 738 777 q 738 877 739 853 q 739 923 737 901 q 746 944 741 937 q 767 951 751 951 l 884 951 q 911 922 911 951 q 910 852 911 887 q 908 781 909 817 q 906 632 907 707 q 905 482 905 557 q 913 -25 905 229 l 911 -27 m 604 1047 q 528 1062 559 1047 q 472 1098 496 1078 q 424 1134 448 1118 q 372 1149 401 1149 q 328 1125 341 1149 q 309 1076 315 1102 q 300 1055 307 1063 q 279 1048 294 1048 q 240 1048 262 1048 q 218 1073 218 1048 q 263 1203 218 1148 q 387 1257 308 1257 q 452 1241 422 1257 q 506 1203 481 1225 q 554 1166 531 1182 q 602 1149 577 1149 q 648 1176 636 1149 q 665 1229 659 1202 q 673 1249 667 1242 q 694 1255 680 1255 q 720 1256 705 1255 q 746 1252 735 1257 q 757 1230 757 1247 q 739 1145 757 1187 q 686 1075 720 1103 q 604 1047 652 1047 z "},"O":{"ha":1007,"x_min":53,"x_max":956,"o":"m 53 474 q 86 656 53 569 q 179 812 119 743 q 321 920 239 880 q 503 960 404 960 q 684 920 602 960 q 828 811 767 880 q 922 654 888 742 q 956 472 956 567 q 922 291 956 377 q 827 136 888 204 q 684 29 766 68 q 503 -10 601 -10 q 320 29 402 -10 q 178 136 237 68 q 85 291 118 203 q 53 474 53 378 m 509 153 q 655 201 595 153 q 747 322 715 248 q 779 474 779 396 q 746 628 779 554 q 652 750 713 702 q 503 798 591 798 q 356 750 418 798 q 260 629 294 703 q 227 476 227 555 q 261 322 227 396 q 359 200 296 248 q 509 153 422 153 z "},"Ó":{"ha":1007,"x_min":53,"x_max":956,"o":"m 53 474 q 86 656 53 569 q 179 812 119 743 q 321 920 239 880 q 503 960 404 960 q 684 920 602 960 q 828 811 767 880 q 922 654 888 742 q 956 472 956 567 q 922 291 956 377 q 827 136 888 204 q 684 29 766 68 q 503 -10 601 -10 q 320 29 402 -10 q 178 136 237 68 q 85 291 118 203 q 53 474 53 378 m 509 153 q 655 201 595 153 q 747 322 715 248 q 779 474 779 396 q 746 628 779 554 q 652 750 713 702 q 503 798 591 798 q 356 750 418 798 q 260 629 294 703 q 227 476 227 555 q 261 322 227 396 q 359 200 296 248 q 509 153 422 153 m 690 1197 q 715 1195 698 1197 q 732 1181 732 1193 q 723 1163 732 1172 q 709 1148 714 1154 q 660 1104 684 1126 q 612 1061 635 1082 q 585 1036 599 1048 q 558 1012 572 1023 q 539 1004 549 1004 l 499 1004 q 478 1007 490 1004 q 467 1021 467 1010 q 470 1035 467 1028 q 477 1046 473 1042 q 524 1116 500 1081 q 572 1185 547 1152 q 595 1197 582 1197 l 690 1197 z "},"Ô":{"ha":1007,"x_min":53,"x_max":956,"o":"m 53 474 q 86 656 53 569 q 179 812 119 743 q 321 920 239 880 q 503 960 404 960 q 684 920 602 960 q 828 811 767 880 q 922 654 888 742 q 956 472 956 567 q 922 291 956 377 q 827 136 888 204 q 684 29 766 68 q 503 -10 601 -10 q 320 29 402 -10 q 178 136 237 68 q 85 291 118 203 q 53 474 53 378 m 509 153 q 655 201 595 153 q 747 322 715 248 q 779 474 779 396 q 746 628 779 554 q 652 750 713 702 q 503 798 591 798 q 356 750 418 798 q 260 629 294 703 q 227 476 227 555 q 261 322 227 396 q 359 200 296 248 q 509 153 422 153 m 627 1025 q 609 1031 618 1025 q 585 1051 604 1036 q 545 1085 567 1067 q 507 1118 524 1104 q 488 1131 490 1131 q 470 1118 486 1131 q 435 1086 455 1104 q 399 1052 416 1067 q 377 1032 382 1036 q 358 1025 368 1025 l 290 1025 q 266 1027 283 1025 q 250 1040 250 1029 q 258 1059 250 1049 q 271 1073 266 1068 q 371 1168 321 1121 q 473 1261 422 1216 q 482 1268 477 1265 q 492 1271 487 1271 q 503 1268 498 1271 q 511 1261 507 1265 q 613 1168 563 1216 q 713 1073 663 1121 q 726 1059 718 1068 q 734 1040 734 1049 q 718 1027 734 1029 q 694 1025 701 1025 l 627 1025 z "},"Ö":{"ha":1007,"x_min":53,"x_max":956,"o":"m 53 474 q 86 656 53 569 q 179 812 119 743 q 321 920 239 880 q 503 960 404 960 q 684 920 602 960 q 828 811 767 880 q 922 654 888 742 q 956 472 956 567 q 922 291 956 377 q 827 136 888 204 q 684 29 766 68 q 503 -10 601 -10 q 320 29 402 -10 q 178 136 237 68 q 85 291 118 203 q 53 474 53 378 m 509 153 q 655 201 595 153 q 747 322 715 248 q 779 474 779 396 q 746 628 779 554 q 652 750 713 702 q 503 798 591 798 q 356 750 418 798 q 260 629 294 703 q 227 476 227 555 q 261 322 227 396 q 359 200 296 248 q 509 153 422 153 m 253 1097 q 279 1160 253 1133 q 342 1187 306 1187 q 406 1161 378 1187 q 433 1098 433 1134 q 404 1035 433 1062 q 340 1008 375 1008 q 278 1035 304 1008 q 253 1097 253 1061 m 559 1093 q 587 1159 559 1131 q 652 1187 614 1187 q 713 1161 687 1187 q 740 1101 740 1135 q 712 1037 740 1065 q 648 1008 684 1008 q 586 1033 612 1008 q 559 1093 559 1057 z "},"Ò":{"ha":1007,"x_min":53,"x_max":956,"o":"m 53 474 q 86 656 53 569 q 179 812 119 743 q 321 920 239 880 q 503 960 404 960 q 684 920 602 960 q 828 811 767 880 q 922 654 888 742 q 956 472 956 567 q 922 291 956 377 q 827 136 888 204 q 684 29 766 68 q 503 -10 601 -10 q 320 29 402 -10 q 178 136 237 68 q 85 291 118 203 q 53 474 53 378 m 509 153 q 655 201 595 153 q 747 322 715 248 q 779 474 779 396 q 746 628 779 554 q 652 750 713 702 q 503 798 591 798 q 356 750 418 798 q 260 629 294 703 q 227 476 227 555 q 261 322 227 396 q 359 200 296 248 q 509 153 422 153 m 452 1012 q 433 1020 441 1012 q 364 1088 397 1053 q 297 1157 331 1123 q 284 1171 292 1162 q 277 1188 277 1180 q 293 1202 277 1200 q 317 1204 309 1204 l 415 1204 q 439 1191 431 1204 q 480 1122 460 1158 q 518 1053 499 1087 q 524 1042 522 1048 q 526 1030 526 1036 q 515 1015 526 1018 q 494 1012 504 1012 l 452 1012 z "},"Ø":{"ha":1007,"x_min":53,"x_max":949,"o":"m 814 968 q 833 960 823 968 q 866 930 850 946 q 897 899 882 915 q 905 890 901 895 q 908 880 908 886 q 892 849 908 868 q 860 813 876 830 q 844 789 844 796 q 846 784 844 786 q 949 472 949 643 q 917 291 949 378 q 824 136 884 204 q 682 29 764 68 q 500 -10 600 -10 q 378 8 435 -10 q 266 59 321 26 q 260 61 262 61 q 240 42 254 61 q 211 4 227 23 q 183 -16 195 -16 q 164 -7 174 -16 q 131 22 147 7 q 99 53 115 38 q 92 62 95 57 q 88 73 88 66 q 104 102 88 83 q 137 139 121 121 q 153 163 153 157 q 151 168 153 165 q 53 471 53 304 q 85 653 53 565 q 176 810 117 741 q 317 920 235 880 q 499 961 399 961 q 619 942 564 961 q 730 892 674 924 q 735 890 734 890 q 755 909 741 890 q 786 949 770 929 q 814 968 802 968 m 229 480 q 239 390 229 434 q 270 304 249 345 q 451 532 361 418 q 633 760 542 646 q 505 798 574 798 q 357 751 419 798 q 262 632 295 705 q 229 480 229 559 m 366 195 q 503 153 431 153 q 649 199 588 153 q 742 318 710 245 q 774 469 774 391 q 764 564 774 517 q 730 652 754 610 q 549 424 640 538 q 366 195 458 309 z "},"Õ":{"ha":1007,"x_min":53,"x_max":956,"o":"m 53 474 q 86 656 53 569 q 179 812 119 743 q 321 920 239 880 q 503 960 404 960 q 684 920 602 960 q 828 811 767 880 q 922 654 888 742 q 956 472 956 567 q 922 291 956 377 q 827 136 888 204 q 684 29 766 68 q 503 -10 601 -10 q 320 29 402 -10 q 178 136 237 68 q 85 291 118 203 q 53 474 53 378 m 509 153 q 655 201 595 153 q 747 322 715 248 q 779 474 779 396 q 746 628 779 554 q 652 750 713 702 q 503 798 591 798 q 356 750 418 798 q 260 629 294 703 q 227 476 227 555 q 261 322 227 396 q 359 200 296 248 q 509 153 422 153 m 631 1058 q 555 1073 587 1058 q 499 1109 524 1088 q 451 1144 475 1129 q 399 1160 428 1160 q 355 1136 368 1160 q 336 1087 342 1113 q 328 1066 334 1074 q 306 1059 321 1059 q 267 1059 289 1059 q 245 1084 245 1059 q 290 1214 245 1159 q 414 1268 335 1268 q 479 1252 450 1268 q 533 1214 508 1236 q 581 1177 558 1193 q 629 1160 604 1160 q 675 1186 663 1160 q 692 1240 686 1213 q 701 1259 694 1253 q 721 1266 707 1266 q 747 1267 732 1266 q 773 1263 762 1267 q 784 1241 784 1258 q 766 1156 784 1198 q 713 1086 747 1114 q 631 1058 680 1058 z "},"Œ":{"ha":1303,"x_min":63,"x_max":1250,"o":"m 790 388 q 791 279 790 334 q 791 171 791 225 q 800 163 791 163 l 1219 163 q 1239 156 1234 163 q 1246 136 1244 150 q 1249 83 1249 111 q 1250 29 1250 55 q 1222 0 1250 0 l 653 0 q 638 -2 647 0 q 623 -5 630 -4 q 553 -10 590 -10 q 362 26 451 -10 q 206 129 273 63 q 101 282 139 194 q 63 472 63 370 q 101 662 63 573 q 205 818 138 750 q 360 923 272 885 q 549 961 448 961 q 620 956 587 961 q 635 953 627 956 q 650 951 643 951 l 1203 951 q 1231 922 1231 951 q 1230 870 1231 901 q 1227 820 1230 840 q 1220 800 1226 806 q 1200 793 1215 793 l 800 793 q 791 785 791 793 q 791 674 791 730 q 790 564 790 619 q 798 556 790 556 l 1141 556 q 1169 528 1169 556 l 1169 424 q 1141 396 1169 396 l 799 396 q 790 388 790 396 m 614 159 q 615 473 615 316 q 615 787 615 630 q 585 791 600 790 q 555 793 570 793 q 395 750 467 793 q 281 635 323 707 q 239 475 239 563 q 281 313 239 385 q 397 197 324 240 q 559 155 470 155 q 614 159 589 155 z "},"P":{"ha":867,"x_min":85,"x_max":829,"o":"m 85 922 q 113 951 85 951 l 418 951 q 566 935 493 951 q 699 882 639 918 q 793 786 758 846 q 829 638 829 726 q 825 588 829 614 q 813 539 821 563 q 729 409 787 458 q 594 338 671 359 q 439 316 518 316 l 268 316 q 260 308 260 316 l 258 27 q 230 0 258 0 l 113 0 q 85 28 85 0 q 86 102 85 65 q 88 176 87 139 q 90 486 90 330 q 88 777 90 632 q 86 850 87 813 q 85 922 85 886 m 260 480 l 441 480 q 523 491 481 480 q 599 525 564 501 q 649 587 633 548 q 656 610 653 597 q 660 633 660 623 q 656 656 660 643 q 650 679 653 669 q 601 741 634 718 q 528 776 568 765 q 449 787 488 787 l 259 787 q 260 634 260 711 q 260 480 260 557 z "},"Þ":{"ha":867,"x_min":85,"x_max":827,"o":"m 445 787 q 635 756 548 787 q 774 655 722 724 q 827 471 827 585 q 775 290 827 359 q 638 187 724 220 q 452 154 553 154 l 273 154 q 264 145 264 154 q 264 106 264 125 q 263 66 264 86 q 264 47 263 58 q 263 27 264 37 q 256 7 262 14 q 235 0 251 0 l 113 0 q 85 28 85 0 q 86 102 85 65 q 88 175 87 138 q 90 484 90 330 q 88 777 90 630 q 86 847 87 812 q 85 917 85 882 q 113 945 85 945 l 235 945 q 263 918 263 945 q 263 857 263 888 q 264 796 262 826 q 273 787 266 787 l 445 787 m 265 317 l 434 317 q 533 331 482 317 q 619 379 584 345 q 654 471 654 413 q 618 560 654 526 q 532 610 583 594 q 437 625 482 625 l 265 625 q 265 317 267 471 z "},"Q":{"ha":1007,"x_min":53,"x_max":954,"o":"m 53 474 q 86 656 53 569 q 179 812 119 743 q 321 921 239 881 q 503 961 404 961 q 683 921 601 961 q 826 812 766 881 q 921 656 887 743 q 954 474 954 568 q 906 254 954 354 q 764 79 857 154 q 761 73 761 77 q 774 48 761 68 q 805 3 787 28 q 835 -44 822 -22 q 848 -75 848 -66 q 836 -90 848 -87 q 814 -92 823 -92 l 713 -92 q 690 -79 699 -92 q 663 -37 675 -59 q 637 5 650 -16 q 629 9 634 9 q 628 8 629 9 q 627 8 627 8 q 565 -5 596 -1 q 503 -10 534 -10 q 320 29 402 -10 q 178 136 237 68 q 85 291 118 203 q 53 474 53 378 m 600 324 q 634 269 617 296 q 669 213 652 241 q 753 334 728 263 q 779 479 779 404 q 745 631 779 557 q 650 751 712 704 q 503 798 589 798 q 355 750 417 798 q 261 629 294 703 q 229 476 229 555 q 262 321 229 395 q 359 200 296 248 q 509 153 422 153 q 543 155 526 153 q 492 238 517 197 q 441 319 467 279 q 521 322 481 321 q 600 324 560 323 z "},"R":{"ha":825,"x_min":85,"x_max":785,"o":"m 365 951 q 547 918 465 951 q 676 816 628 885 q 724 638 724 747 q 690 480 724 551 q 581 362 656 410 q 576 355 576 360 q 594 323 576 353 q 640 252 612 294 q 696 165 667 209 q 747 87 725 121 q 774 43 768 53 q 781 32 778 38 q 785 18 785 25 q 772 3 785 5 q 751 0 760 0 l 616 0 q 593 12 603 0 q 554 70 572 39 q 517 128 536 100 q 456 220 487 174 q 397 313 426 266 q 389 317 394 317 l 268 317 q 260 309 260 317 q 259 215 260 262 q 258 121 259 168 q 259 74 258 102 q 258 27 260 45 q 251 7 256 14 q 230 0 245 0 l 113 0 q 85 28 85 0 q 86 102 85 65 q 88 176 87 139 q 90 486 90 331 q 88 782 90 633 q 86 852 87 817 q 85 922 85 887 q 113 951 85 951 l 365 951 m 260 480 l 397 480 q 506 522 464 480 q 548 632 548 564 q 509 745 548 702 q 399 787 469 787 l 259 787 q 260 634 260 711 q 260 480 260 557 z "},"S":{"ha":648,"x_min":49,"x_max":601,"o":"m 559 901 q 554 876 559 898 q 544 832 549 854 q 537 806 539 810 q 530 789 534 796 q 513 782 525 782 q 497 785 506 782 q 445 800 471 794 q 391 806 419 806 q 324 796 357 806 q 268 764 290 787 q 245 700 245 741 q 271 616 245 649 q 337 560 297 583 q 423 514 378 536 q 509 460 469 491 q 575 382 549 429 q 601 262 601 336 q 553 102 601 162 q 429 16 506 43 q 262 -10 351 -10 q 200 -7 236 -10 q 128 2 163 -4 q 68 18 92 9 q 54 26 60 22 q 49 41 49 31 q 54 68 49 45 q 66 114 60 91 q 73 142 72 137 q 81 158 77 152 q 97 164 85 164 q 110 162 104 164 q 177 146 143 153 q 246 139 212 139 q 329 151 289 139 q 394 191 368 163 q 419 269 419 220 q 393 360 419 326 q 325 417 366 394 q 237 462 283 441 q 149 512 191 484 q 81 586 108 541 q 55 704 55 631 q 98 849 55 794 q 210 930 140 905 q 360 956 280 956 q 452 949 400 956 q 541 925 505 941 q 554 917 549 922 q 559 901 559 911 z "},"Š":{"ha":648,"x_min":47,"x_max":601,"o":"m 559 901 q 554 876 559 898 q 544 832 549 854 q 537 806 539 810 q 530 789 534 796 q 513 782 525 782 q 497 785 506 782 q 445 800 471 794 q 391 806 419 806 q 324 796 357 806 q 268 764 290 787 q 245 700 245 741 q 271 616 245 649 q 337 560 297 583 q 423 514 378 536 q 509 460 469 491 q 575 382 549 429 q 601 262 601 336 q 553 102 601 162 q 429 16 506 43 q 262 -10 351 -10 q 200 -7 236 -10 q 128 2 163 -4 q 68 18 92 9 q 54 26 60 22 q 49 41 49 31 q 54 68 49 45 q 66 114 60 91 q 73 142 72 137 q 81 158 77 152 q 97 164 85 164 q 110 162 104 164 q 177 146 143 153 q 246 139 212 139 q 329 151 289 139 q 394 191 368 163 q 419 269 419 220 q 393 360 419 326 q 325 417 366 394 q 237 462 283 441 q 149 512 191 484 q 81 586 108 541 q 55 704 55 631 q 98 849 55 794 q 210 930 140 905 q 360 956 280 956 q 452 949 400 956 q 541 925 505 941 q 554 917 549 922 q 559 901 559 911 m 156 1237 q 174 1230 165 1237 q 197 1211 178 1226 q 238 1176 216 1195 q 278 1144 260 1158 q 296 1131 295 1131 q 314 1144 298 1131 q 351 1176 330 1158 q 389 1211 372 1195 q 410 1230 406 1226 q 429 1237 417 1237 l 496 1237 q 520 1235 503 1237 q 537 1221 537 1233 q 529 1203 537 1213 q 515 1189 520 1194 q 453 1131 484 1160 q 391 1074 422 1103 q 352 1037 372 1055 q 313 1000 332 1018 q 294 991 302 991 q 275 1000 285 991 q 172 1094 222 1046 q 70 1189 121 1142 q 56 1203 64 1194 q 47 1221 47 1213 q 64 1235 47 1233 q 88 1237 81 1237 l 156 1237 z "},"T":{"ha":713,"x_min":41,"x_max":673,"o":"m 41 922 q 69 951 41 951 l 644 951 q 672 922 672 951 q 672 868 672 896 q 671 814 673 841 q 643 787 669 787 l 446 787 q 438 779 438 787 q 438 636 438 707 q 437 492 437 564 q 438 260 437 376 q 439 28 439 144 q 411 0 439 0 l 294 0 q 266 28 266 0 q 267 267 266 147 q 268 505 268 386 l 267 779 q 258 787 267 787 l 71 787 q 43 814 45 787 q 41 868 41 841 q 41 922 41 896 z "},"U":{"ha":917,"x_min":73,"x_max":844,"o":"m 248 509 q 248 428 248 468 q 248 347 248 387 q 277 243 248 286 q 355 177 307 200 q 461 155 404 155 q 611 204 550 155 q 672 347 672 254 q 672 428 672 387 q 671 509 671 468 q 672 650 671 579 q 673 791 672 720 l 673 890 l 674 924 q 681 944 675 937 q 702 951 687 951 l 817 951 q 844 922 844 951 q 843 848 844 885 q 841 774 842 811 q 839 494 839 634 q 839 419 839 457 q 840 343 840 381 q 787 155 839 235 q 649 33 735 76 q 458 -10 563 -10 q 267 33 353 -10 q 129 155 180 76 q 77 343 77 235 q 78 419 77 381 q 78 494 78 457 q 76 774 78 634 q 74 848 75 811 q 73 922 73 885 q 100 951 73 951 l 218 951 q 238 944 233 951 q 245 924 244 937 l 246 890 l 247 791 q 248 650 248 720 q 248 509 248 579 z "},"Ú":{"ha":917,"x_min":73,"x_max":844,"o":"m 248 509 q 248 428 248 468 q 248 347 248 387 q 277 243 248 286 q 355 177 307 200 q 461 155 404 155 q 611 204 550 155 q 672 347 672 254 q 672 428 672 387 q 671 509 671 468 q 672 650 671 579 q 673 791 672 720 l 673 890 l 674 924 q 681 944 675 937 q 702 951 687 951 l 817 951 q 844 922 844 951 q 843 848 844 885 q 841 774 842 811 q 839 494 839 634 q 839 419 839 457 q 840 343 840 381 q 787 155 839 235 q 649 33 735 76 q 458 -10 563 -10 q 267 33 353 -10 q 129 155 180 76 q 77 343 77 235 q 78 419 77 381 q 78 494 78 457 q 76 774 78 634 q 74 848 75 811 q 73 922 73 885 q 100 951 73 951 l 218 951 q 238 944 233 951 q 245 924 244 937 l 246 890 l 247 791 q 248 650 248 720 q 248 509 248 579 m 646 1208 q 671 1206 654 1208 q 688 1192 688 1204 q 679 1174 688 1183 q 665 1160 670 1165 q 616 1116 640 1138 q 568 1072 591 1094 q 541 1047 555 1060 q 514 1023 528 1035 q 495 1016 505 1016 l 455 1016 q 434 1019 446 1016 q 422 1033 422 1021 q 426 1046 422 1040 q 433 1058 429 1053 q 479 1128 456 1093 q 528 1196 503 1163 q 551 1208 538 1208 l 646 1208 z "},"Û":{"ha":917,"x_min":73,"x_max":844,"o":"m 248 509 q 248 428 248 468 q 248 347 248 387 q 277 243 248 286 q 355 177 307 200 q 461 155 404 155 q 611 204 550 155 q 672 347 672 254 q 672 428 672 387 q 671 509 671 468 q 672 650 671 579 q 673 791 672 720 l 673 890 l 674 924 q 681 944 675 937 q 702 951 687 951 l 817 951 q 844 922 844 951 q 843 848 844 885 q 841 774 842 811 q 839 494 839 634 q 839 419 839 457 q 840 343 840 381 q 787 155 839 235 q 649 33 735 76 q 458 -10 563 -10 q 267 33 353 -10 q 129 155 180 76 q 77 343 77 235 q 78 419 77 381 q 78 494 78 457 q 76 774 78 634 q 74 848 75 811 q 73 922 73 885 q 100 951 73 951 l 218 951 q 238 944 233 951 q 245 924 244 937 l 246 890 l 247 791 q 248 650 248 720 q 248 509 248 579 m 583 1036 q 565 1043 574 1036 q 541 1063 559 1047 q 501 1097 523 1078 q 463 1129 479 1116 q 444 1143 446 1143 q 426 1129 441 1143 q 391 1097 411 1116 q 355 1063 372 1079 q 333 1044 338 1048 q 314 1036 324 1036 l 246 1036 q 222 1038 239 1036 q 205 1052 205 1040 q 214 1070 205 1061 q 227 1084 222 1080 q 327 1180 277 1133 q 429 1273 378 1227 q 438 1279 433 1276 q 448 1282 443 1282 q 458 1279 454 1282 q 467 1273 463 1276 q 569 1180 519 1227 q 669 1084 619 1133 q 682 1070 674 1080 q 690 1052 690 1061 q 674 1038 690 1040 q 650 1036 657 1036 l 583 1036 z "},"Ü":{"ha":917,"x_min":73,"x_max":844,"o":"m 248 509 q 248 428 248 468 q 248 347 248 387 q 277 243 248 286 q 355 177 307 200 q 461 155 404 155 q 611 204 550 155 q 672 347 672 254 q 672 428 672 387 q 671 509 671 468 q 672 650 671 579 q 673 791 672 720 l 673 890 l 674 924 q 681 944 675 937 q 702 951 687 951 l 817 951 q 844 922 844 951 q 843 848 844 885 q 841 774 842 811 q 839 494 839 634 q 839 419 839 457 q 840 343 840 381 q 787 155 839 235 q 649 33 735 76 q 458 -10 563 -10 q 267 33 353 -10 q 129 155 180 76 q 77 343 77 235 q 78 419 77 381 q 78 494 78 457 q 76 774 78 634 q 74 848 75 811 q 73 922 73 885 q 100 951 73 951 l 218 951 q 238 944 233 951 q 245 924 244 937 l 246 890 l 247 791 q 248 650 248 720 q 248 509 248 579 m 209 1108 q 235 1172 209 1144 q 298 1199 262 1199 q 361 1172 334 1199 q 389 1109 389 1145 q 360 1046 389 1074 q 296 1019 331 1019 q 234 1046 260 1019 q 209 1108 209 1073 m 515 1105 q 543 1171 515 1143 q 608 1199 570 1199 q 669 1173 643 1199 q 696 1112 696 1147 q 668 1048 696 1077 q 604 1019 640 1019 q 542 1044 568 1019 q 515 1105 515 1069 z "},"Ù":{"ha":917,"x_min":73,"x_max":844,"o":"m 248 509 q 248 428 248 468 q 248 347 248 387 q 277 243 248 286 q 355 177 307 200 q 461 155 404 155 q 611 204 550 155 q 672 347 672 254 q 672 428 672 387 q 671 509 671 468 q 672 650 671 579 q 673 791 672 720 l 673 890 l 674 924 q 681 944 675 937 q 702 951 687 951 l 817 951 q 844 922 844 951 q 843 848 844 885 q 841 774 842 811 q 839 494 839 634 q 839 419 839 457 q 840 343 840 381 q 787 155 839 235 q 649 33 735 76 q 458 -10 563 -10 q 267 33 353 -10 q 129 155 180 76 q 77 343 77 235 q 78 419 77 381 q 78 494 78 457 q 76 774 78 634 q 74 848 75 811 q 73 922 73 885 q 100 951 73 951 l 218 951 q 238 944 233 951 q 245 924 244 937 l 246 890 l 247 791 q 248 650 248 720 q 248 509 248 579 m 408 1023 q 389 1031 397 1023 q 320 1100 353 1065 q 253 1168 287 1135 q 240 1183 248 1174 q 233 1200 233 1192 q 249 1214 233 1212 q 273 1216 265 1216 l 371 1216 q 395 1202 387 1216 q 436 1134 416 1169 q 474 1065 455 1099 q 480 1054 477 1060 q 482 1042 482 1048 q 471 1026 482 1029 q 450 1023 460 1023 l 408 1023 z "},"V":{"ha":860,"x_min":41,"x_max":820,"o":"m 218 951 q 243 932 235 951 q 253 908 249 921 q 262 882 257 895 l 298 782 q 363 596 332 690 q 430 412 395 503 q 433 405 431 410 q 438 401 435 401 q 444 405 441 401 q 446 412 446 410 q 466 471 456 441 q 485 530 475 500 q 527 656 506 593 q 569 781 548 719 l 603 882 q 611 907 607 894 q 620 932 615 920 q 646 951 628 951 l 789 951 q 810 947 800 951 q 820 930 820 943 q 815 912 820 923 q 709 654 762 783 q 605 395 656 525 l 502 136 q 480 78 491 106 q 456 20 469 49 q 447 1 454 14 q 431 -12 440 -12 q 414 1 421 -12 q 405 20 408 14 q 382 78 393 49 q 359 136 371 106 l 268 366 q 159 640 214 503 q 46 912 103 777 q 41 931 41 923 q 52 947 41 944 q 71 951 62 951 l 218 951 z "},"W":{"ha":1239,"x_min":41,"x_max":1200,"o":"m 395 -12 q 380 2 386 -12 q 371 22 374 16 q 350 79 360 50 q 331 137 340 109 q 285 267 308 202 q 239 397 262 332 q 144 655 193 526 q 45 912 95 784 q 42 921 43 917 q 41 930 41 926 q 51 947 41 943 q 71 951 60 951 l 212 951 q 238 932 230 951 q 266 853 252 898 q 291 772 279 808 q 352 575 323 673 q 412 378 381 477 q 415 371 413 376 q 420 366 417 366 q 426 371 424 366 q 429 378 428 376 q 452 438 441 408 q 473 498 463 469 l 562 739 l 562 745 q 547 782 558 755 q 524 842 536 810 q 503 900 511 874 q 494 930 494 925 q 504 947 494 944 q 524 951 513 951 l 634 951 q 661 932 652 951 q 670 907 666 920 q 679 881 674 894 l 715 778 q 783 589 749 684 q 851 400 816 494 q 854 393 852 399 q 860 388 857 388 q 865 394 863 388 q 867 401 867 399 q 921 589 895 495 q 973 778 946 684 l 1004 880 q 1011 906 1008 892 q 1019 931 1015 919 q 1046 951 1027 951 l 1170 951 q 1190 947 1180 951 q 1200 930 1200 944 q 1196 913 1200 924 q 1096 644 1145 779 q 1000 374 1046 509 q 962 259 981 317 q 923 145 943 202 q 904 88 913 117 q 885 31 895 59 q 876 9 883 24 q 859 -6 869 -6 q 843 8 850 -6 q 833 29 836 23 q 808 90 820 59 q 785 152 797 121 q 719 329 752 240 q 652 505 686 417 q 649 511 651 507 q 644 515 648 515 q 640 511 642 515 q 636 505 637 507 q 557 325 595 416 q 478 144 518 235 q 451 82 465 113 q 422 20 437 50 q 412 1 419 14 q 395 -12 405 -12 z "},"X":{"ha":796,"x_min":25,"x_max":772,"o":"m 287 488 q 271 519 287 490 q 230 591 256 547 q 176 686 205 635 q 119 783 146 736 q 72 864 92 830 q 46 909 52 898 q 40 920 43 914 q 37 932 37 926 q 49 948 37 945 q 70 951 61 951 l 225 951 q 249 937 239 951 q 274 896 262 918 q 298 854 286 874 q 355 751 327 803 q 414 649 384 699 q 422 642 418 642 q 427 645 425 642 q 429 650 428 648 q 474 746 452 698 q 519 843 496 795 q 540 890 530 865 q 563 935 550 914 q 588 951 572 951 l 731 951 q 752 948 741 951 q 764 932 764 945 q 761 920 764 926 q 755 909 758 914 q 729 863 749 898 q 681 781 709 829 q 624 682 653 733 q 568 586 594 631 q 527 512 543 541 q 511 481 511 484 q 527 448 511 478 q 570 372 544 418 q 627 274 597 326 q 686 173 658 222 q 736 89 715 124 q 763 42 757 54 q 769 31 766 37 q 772 18 772 24 q 760 3 772 5 q 739 0 748 0 l 581 0 q 557 14 566 0 q 531 57 543 34 q 506 102 519 80 q 446 209 475 155 q 385 316 416 263 q 376 323 381 323 q 370 315 374 323 q 320 209 345 262 q 272 102 296 156 q 252 59 262 81 q 231 16 243 36 q 206 0 222 0 l 58 0 q 37 3 49 0 q 25 18 25 5 q 28 31 25 24 q 34 42 31 37 q 61 90 40 54 q 111 175 82 125 q 170 278 139 224 q 227 378 201 331 q 270 455 254 425 q 287 488 287 485 z "},"Y":{"ha":815,"x_min":24,"x_max":791,"o":"m 318 28 q 318 66 318 37 q 319 136 319 96 q 319 213 319 175 q 319 277 319 251 q 319 304 319 303 q 278 393 300 349 q 236 481 257 437 q 134 696 186 589 q 31 911 83 804 q 24 932 24 923 q 35 948 24 945 q 55 951 46 951 l 205 951 q 231 934 222 951 q 257 876 245 907 q 281 816 269 844 q 341 671 311 743 q 402 526 371 598 q 405 520 404 524 q 410 517 407 517 q 415 520 413 517 q 417 526 416 524 q 477 671 448 599 q 535 816 506 744 q 559 876 546 842 q 584 934 572 911 q 610 951 593 951 l 760 951 q 780 948 769 951 q 791 932 791 945 q 785 910 791 922 q 674 686 730 798 q 565 461 619 574 q 527 384 546 422 q 490 304 508 345 l 490 301 q 490 165 490 233 q 491 28 491 96 q 463 0 491 0 l 346 0 q 318 28 318 0 z "},"Ý":{"ha":815,"x_min":24,"x_max":791,"o":"m 318 28 q 318 66 318 37 q 319 136 319 96 q 319 213 319 175 q 319 277 319 251 q 319 304 319 303 q 278 393 300 349 q 236 481 257 437 q 134 696 186 589 q 31 911 83 804 q 24 932 24 923 q 35 948 24 945 q 55 951 46 951 l 205 951 q 231 934 222 951 q 257 876 245 907 q 281 816 269 844 q 341 671 311 743 q 402 526 371 598 q 405 520 404 524 q 410 517 407 517 q 415 520 413 517 q 417 526 416 524 q 477 671 448 599 q 535 816 506 744 q 559 876 546 842 q 584 934 572 911 q 610 951 593 951 l 760 951 q 780 948 769 951 q 791 932 791 945 q 785 910 791 922 q 674 686 730 798 q 565 461 619 574 q 527 384 546 422 q 490 304 508 345 l 490 301 q 490 165 490 233 q 491 28 491 96 q 463 0 491 0 l 346 0 q 318 28 318 0 m 619 1208 q 644 1206 627 1208 q 661 1192 661 1204 q 652 1174 661 1183 q 637 1159 643 1164 q 589 1115 613 1137 q 541 1072 564 1093 q 514 1047 528 1059 q 487 1023 500 1034 q 468 1015 478 1015 l 428 1015 q 407 1018 419 1015 q 395 1032 395 1021 q 399 1046 395 1039 q 406 1057 402 1053 q 452 1127 429 1092 q 501 1196 476 1162 q 524 1208 511 1208 l 619 1208 z "},"Ÿ":{"ha":815,"x_min":24,"x_max":791,"o":"m 318 28 q 318 66 318 37 q 319 136 319 96 q 319 213 319 175 q 319 277 319 251 q 319 304 319 303 q 278 393 300 349 q 236 481 257 437 q 134 696 186 589 q 31 911 83 804 q 24 932 24 923 q 35 948 24 945 q 55 951 46 951 l 205 951 q 231 934 222 951 q 257 876 245 907 q 281 816 269 844 q 341 671 311 743 q 402 526 371 598 q 405 520 404 524 q 410 517 407 517 q 415 520 413 517 q 417 526 416 524 q 477 671 448 599 q 535 816 506 744 q 559 876 546 842 q 584 934 572 911 q 610 951 593 951 l 760 951 q 780 948 769 951 q 791 932 791 945 q 785 910 791 922 q 674 686 730 798 q 565 461 619 574 q 527 384 546 422 q 490 304 508 345 l 490 301 q 490 165 490 233 q 491 28 491 96 q 463 0 491 0 l 346 0 q 318 28 318 0 m 182 1107 q 208 1171 182 1143 q 271 1198 235 1198 q 334 1172 307 1198 q 361 1109 361 1145 q 333 1046 361 1073 q 269 1019 304 1019 q 207 1045 233 1019 q 182 1107 182 1072 m 488 1104 q 516 1170 488 1142 q 581 1198 543 1198 q 642 1172 616 1198 q 669 1112 669 1146 q 641 1047 669 1076 q 576 1019 612 1019 q 515 1043 541 1019 q 488 1104 488 1068 z "},"Z":{"ha":701,"x_min":4,"x_max":705,"o":"m 35 0 q 15 3 26 0 q 4 19 4 6 q 6 30 4 24 q 10 39 8 35 q 140 287 71 165 q 280 530 210 408 q 412 776 350 651 q 414 782 414 780 q 404 787 414 787 l 64 787 q 44 794 50 787 q 37 814 38 801 q 35 868 35 835 q 35 922 35 901 q 63 951 35 951 l 661 951 q 681 948 670 951 q 692 932 692 945 q 685 909 692 922 q 652 848 677 895 q 591 734 627 801 q 515 592 555 668 q 435 443 474 517 q 363 308 395 369 q 311 209 330 247 q 292 169 292 171 q 300 163 292 163 l 675 163 q 695 157 690 163 q 703 136 701 150 q 705 83 705 117 q 705 28 705 50 q 677 0 705 0 l 35 0 z "},"Ž":{"ha":701,"x_min":4,"x_max":705,"o":"m 35 0 q 15 3 26 0 q 4 19 4 6 q 6 30 4 24 q 10 39 8 35 q 140 287 71 165 q 280 530 210 408 q 412 776 350 651 q 414 782 414 780 q 404 787 414 787 l 64 787 q 44 794 50 787 q 37 814 38 801 q 35 868 35 835 q 35 922 35 901 q 63 951 35 951 l 661 951 q 681 948 670 951 q 692 932 692 945 q 685 909 692 922 q 652 848 677 895 q 591 734 627 801 q 515 592 555 668 q 435 443 474 517 q 363 308 395 369 q 311 209 330 247 q 292 169 292 171 q 300 163 292 163 l 675 163 q 695 157 690 163 q 703 136 701 150 q 705 83 705 117 q 705 28 705 50 q 677 0 705 0 l 35 0 m 212 1234 q 229 1227 220 1234 q 253 1208 234 1223 q 294 1174 271 1192 q 333 1141 316 1155 q 352 1128 351 1128 q 370 1141 354 1128 q 407 1174 386 1155 q 444 1208 427 1192 q 465 1227 461 1223 q 484 1234 473 1234 l 551 1234 q 576 1232 559 1234 q 593 1219 593 1230 q 584 1201 593 1210 q 570 1186 576 1192 q 508 1128 539 1157 q 446 1071 477 1100 q 408 1034 427 1053 q 368 998 388 1015 q 349 989 358 989 q 330 998 340 989 q 228 1091 278 1043 q 125 1186 177 1139 q 111 1201 120 1192 q 102 1219 102 1210 q 119 1232 102 1230 q 144 1234 136 1234 l 212 1234 z "},"a":{"ha":770,"x_min":39,"x_max":705,"o":"m 307 -13 q 159 29 219 -13 q 70 141 100 71 q 39 292 39 210 l 39 302 q 75 463 41 388 q 174 585 109 538 q 332 631 239 631 q 438 610 389 631 q 530 552 487 589 q 538 547 534 547 q 546 564 546 547 q 550 598 545 581 q 577 615 555 615 l 673 615 q 701 587 701 615 q 700 529 701 558 q 700 471 700 500 q 701 321 700 396 q 703 171 702 245 q 704 100 703 136 q 705 28 705 64 q 677 0 705 0 l 571 0 q 547 12 553 0 q 543 40 542 24 q 543 69 543 56 q 542 76 543 71 q 538 81 541 81 q 533 79 535 81 q 528 75 530 77 q 426 11 481 35 q 307 -13 371 -13 m 376 132 q 466 152 425 132 q 530 215 507 172 q 536 229 531 218 q 541 243 541 240 q 541 290 541 267 q 541 337 541 314 q 541 361 541 348 q 541 385 542 374 q 535 399 540 389 q 529 412 531 408 q 462 476 505 455 q 371 497 418 497 q 283 472 321 497 q 223 406 245 447 q 202 316 202 365 q 224 225 202 267 q 287 157 247 183 q 376 132 326 132 z "},"á":{"ha":770,"x_min":39,"x_max":705,"o":"m 307 -13 q 159 29 219 -13 q 70 141 100 71 q 39 292 39 210 l 39 302 q 75 463 41 388 q 174 585 109 538 q 332 631 239 631 q 438 610 389 631 q 530 552 487 589 q 538 547 534 547 q 546 564 546 547 q 550 598 545 581 q 577 615 555 615 l 673 615 q 701 587 701 615 q 700 529 701 558 q 700 471 700 500 q 701 321 700 396 q 703 171 702 245 q 704 100 703 136 q 705 28 705 64 q 677 0 705 0 l 571 0 q 547 12 553 0 q 543 40 542 24 q 543 69 543 56 q 542 76 543 71 q 538 81 541 81 q 533 79 535 81 q 528 75 530 77 q 426 11 481 35 q 307 -13 371 -13 m 376 132 q 466 152 425 132 q 530 215 507 172 q 536 229 531 218 q 541 243 541 240 q 541 290 541 267 q 541 337 541 314 q 541 361 541 348 q 541 385 542 374 q 535 399 540 389 q 529 412 531 408 q 462 476 505 455 q 371 497 418 497 q 283 472 321 497 q 223 406 245 447 q 202 316 202 365 q 224 225 202 267 q 287 157 247 183 q 376 132 326 132 m 601 920 q 626 918 608 920 q 643 904 643 916 q 634 886 643 895 q 619 871 625 877 q 545 803 582 838 q 470 734 508 768 q 451 727 461 727 l 411 727 q 390 730 402 727 q 378 744 378 732 q 382 758 378 751 q 389 769 385 764 l 484 908 q 507 920 492 920 l 601 920 z "},"â":{"ha":770,"x_min":39,"x_max":705,"o":"m 307 -13 q 159 29 219 -13 q 70 141 100 71 q 39 292 39 210 l 39 302 q 75 463 41 388 q 174 585 109 538 q 332 631 239 631 q 438 610 389 631 q 530 552 487 589 q 538 547 534 547 q 546 564 546 547 q 550 598 545 581 q 577 615 555 615 l 673 615 q 701 587 701 615 q 700 529 701 558 q 700 471 700 500 q 701 321 700 396 q 703 171 702 245 q 704 100 703 136 q 705 28 705 64 q 677 0 705 0 l 571 0 q 547 12 553 0 q 543 40 542 24 q 543 69 543 56 q 542 76 543 71 q 538 81 541 81 q 533 79 535 81 q 528 75 530 77 q 426 11 481 35 q 307 -13 371 -13 m 376 132 q 466 152 425 132 q 530 215 507 172 q 536 229 531 218 q 541 243 541 240 q 541 290 541 267 q 541 337 541 314 q 541 361 541 348 q 541 385 542 374 q 535 399 540 389 q 529 412 531 408 q 462 476 505 455 q 371 497 418 497 q 283 472 321 497 q 223 406 245 447 q 202 316 202 365 q 224 225 202 267 q 287 157 247 183 q 376 132 326 132 m 548 727 q 530 734 537 727 q 507 753 525 738 q 467 788 488 769 q 429 821 446 807 q 410 834 412 834 q 393 821 408 834 q 357 789 377 807 q 321 754 338 770 q 299 734 304 739 q 280 727 290 727 l 212 727 q 188 729 205 727 q 172 743 172 731 q 180 761 172 751 q 193 775 188 770 q 293 871 243 823 q 395 964 344 918 q 404 970 399 967 q 414 973 409 973 q 425 970 420 973 q 433 964 429 967 q 535 871 485 918 q 635 775 585 823 q 648 761 640 770 q 656 743 656 751 q 640 729 656 731 q 616 727 623 727 l 548 727 z "},"ä":{"ha":770,"x_min":39,"x_max":705,"o":"m 307 -13 q 159 29 219 -13 q 70 141 100 71 q 39 292 39 210 l 39 302 q 75 463 41 388 q 174 585 109 538 q 332 631 239 631 q 438 610 389 631 q 530 552 487 589 q 538 547 534 547 q 546 564 546 547 q 550 598 545 581 q 577 615 555 615 l 673 615 q 701 587 701 615 q 700 529 701 558 q 700 471 700 500 q 701 321 700 396 q 703 171 702 245 q 704 100 703 136 q 705 28 705 64 q 677 0 705 0 l 571 0 q 547 12 553 0 q 543 40 542 24 q 543 69 543 56 q 542 76 543 71 q 538 81 541 81 q 533 79 535 81 q 528 75 530 77 q 426 11 481 35 q 307 -13 371 -13 m 376 132 q 466 152 425 132 q 530 215 507 172 q 536 229 531 218 q 541 243 541 240 q 541 290 541 267 q 541 337 541 314 q 541 361 541 348 q 541 385 542 374 q 535 399 540 389 q 529 412 531 408 q 462 476 505 455 q 371 497 418 497 q 283 472 321 497 q 223 406 245 447 q 202 316 202 365 q 224 225 202 267 q 287 157 247 183 q 376 132 326 132 m 174 794 q 199 858 174 831 q 262 886 225 886 q 325 860 298 886 q 351 798 351 833 q 323 734 351 762 q 260 706 296 706 q 199 732 224 706 q 174 794 174 759 m 476 794 q 504 858 476 831 q 568 886 531 886 q 629 859 604 886 q 654 798 654 833 q 627 735 654 764 q 565 706 600 706 q 502 731 528 706 q 476 794 476 757 z "},"à":{"ha":770,"x_min":39,"x_max":705,"o":"m 307 -13 q 159 29 219 -13 q 70 141 100 71 q 39 292 39 210 l 39 302 q 75 463 41 388 q 174 585 109 538 q 332 631 239 631 q 438 610 389 631 q 530 552 487 589 q 538 547 534 547 q 546 564 546 547 q 550 598 545 581 q 577 615 555 615 l 673 615 q 701 587 701 615 q 700 529 701 558 q 700 471 700 500 q 701 321 700 396 q 703 171 702 245 q 704 100 703 136 q 705 28 705 64 q 677 0 705 0 l 571 0 q 547 12 553 0 q 543 40 542 24 q 543 69 543 56 q 542 76 543 71 q 538 81 541 81 q 533 79 535 81 q 528 75 530 77 q 426 11 481 35 q 307 -13 371 -13 m 376 132 q 466 152 425 132 q 530 215 507 172 q 536 229 531 218 q 541 243 541 240 q 541 290 541 267 q 541 337 541 314 q 541 361 541 348 q 541 385 542 374 q 535 399 540 389 q 529 412 531 408 q 462 476 505 455 q 371 497 418 497 q 283 472 321 497 q 223 406 245 447 q 202 316 202 365 q 224 225 202 267 q 287 157 247 183 q 376 132 326 132 m 376 727 q 357 735 365 727 q 289 803 322 768 q 221 873 255 838 q 209 887 216 878 q 201 904 201 896 q 217 918 201 916 q 241 920 233 920 l 338 920 q 363 907 355 920 q 404 839 384 875 q 441 769 423 803 q 447 758 445 764 q 450 745 450 751 q 438 730 450 732 q 418 727 427 727 l 376 727 z "},"å":{"ha":770,"x_min":39,"x_max":705,"o":"m 307 -13 q 159 29 219 -13 q 70 141 100 71 q 39 292 39 210 l 39 302 q 75 463 41 388 q 174 585 109 538 q 332 631 239 631 q 438 610 389 631 q 530 552 487 589 q 538 547 534 547 q 546 564 546 547 q 550 598 545 581 q 577 615 555 615 l 673 615 q 701 587 701 615 q 700 529 701 558 q 700 471 700 500 q 701 321 700 396 q 703 171 702 245 q 704 100 703 136 q 705 28 705 64 q 677 0 705 0 l 571 0 q 547 12 553 0 q 543 40 542 24 q 543 69 543 56 q 542 76 543 71 q 538 81 541 81 q 533 79 535 81 q 528 75 530 77 q 426 11 481 35 q 307 -13 371 -13 m 376 132 q 466 152 425 132 q 530 215 507 172 q 536 229 531 218 q 541 243 541 240 q 541 290 541 267 q 541 337 541 314 q 541 361 541 348 q 541 385 542 374 q 535 399 540 389 q 529 412 531 408 q 462 476 505 455 q 371 497 418 497 q 283 472 321 497 q 223 406 245 447 q 202 316 202 365 q 224 225 202 267 q 287 157 247 183 q 376 132 326 132 m 248 828 q 295 930 248 895 q 404 966 342 966 q 511 932 465 966 q 557 833 557 898 q 511 727 557 765 q 399 688 465 688 q 293 726 338 688 q 248 828 248 764 m 335 825 q 359 780 335 795 q 410 764 384 764 q 454 782 438 764 q 471 827 471 800 q 410 887 471 887 q 359 871 382 887 q 335 825 335 856 z "},"ã":{"ha":770,"x_min":39,"x_max":705,"o":"m 307 -13 q 159 29 219 -13 q 70 141 100 71 q 39 292 39 210 l 39 302 q 75 463 41 388 q 174 585 109 538 q 332 631 239 631 q 438 610 389 631 q 530 552 487 589 q 538 547 534 547 q 546 564 546 547 q 550 598 545 581 q 577 615 555 615 l 673 615 q 701 587 701 615 q 700 529 701 558 q 700 471 700 500 q 701 321 700 396 q 703 171 702 245 q 704 100 703 136 q 705 28 705 64 q 677 0 705 0 l 571 0 q 547 12 553 0 q 543 40 542 24 q 543 69 543 56 q 542 76 543 71 q 538 81 541 81 q 533 79 535 81 q 528 75 530 77 q 426 11 481 35 q 307 -13 371 -13 m 376 132 q 466 152 425 132 q 530 215 507 172 q 536 229 531 218 q 541 243 541 240 q 541 290 541 267 q 541 337 541 314 q 541 361 541 348 q 541 385 542 374 q 535 399 540 389 q 529 412 531 408 q 462 476 505 455 q 371 497 418 497 q 283 472 321 497 q 223 406 245 447 q 202 316 202 365 q 224 225 202 267 q 287 157 247 183 q 376 132 326 132 m 684 873 q 668 786 684 828 q 619 718 652 745 q 536 691 587 691 q 465 706 495 691 q 411 741 435 722 q 365 776 387 761 q 315 791 342 791 q 271 769 283 791 q 253 720 258 746 q 244 699 250 706 q 222 692 237 692 q 185 693 205 692 q 165 718 165 694 q 184 805 165 764 q 238 873 203 847 q 323 899 274 899 q 390 883 361 899 q 444 846 419 867 q 491 808 468 825 q 539 792 514 792 q 581 820 571 792 q 595 871 591 847 q 604 891 598 884 q 625 898 610 898 q 662 897 640 898 q 684 873 684 897 z "},"æ":{"ha":1192,"x_min":40,"x_max":1140,"o":"m 555 92 q 549 88 552 92 q 425 9 493 33 q 278 -15 356 -15 q 163 3 217 -15 q 74 62 109 20 q 40 173 40 103 q 81 283 40 239 q 181 348 121 327 q 299 370 241 370 q 385 362 344 370 q 468 344 425 355 q 470 343 469 344 q 472 343 471 343 q 480 354 477 343 q 482 370 482 366 q 444 463 482 430 q 347 495 406 495 q 260 476 297 495 q 200 437 223 456 q 167 417 177 417 q 144 431 153 417 q 127 456 140 439 q 103 490 114 473 q 92 515 92 507 q 95 525 92 521 q 102 533 98 529 q 225 606 153 581 q 366 631 296 631 q 484 615 429 631 q 586 556 538 600 q 592 553 589 553 q 597 555 595 553 q 828 634 701 634 q 1026 572 947 634 q 1139 396 1105 509 q 1140 386 1140 389 q 1135 371 1140 376 q 1120 363 1129 367 q 1062 344 1092 353 q 1003 326 1032 336 l 782 256 q 723 239 753 248 q 665 220 694 230 q 659 214 659 218 q 660 210 659 212 q 661 207 661 208 q 751 132 692 155 q 867 109 809 109 q 963 122 916 109 q 1054 159 1010 136 q 1063 164 1059 162 q 1074 166 1068 166 q 1087 160 1082 166 q 1097 148 1093 155 q 1108 125 1100 141 q 1124 93 1116 109 q 1131 71 1131 77 q 1118 51 1131 59 q 992 -1 1065 14 q 854 -16 919 -16 q 697 7 774 -16 q 562 88 621 31 q 555 92 558 92 m 633 302 q 801 356 717 330 q 969 410 885 382 q 908 477 946 452 q 821 502 869 502 q 684 449 735 502 q 633 311 633 395 l 633 302 m 494 181 l 494 196 l 486 221 q 418 246 454 239 q 346 253 382 253 q 293 248 323 253 q 240 229 263 243 q 217 183 217 214 q 236 137 217 153 q 281 115 254 121 q 332 109 307 109 q 419 130 374 109 q 494 181 465 152 z "},"b":{"ha":770,"x_min":64,"x_max":730,"o":"m 730 306 q 694 146 730 218 q 590 30 657 73 q 431 -13 523 -13 q 242 57 321 -13 q 238 61 240 58 q 232 63 235 63 q 228 58 229 63 q 227 51 227 53 q 226 17 227 35 q 201 0 224 0 l 92 0 q 64 28 64 0 q 65 103 64 66 q 67 177 66 140 q 69 333 68 255 q 70 489 70 411 q 69 645 70 567 q 67 801 68 723 q 65 875 66 838 q 64 949 64 912 q 92 978 64 978 l 197 978 q 219 971 214 978 q 225 950 224 964 q 227 891 228 928 q 227 829 226 854 q 228 703 227 766 q 228 576 228 640 q 229 569 228 573 q 233 565 229 565 q 242 569 237 565 q 438 631 330 631 q 599 588 534 631 q 697 470 664 544 q 730 306 730 396 m 399 137 q 488 162 450 137 q 547 229 526 187 q 568 318 568 270 q 547 409 568 367 q 489 476 526 450 q 399 502 451 502 q 311 482 353 502 q 244 421 269 462 q 236 406 241 416 q 229 389 231 395 q 229 370 228 381 q 229 351 229 359 q 229 299 229 325 q 229 247 229 273 q 296 164 250 191 q 399 137 341 137 z "},"c":{"ha":558,"x_min":37,"x_max":523,"o":"m 466 156 q 480 150 475 156 q 489 136 486 144 q 500 110 492 131 q 515 68 508 89 q 522 44 522 48 q 499 18 522 29 q 443 1 475 7 q 381 -9 410 -6 q 340 -12 352 -12 q 117 73 197 -12 q 37 298 37 157 q 74 468 37 393 q 180 587 111 543 q 348 631 250 631 q 430 623 386 631 q 507 596 474 614 q 518 588 514 593 q 523 576 523 584 q 519 562 523 569 l 488 484 q 465 465 481 465 q 450 468 458 465 q 405 480 427 475 q 359 486 382 486 q 237 434 277 486 q 197 306 197 382 q 235 181 197 232 q 352 131 273 131 q 401 137 378 131 q 449 152 425 143 q 457 155 453 153 q 466 156 461 156 z "},"ç":{"ha":558,"x_min":37,"x_max":523,"o":"m 466 156 q 480 150 475 156 q 489 136 486 144 q 500 110 492 131 q 515 68 508 89 q 522 44 522 48 q 499 18 522 29 q 443 1 475 7 q 381 -9 410 -6 q 340 -12 352 -12 q 117 73 197 -12 q 37 298 37 157 q 74 468 37 393 q 180 587 111 543 q 348 631 250 631 q 430 623 386 631 q 507 596 474 614 q 518 588 514 593 q 523 576 523 584 q 519 562 523 569 l 488 484 q 465 465 481 465 q 450 468 458 465 q 405 480 427 475 q 359 486 382 486 q 237 434 277 486 q 197 306 197 382 q 235 181 197 232 q 352 131 273 131 q 401 137 378 131 q 449 152 425 143 q 457 155 453 153 q 466 156 461 156 m 89 -272 q 97 -252 89 -264 q 117 -228 106 -239 q 137 -218 128 -218 q 148 -220 142 -218 q 158 -224 153 -222 q 243 -245 195 -245 q 286 -240 260 -245 q 331 -222 311 -235 q 350 -186 350 -210 q 332 -150 350 -162 q 289 -134 313 -138 q 246 -130 264 -130 q 206 -133 227 -130 q 166 -140 186 -136 q 157 -142 159 -142 q 132 -121 138 -142 q 120 -87 125 -100 q 118 -76 118 -81 q 130 -55 118 -64 q 218 11 172 -21 q 235 16 226 16 l 313 14 q 327 13 318 14 q 335 4 335 12 q 325 -14 335 -3 q 303 -35 314 -24 q 293 -50 293 -45 q 298 -55 293 -54 q 306 -56 304 -56 q 389 -70 347 -58 q 461 -110 432 -82 q 490 -188 490 -138 q 468 -259 490 -231 q 411 -304 446 -288 q 336 -328 376 -321 q 262 -335 297 -335 q 178 -325 222 -335 q 100 -291 134 -315 q 89 -272 89 -282 z "},"d":{"ha":772,"x_min":39,"x_max":708,"o":"m 323 -13 q 168 31 231 -13 q 72 146 104 74 q 39 305 39 219 q 74 472 39 399 q 176 589 109 546 q 341 631 243 631 q 529 569 449 631 q 538 564 535 564 q 543 569 543 564 q 544 576 544 574 q 544 703 544 640 q 545 829 545 766 q 545 890 546 859 q 547 950 545 921 q 574 978 549 978 l 680 978 q 708 949 708 978 q 707 875 708 912 q 705 801 706 838 q 703 489 703 646 q 705 177 703 333 q 707 103 706 140 q 708 28 708 66 q 680 0 708 0 l 573 0 q 547 19 548 0 q 545 56 546 38 q 545 62 545 58 q 541 66 544 66 q 531 62 537 66 q 433 6 486 26 q 323 -13 381 -13 m 372 137 q 477 164 432 137 q 544 249 523 191 q 543 296 543 273 q 543 342 543 319 q 544 366 543 353 q 543 389 545 378 q 536 408 543 396 q 526 427 529 420 q 459 483 500 465 q 372 502 417 502 q 282 476 321 502 q 223 408 244 450 q 203 317 203 366 q 225 229 203 270 q 286 162 247 188 q 372 137 324 137 z "},"ð":{"ha":772,"x_min":39,"x_max":733,"o":"m 378 -16 q 205 22 281 -16 q 84 132 128 60 q 39 304 39 204 q 79 467 39 393 q 188 587 118 542 q 349 632 258 632 q 450 610 401 632 q 462 605 454 608 q 475 602 470 602 q 477 604 477 602 q 457 631 477 609 q 409 680 437 653 q 359 726 382 706 q 332 745 337 745 q 306 731 326 745 q 265 704 286 718 q 233 690 244 690 q 213 704 225 690 q 192 734 201 718 q 182 758 182 751 q 198 781 182 771 q 230 800 214 791 q 246 814 246 808 q 236 826 246 819 q 217 840 227 832 q 207 858 207 848 q 227 888 207 867 q 269 930 246 909 q 298 958 291 951 q 317 967 307 967 q 347 953 328 967 q 384 925 366 939 q 406 911 401 911 q 428 923 410 911 q 469 950 446 935 q 512 977 492 966 q 540 989 532 989 q 561 975 549 989 q 582 945 573 961 q 591 921 591 928 q 575 897 591 909 q 538 876 559 886 q 502 857 518 865 q 486 840 486 848 q 490 833 486 839 q 534 785 512 810 q 575 734 555 761 q 687 538 642 647 q 733 319 733 430 q 684 144 733 219 q 555 26 635 68 q 378 -16 474 -16 m 201 313 q 255 182 201 233 q 389 132 309 132 q 519 183 467 132 q 572 313 572 234 q 519 444 572 392 q 387 496 466 496 q 293 472 335 496 q 226 407 251 448 q 201 313 201 366 z "},"e":{"ha":669,"x_min":39,"x_max":628,"o":"m 367 -16 q 194 23 268 -16 q 80 135 121 62 q 39 307 39 208 q 78 474 39 400 q 187 591 117 548 q 353 634 258 634 q 537 568 470 634 q 627 393 604 503 q 628 387 628 391 q 623 371 628 376 q 610 363 618 366 q 561 344 587 352 q 511 326 535 336 q 368 274 439 300 q 225 220 296 249 q 220 214 220 218 q 221 209 220 212 q 296 136 248 160 q 397 113 343 113 q 477 126 440 113 q 550 160 514 140 q 559 165 555 163 q 569 167 564 167 q 584 161 578 167 q 592 148 589 155 q 603 126 595 143 q 617 93 610 110 q 625 72 625 77 q 621 60 625 64 q 611 51 616 55 q 494 1 563 18 q 367 -16 425 -16 m 197 314 q 334 361 265 338 q 470 409 402 385 q 423 474 453 446 q 349 502 393 502 q 263 474 297 502 q 213 403 229 446 q 197 314 197 360 z "},"é":{"ha":669,"x_min":39,"x_max":628,"o":"m 367 -16 q 194 23 268 -16 q 80 135 121 62 q 39 307 39 208 q 78 474 39 400 q 187 591 117 548 q 353 634 258 634 q 537 568 470 634 q 627 393 604 503 q 628 387 628 391 q 623 371 628 376 q 610 363 618 366 q 561 344 587 352 q 511 326 535 336 q 368 274 439 300 q 225 220 296 249 q 220 214 220 218 q 221 209 220 212 q 296 136 248 160 q 397 113 343 113 q 477 126 440 113 q 550 160 514 140 q 559 165 555 163 q 569 167 564 167 q 584 161 578 167 q 592 148 589 155 q 603 126 595 143 q 617 93 610 110 q 625 72 625 77 q 621 60 625 64 q 611 51 616 55 q 494 1 563 18 q 367 -16 425 -16 m 197 314 q 334 361 265 338 q 470 409 402 385 q 423 474 453 446 q 349 502 393 502 q 263 474 297 502 q 213 403 229 446 q 197 314 197 360 m 556 922 q 581 920 564 922 q 598 905 598 918 q 589 887 598 897 q 574 873 580 878 q 500 804 537 839 q 425 736 463 769 q 406 728 416 728 l 366 728 q 346 731 357 728 q 334 745 334 734 q 337 759 334 752 q 344 770 340 766 l 439 909 q 463 922 448 922 l 556 922 z "},"ê":{"ha":669,"x_min":39,"x_max":628,"o":"m 367 -16 q 194 23 268 -16 q 80 135 121 62 q 39 307 39 208 q 78 474 39 400 q 187 591 117 548 q 353 634 258 634 q 537 568 470 634 q 627 393 604 503 q 628 387 628 391 q 623 371 628 376 q 610 363 618 366 q 561 344 587 352 q 511 326 535 336 q 368 274 439 300 q 225 220 296 249 q 220 214 220 218 q 221 209 220 212 q 296 136 248 160 q 397 113 343 113 q 477 126 440 113 q 550 160 514 140 q 559 165 555 163 q 569 167 564 167 q 584 161 578 167 q 592 148 589 155 q 603 126 595 143 q 617 93 610 110 q 625 72 625 77 q 621 60 625 64 q 611 51 616 55 q 494 1 563 18 q 367 -16 425 -16 m 197 314 q 334 361 265 338 q 470 409 402 385 q 423 474 453 446 q 349 502 393 502 q 263 474 297 502 q 213 403 229 446 q 197 314 197 360 m 503 728 q 485 735 492 728 q 462 755 480 739 q 422 789 444 770 q 384 822 401 808 q 366 836 368 836 q 348 822 363 836 q 313 790 332 808 q 276 756 293 772 q 254 736 260 740 q 235 728 245 728 l 168 728 q 143 730 160 728 q 127 744 127 732 q 135 762 127 753 q 149 777 143 772 q 249 872 198 825 q 351 965 299 920 q 359 971 355 968 q 370 975 364 975 q 380 971 375 975 q 389 965 385 968 q 490 872 440 920 q 590 777 541 825 q 604 762 595 772 q 612 744 612 753 q 595 730 612 732 q 571 728 578 728 l 503 728 z "},"ë":{"ha":669,"x_min":39,"x_max":628,"o":"m 367 -16 q 194 23 268 -16 q 80 135 121 62 q 39 307 39 208 q 78 474 39 400 q 187 591 117 548 q 353 634 258 634 q 537 568 470 634 q 627 393 604 503 q 628 387 628 391 q 623 371 628 376 q 610 363 618 366 q 561 344 587 352 q 511 326 535 336 q 368 274 439 300 q 225 220 296 249 q 220 214 220 218 q 221 209 220 212 q 296 136 248 160 q 397 113 343 113 q 477 126 440 113 q 550 160 514 140 q 559 165 555 163 q 569 167 564 167 q 584 161 578 167 q 592 148 589 155 q 603 126 595 143 q 617 93 610 110 q 625 72 625 77 q 621 60 625 64 q 611 51 616 55 q 494 1 563 18 q 367 -16 425 -16 m 197 314 q 334 361 265 338 q 470 409 402 385 q 423 474 453 446 q 349 502 393 502 q 263 474 297 502 q 213 403 229 446 q 197 314 197 360 m 129 795 q 155 860 129 832 q 218 887 180 887 q 280 861 253 887 q 307 799 307 835 q 279 735 307 764 q 215 707 251 707 q 154 734 179 707 q 129 795 129 760 m 431 795 q 459 860 431 832 q 523 887 486 887 q 584 861 559 887 q 610 799 610 834 q 582 736 610 765 q 520 707 555 707 q 457 733 483 707 q 431 795 431 758 z "},"è":{"ha":669,"x_min":39,"x_max":628,"o":"m 367 -16 q 194 23 268 -16 q 80 135 121 62 q 39 307 39 208 q 78 474 39 400 q 187 591 117 548 q 353 634 258 634 q 537 568 470 634 q 627 393 604 503 q 628 387 628 391 q 623 371 628 376 q 610 363 618 366 q 561 344 587 352 q 511 326 535 336 q 368 274 439 300 q 225 220 296 249 q 220 214 220 218 q 221 209 220 212 q 296 136 248 160 q 397 113 343 113 q 477 126 440 113 q 550 160 514 140 q 559 165 555 163 q 569 167 564 167 q 584 161 578 167 q 592 148 589 155 q 603 126 595 143 q 617 93 610 110 q 625 72 625 77 q 621 60 625 64 q 611 51 616 55 q 494 1 563 18 q 367 -16 425 -16 m 197 314 q 334 361 265 338 q 470 409 402 385 q 423 474 453 446 q 349 502 393 502 q 263 474 297 502 q 213 403 229 446 q 197 314 197 360 m 332 728 q 312 736 320 728 q 244 805 277 770 q 176 874 210 840 q 164 888 172 880 q 157 905 157 897 q 173 920 157 918 q 196 922 189 922 l 294 922 q 318 908 310 922 q 359 840 339 876 q 397 770 378 804 q 402 759 400 765 q 405 747 405 753 q 394 731 405 734 q 373 728 382 728 l 332 728 z "},"f":{"ha":408,"x_min":9,"x_max":414,"o":"m 118 0 q 90 28 90 0 q 91 251 90 139 q 92 474 92 363 q 80 483 92 484 q 51 481 67 483 q 21 485 34 480 q 9 510 9 490 l 9 589 q 37 617 9 617 l 84 617 q 92 625 92 617 q 92 665 92 645 q 92 704 92 684 q 114 838 92 777 q 185 938 136 900 q 315 975 234 975 q 354 974 334 975 q 392 968 374 972 q 414 945 414 963 q 408 919 414 941 q 396 873 402 897 q 387 844 389 850 q 380 829 385 834 q 363 823 375 823 q 345 825 355 823 q 326 827 336 827 q 277 804 293 827 q 257 751 261 782 q 252 695 252 720 l 252 625 q 260 617 252 617 l 351 617 q 378 589 378 617 l 378 510 q 351 482 378 482 l 260 482 q 252 474 252 482 q 253 251 252 363 q 253 28 253 139 q 225 0 253 0 l 118 0 z "},"g":{"ha":722,"x_min":39,"x_max":658,"o":"m 345 -238 q 98 -132 197 -238 q 92 -124 94 -128 q 89 -115 89 -120 q 99 -93 89 -108 q 122 -63 110 -78 q 140 -42 135 -47 q 149 -34 144 -37 q 161 -30 154 -30 q 171 -32 166 -30 q 179 -37 175 -34 q 251 -69 215 -58 q 330 -80 288 -80 q 406 -70 368 -80 q 469 -34 444 -60 q 495 37 495 -9 q 495 54 495 40 q 492 67 496 67 q 487 64 489 67 q 483 60 484 62 q 311 -12 413 -12 q 166 33 227 -12 q 72 148 105 77 q 39 297 39 219 l 39 311 q 58 423 39 367 q 113 527 77 479 q 198 603 149 574 q 309 631 248 631 q 402 618 357 631 q 484 574 447 606 q 493 570 488 570 q 500 582 500 570 q 505 604 501 593 q 525 615 509 615 l 626 615 q 654 587 654 615 q 653 520 654 554 q 653 452 653 486 q 655 248 653 350 q 658 42 658 145 q 613 -106 658 -43 q 498 -204 569 -170 q 345 -238 427 -238 m 356 132 q 442 164 408 132 q 494 242 477 197 l 494 384 q 489 398 494 387 q 483 411 484 409 q 427 474 463 451 q 347 497 392 497 q 265 472 298 497 q 217 406 233 446 q 201 321 201 366 q 219 233 201 277 q 272 160 237 189 q 356 132 307 132 z "},"h":{"ha":722,"x_min":64,"x_max":658,"o":"m 92 0 q 64 28 64 0 q 65 103 64 66 q 67 177 66 140 q 69 333 68 255 q 70 489 70 411 q 69 645 70 567 q 67 801 68 723 q 65 875 66 838 q 64 949 64 912 q 92 978 64 978 l 195 978 q 217 971 212 978 q 223 950 222 964 q 224 931 224 941 q 224 911 223 921 l 224 821 q 225 685 225 753 q 226 548 226 616 q 226 540 226 547 q 231 534 227 534 q 237 537 234 534 q 242 543 241 541 q 450 631 324 631 q 549 610 503 631 q 624 548 595 589 q 653 450 653 507 q 655 239 653 345 q 658 28 658 134 q 630 0 658 0 l 524 0 q 502 7 507 0 q 496 28 497 14 q 494 84 493 51 q 494 141 495 117 q 494 267 494 204 q 494 393 494 330 q 467 465 494 441 q 393 489 439 489 q 300 453 336 489 q 246 366 264 418 q 229 266 229 315 q 228 147 229 206 q 227 28 227 87 q 199 0 227 0 l 92 0 z "},"i":{"ha":306,"x_min":62,"x_max":251,"o":"m 62 846 q 90 910 62 884 q 155 937 118 937 q 222 910 193 937 q 251 844 251 882 q 223 779 251 806 q 158 751 196 751 q 91 780 119 751 q 62 846 62 808 m 73 437 l 73 587 q 100 615 73 615 l 205 615 q 233 587 233 615 q 233 308 233 448 q 234 28 234 168 q 206 0 234 0 l 99 0 q 71 28 71 0 q 72 233 71 130 q 73 437 73 335 z "},"ı":{"ha":306,"x_min":72,"x_max":235,"o":"m 73 437 l 73 587 q 101 615 73 615 l 205 615 q 233 587 233 615 q 234 308 233 448 q 235 28 235 168 q 207 0 235 0 l 100 0 q 72 28 72 0 q 73 233 72 130 q 73 437 73 335 z "},"í":{"ha":306,"x_min":72,"x_max":380,"o":"m 73 437 l 73 587 q 101 615 73 615 l 205 615 q 233 587 233 615 q 234 308 233 448 q 235 28 235 168 q 207 0 235 0 l 100 0 q 72 28 72 0 q 73 233 72 130 q 73 437 73 335 m 338 907 q 363 905 346 907 q 380 890 380 903 q 371 872 380 882 q 357 858 362 863 q 282 789 319 824 q 208 721 245 754 q 189 713 199 713 l 149 713 q 128 716 140 713 q 116 730 116 719 q 119 744 116 737 q 126 755 123 751 l 222 895 q 245 907 230 907 l 338 907 z "},"î":{"ha":306,"x_min":-91,"x_max":394,"o":"m 73 437 l 73 587 q 101 615 73 615 l 205 615 q 233 587 233 615 q 234 308 233 448 q 235 28 235 168 q 207 0 235 0 l 100 0 q 72 28 72 0 q 73 233 72 130 q 73 437 73 335 m 286 713 q 267 720 275 713 q 244 740 262 724 q 204 774 226 755 q 166 807 183 793 q 148 821 150 821 q 130 807 146 821 q 95 775 115 793 q 59 741 75 757 q 37 721 42 725 q 18 713 28 713 l -50 713 q -74 715 -58 713 q -91 729 -91 718 q -83 747 -91 738 q -69 762 -75 757 q 31 857 -20 810 q 133 950 81 905 q 142 957 137 954 q 152 960 146 960 q 162 957 157 960 q 171 950 167 954 q 273 857 222 905 q 372 762 323 810 q 386 747 378 757 q 394 729 394 738 q 377 715 394 718 q 353 713 361 713 l 286 713 z "},"ï":{"ha":306,"x_min":-89,"x_max":392,"o":"m 73 437 l 73 587 q 101 615 73 615 l 205 615 q 233 587 233 615 q 234 308 233 448 q 235 28 235 168 q 207 0 235 0 l 100 0 q 72 28 72 0 q 73 233 72 130 q 73 437 73 335 m -89 781 q -63 845 -89 817 q 0 872 -37 872 q 62 846 35 872 q 89 784 89 820 q 61 721 89 749 q -3 692 33 692 q -64 719 -39 692 q -89 781 -89 745 m 214 781 q 241 845 214 817 q 305 872 269 872 q 367 846 341 872 q 392 784 392 819 q 365 721 392 750 q 302 692 337 692 q 239 718 265 692 q 214 781 214 743 z "},"ì":{"ha":306,"x_min":-61,"x_max":235,"o":"m 73 437 l 73 587 q 101 615 73 615 l 205 615 q 233 587 233 615 q 234 308 233 448 q 235 28 235 168 q 207 0 235 0 l 100 0 q 72 28 72 0 q 73 233 72 130 q 73 437 73 335 m 114 713 q 94 722 102 713 q 26 790 60 755 q -41 859 -7 825 q -54 873 -46 865 q -61 890 -61 882 q -45 905 -61 903 q -22 907 -29 907 l 76 907 q 100 893 92 907 q 141 825 121 861 q 179 755 161 789 q 185 744 182 750 q 187 732 187 738 q 176 716 187 719 q 155 713 165 713 l 114 713 z "},"j":{"ha":307,"x_min":14,"x_max":250,"o":"m 75 852 q 100 915 75 888 q 163 943 125 943 q 224 913 199 943 q 250 848 250 883 q 224 785 250 813 q 163 758 199 758 q 100 786 125 758 q 75 852 75 815 m 242 -5 q 218 -164 242 -87 q 120 -288 194 -241 q 105 -292 112 -292 q 85 -281 94 -292 q 62 -254 79 -273 q 30 -216 45 -235 q 14 -188 14 -196 q 17 -177 14 -182 q 24 -167 20 -172 q 66 -86 54 -127 q 79 5 79 -44 q 80 296 79 151 q 81 587 81 442 q 109 615 81 615 l 213 615 q 241 587 241 615 q 241 291 241 439 q 242 -5 242 142 z "},"k":{"ha":760,"x_min":64,"x_max":729,"o":"m 92 0 q 64 28 64 0 q 65 103 64 66 q 67 177 66 140 q 69 333 68 255 q 70 489 70 411 q 69 645 70 567 q 67 801 68 723 q 65 875 66 838 q 64 949 64 912 q 92 978 64 978 l 199 978 q 227 950 226 978 q 228 871 229 911 q 228 792 228 831 q 229 626 229 709 q 229 460 229 543 l 229 355 q 235 347 229 347 q 239 347 238 347 q 371 395 307 366 q 482 471 434 424 q 551 591 530 519 q 560 609 554 603 q 579 616 566 616 l 701 616 q 721 611 713 616 q 729 593 729 606 q 728 584 729 591 q 649 431 705 492 q 515 319 592 369 q 511 313 511 316 q 529 286 511 311 q 576 224 548 260 q 633 149 604 187 q 684 82 662 111 q 713 45 707 54 q 721 32 717 39 q 726 18 726 25 q 712 2 726 5 q 690 0 699 0 l 574 0 q 553 10 562 0 q 528 39 540 24 q 503 69 515 54 q 433 154 468 111 q 362 239 398 197 q 356 242 360 242 q 353 241 354 242 q 294 222 323 231 q 235 202 264 213 q 229 194 229 200 l 227 28 q 199 0 227 0 l 92 0 z "},"l":{"ha":306,"x_min":72,"x_max":235,"o":"m 72 950 q 100 978 72 978 l 207 978 q 235 950 235 978 q 234 720 235 835 q 233 489 233 604 q 234 258 233 374 q 235 28 235 143 q 207 0 235 0 l 100 0 q 72 28 72 0 q 73 258 72 143 q 73 489 73 374 q 73 720 73 604 q 72 950 72 835 z "},"ł":{"ha":306,"x_min":-8,"x_max":314,"o":"m 233 557 q 262 564 248 557 q 292 572 277 572 q 310 563 306 572 q 314 543 314 554 l 314 446 q 294 418 314 425 l 233 401 q 227 393 227 399 q 227 210 227 302 q 228 28 228 119 q 200 0 228 0 l 93 0 q 65 28 65 0 q 66 185 65 106 q 66 341 66 263 q 60 350 66 350 q 36 344 48 350 q 12 338 24 338 q -4 346 0 338 q -8 363 -8 353 l -8 465 q 3 488 -8 481 q 29 497 14 495 q 55 503 44 500 q 66 514 66 506 q 66 732 66 623 q 65 950 65 842 q 93 978 65 978 l 200 978 q 228 950 228 978 q 227 758 228 854 q 227 566 227 662 q 233 557 227 557 z "},"m":{"ha":1165,"x_min":65,"x_max":1101,"o":"m 100 615 l 193 615 q 220 591 216 615 q 222 569 221 585 q 226 538 224 553 q 233 524 229 524 q 239 527 236 524 q 243 532 241 530 q 346 609 288 586 q 472 631 404 631 q 580 611 528 631 q 658 536 633 591 q 661 531 659 534 q 665 528 662 528 q 670 530 668 528 q 673 534 672 532 q 771 605 715 580 q 889 631 827 631 q 1032 585 972 631 q 1092 450 1092 539 q 1093 308 1092 379 q 1096 165 1095 236 q 1099 97 1097 131 q 1101 28 1101 62 q 1073 0 1101 0 l 967 0 q 946 7 952 0 q 939 27 941 14 q 937 85 937 56 q 937 143 938 115 q 935 265 936 204 q 934 387 934 326 q 911 461 934 435 q 840 488 888 488 q 744 454 783 488 q 684 368 705 419 q 663 267 663 317 q 664 148 663 208 q 665 28 665 88 q 637 0 665 0 l 530 0 q 502 28 502 0 q 503 208 502 118 q 503 387 505 297 q 480 460 503 433 q 410 488 458 488 q 313 454 353 488 q 254 368 274 420 q 232 266 233 317 q 231 183 231 224 q 229 100 230 142 q 229 63 229 82 q 227 27 229 45 q 220 7 226 14 q 199 0 214 0 l 93 0 q 65 29 65 0 q 67 99 65 64 q 69 170 68 134 q 73 466 73 318 q 72 527 73 494 q 73 587 71 560 q 100 615 75 615 z "},"n":{"ha":726,"x_min":64,"x_max":662,"o":"m 189 615 q 216 591 214 615 q 220 564 218 577 q 222 536 221 550 q 224 529 222 535 q 229 522 225 522 q 235 526 232 522 q 239 532 238 530 q 338 608 280 585 q 461 631 397 631 q 558 609 514 631 q 630 546 603 587 q 657 450 657 506 q 660 239 657 345 q 662 28 662 134 q 634 0 662 0 l 528 0 q 500 28 502 0 q 498 86 498 57 q 498 145 499 116 q 498 269 498 208 q 498 393 498 331 q 470 465 498 441 q 396 489 442 489 q 301 454 338 489 q 247 367 264 418 q 229 266 229 315 q 228 147 229 206 q 227 28 227 87 q 199 0 227 0 l 92 0 q 64 28 64 0 q 65 104 64 66 q 67 179 66 142 q 69 496 69 338 l 69 587 q 97 615 69 615 l 189 615 z "},"ñ":{"ha":726,"x_min":64,"x_max":662,"o":"m 189 615 q 216 591 214 615 q 220 564 218 577 q 222 536 221 550 q 224 529 222 535 q 229 522 225 522 q 235 526 232 522 q 239 532 238 530 q 338 608 280 585 q 461 631 397 631 q 558 609 514 631 q 630 546 603 587 q 657 450 657 506 q 660 239 657 345 q 662 28 662 134 q 634 0 662 0 l 528 0 q 500 28 502 0 q 498 86 498 57 q 498 145 499 116 q 498 269 498 208 q 498 393 498 331 q 470 465 498 441 q 396 489 442 489 q 301 454 338 489 q 247 367 264 418 q 229 266 229 315 q 228 147 229 206 q 227 28 227 87 q 199 0 227 0 l 92 0 q 64 28 64 0 q 65 104 64 66 q 67 179 66 142 q 69 496 69 338 l 69 587 q 97 615 69 615 l 189 615 m 631 860 q 614 773 631 815 q 566 705 598 732 q 483 678 533 678 q 411 693 441 678 q 357 728 381 709 q 311 763 334 748 q 261 779 288 779 q 217 756 230 779 q 199 707 205 733 q 190 686 197 693 q 168 679 184 679 q 132 680 151 679 q 112 705 112 681 q 131 792 112 751 q 185 860 149 834 q 270 886 220 886 q 336 870 307 886 q 390 833 366 854 q 437 795 414 812 q 486 779 460 779 q 528 807 517 779 q 542 858 538 834 q 550 878 545 871 q 571 885 556 885 q 609 884 587 885 q 631 860 631 884 z "},"o":{"ha":710,"x_min":39,"x_max":671,"o":"m 39 304 q 80 473 39 399 q 193 590 120 547 q 360 633 265 633 q 524 590 454 633 q 632 475 593 548 q 671 310 671 401 q 633 143 671 216 q 524 28 594 70 q 357 -13 454 -13 q 190 27 262 -13 q 79 138 119 66 q 39 304 39 209 m 357 496 q 271 468 305 496 q 218 398 236 441 q 201 309 201 355 q 219 224 201 264 q 273 157 238 183 q 355 132 307 132 q 440 158 406 132 q 492 225 475 184 q 509 313 509 267 q 492 400 509 359 q 441 469 475 442 q 357 496 407 496 z "},"ó":{"ha":710,"x_min":39,"x_max":671,"o":"m 39 304 q 80 473 39 399 q 193 590 120 547 q 360 633 265 633 q 524 590 454 633 q 632 475 593 548 q 671 310 671 401 q 633 143 671 216 q 524 28 594 70 q 357 -13 454 -13 q 190 27 262 -13 q 79 138 119 66 q 39 304 39 209 m 357 496 q 271 468 305 496 q 218 398 236 441 q 201 309 201 355 q 219 224 201 264 q 273 157 238 183 q 355 132 307 132 q 440 158 406 132 q 492 225 475 184 q 509 313 509 267 q 492 400 509 359 q 441 469 475 442 q 357 496 407 496 m 539 920 q 564 918 547 920 q 581 904 581 916 q 572 886 581 895 q 557 871 563 877 q 483 803 520 838 q 408 734 446 768 q 389 727 399 727 l 349 727 q 329 730 340 727 q 317 744 317 732 q 320 758 317 751 q 327 769 323 764 l 422 908 q 446 920 431 920 l 539 920 z "},"ô":{"ha":710,"x_min":39,"x_max":671,"o":"m 39 304 q 80 473 39 399 q 193 590 120 547 q 360 633 265 633 q 524 590 454 633 q 632 475 593 548 q 671 310 671 401 q 633 143 671 216 q 524 28 594 70 q 357 -13 454 -13 q 190 27 262 -13 q 79 138 119 66 q 39 304 39 209 m 357 496 q 271 468 305 496 q 218 398 236 441 q 201 309 201 355 q 219 224 201 264 q 273 157 238 183 q 355 132 307 132 q 440 158 406 132 q 492 225 475 184 q 509 313 509 267 q 492 400 509 359 q 441 469 475 442 q 357 496 407 496 m 486 727 q 468 734 475 727 q 445 753 463 738 q 405 788 427 769 q 367 821 384 807 q 349 834 351 834 q 331 821 347 834 q 296 789 315 807 q 259 754 276 770 q 237 734 243 739 q 218 727 229 727 l 151 727 q 126 729 143 727 q 110 743 110 731 q 118 761 110 751 q 132 775 126 770 q 232 871 181 823 q 334 964 282 918 q 342 970 338 967 q 353 973 347 973 q 363 970 358 973 q 372 964 368 967 q 473 871 423 918 q 573 775 524 823 q 587 761 578 770 q 595 743 595 751 q 578 729 595 731 q 554 727 562 727 l 486 727 z "},"ö":{"ha":710,"x_min":39,"x_max":671,"o":"m 39 304 q 80 473 39 399 q 193 590 120 547 q 360 633 265 633 q 524 590 454 633 q 632 475 593 548 q 671 310 671 401 q 633 143 671 216 q 524 28 594 70 q 357 -13 454 -13 q 190 27 262 -13 q 79 138 119 66 q 39 304 39 209 m 357 496 q 271 468 305 496 q 218 398 236 441 q 201 309 201 355 q 219 224 201 264 q 273 157 238 183 q 355 132 307 132 q 440 158 406 132 q 492 225 475 184 q 509 313 509 267 q 492 400 509 359 q 441 469 475 442 q 357 496 407 496 m 112 794 q 138 858 112 831 q 201 886 163 886 q 263 860 236 886 q 290 798 290 833 q 262 734 290 762 q 198 706 234 706 q 137 732 162 706 q 112 794 112 759 m 414 794 q 442 858 414 831 q 506 886 469 886 q 567 859 542 886 q 593 798 593 833 q 565 735 593 764 q 503 706 538 706 q 440 731 466 706 q 414 794 414 757 z "},"ò":{"ha":710,"x_min":39,"x_max":671,"o":"m 39 304 q 80 473 39 399 q 193 590 120 547 q 360 633 265 633 q 524 590 454 633 q 632 475 593 548 q 671 310 671 401 q 633 143 671 216 q 524 28 594 70 q 357 -13 454 -13 q 190 27 262 -13 q 79 138 119 66 q 39 304 39 209 m 357 496 q 271 468 305 496 q 218 398 236 441 q 201 309 201 355 q 219 224 201 264 q 273 157 238 183 q 355 132 307 132 q 440 158 406 132 q 492 225 475 184 q 509 313 509 267 q 492 400 509 359 q 441 469 475 442 q 357 496 407 496 m 315 727 q 295 735 303 727 q 227 803 260 768 q 159 873 193 838 q 147 887 155 878 q 140 904 140 896 q 156 918 140 916 q 179 920 172 920 l 277 920 q 301 907 293 920 q 342 839 322 875 q 380 769 361 803 q 386 758 383 764 q 388 745 388 751 q 377 730 388 732 q 356 727 366 727 l 315 727 z "},"ø":{"ha":710,"x_min":39,"x_max":693,"o":"m 585 663 q 610 650 593 663 q 642 621 627 637 q 656 597 656 606 q 645 574 656 587 q 623 550 634 562 q 612 534 612 539 q 615 528 612 531 q 674 425 656 479 q 693 307 693 371 q 651 138 693 210 q 536 27 610 66 q 368 -13 463 -13 q 279 -3 321 -13 q 195 27 238 7 q 191 28 193 28 q 174 13 186 28 q 148 -20 161 -3 q 123 -36 134 -36 q 99 -22 115 -36 q 69 9 83 -8 q 56 33 56 26 q 67 58 56 44 q 91 83 79 71 q 103 101 103 95 q 101 106 103 104 q 39 303 39 196 q 82 474 39 400 q 200 590 125 549 q 371 632 275 632 q 515 602 444 632 q 519 601 518 601 q 537 616 526 601 q 561 648 548 632 q 585 663 573 663 m 201 313 q 216 233 201 270 q 322 359 269 296 q 427 485 374 422 q 368 496 400 496 q 280 470 317 496 q 221 404 242 445 q 201 313 201 362 m 508 411 q 400 280 454 345 q 291 150 345 215 q 362 132 326 132 q 486 183 440 132 q 532 311 532 235 q 526 362 532 337 q 508 411 521 388 z "},"õ":{"ha":710,"x_min":39,"x_max":671,"o":"m 39 304 q 80 473 39 399 q 193 590 120 547 q 360 633 265 633 q 524 590 454 633 q 632 475 593 548 q 671 310 671 401 q 633 143 671 216 q 524 28 594 70 q 357 -13 454 -13 q 190 27 262 -13 q 79 138 119 66 q 39 304 39 209 m 357 496 q 271 468 305 496 q 218 398 236 441 q 201 309 201 355 q 219 224 201 264 q 273 157 238 183 q 355 132 307 132 q 440 158 406 132 q 492 225 475 184 q 509 313 509 267 q 492 400 509 359 q 441 469 475 442 q 357 496 407 496 m 623 873 q 606 786 623 828 q 557 718 590 745 q 475 691 525 691 q 403 706 433 691 q 349 741 373 722 q 303 776 326 761 q 253 791 280 791 q 209 769 222 791 q 191 720 197 746 q 182 699 189 706 q 160 692 176 692 q 123 693 143 692 q 104 718 104 694 q 122 805 104 764 q 177 873 141 847 q 262 899 212 899 q 328 883 299 899 q 382 846 357 867 q 429 808 406 825 q 477 792 452 792 q 519 820 509 792 q 534 871 530 847 q 542 891 536 884 q 563 898 548 898 q 601 897 578 898 q 623 873 623 897 z "},"œ":{"ha":1196,"x_min":43,"x_max":1155,"o":"m 833 -13 q 719 0 772 -13 q 613 44 667 14 q 608 45 610 45 q 604 45 605 45 q 502 2 554 18 q 393 -13 450 -13 q 217 21 296 -13 q 90 124 137 56 q 43 296 43 193 q 86 470 43 394 q 206 588 130 545 q 379 631 282 631 q 497 615 444 631 q 606 566 551 600 q 610 564 608 564 q 615 566 612 564 q 719 615 666 598 q 833 632 772 632 q 1040 565 960 632 q 1154 379 1120 498 q 1155 369 1155 372 q 1135 347 1155 353 l 686 208 q 678 201 678 205 q 682 195 678 198 q 754 151 712 163 q 839 138 797 138 q 900 146 871 138 q 957 168 928 154 q 965 171 961 170 q 975 173 970 173 q 988 168 983 173 q 997 157 993 163 q 1014 128 1002 151 q 1038 84 1027 106 q 1050 56 1050 62 q 1045 43 1050 48 q 1034 35 1040 39 q 936 0 994 13 q 833 -13 878 -13 m 634 303 q 807 356 721 330 q 979 410 893 383 q 914 479 956 457 q 821 502 872 502 q 687 454 741 502 q 633 323 633 406 q 634 314 633 319 q 634 303 634 309 m 511 153 q 484 227 493 189 q 475 304 475 265 q 513 454 475 385 q 393 484 456 484 q 300 462 343 484 q 230 400 256 440 q 203 308 203 361 q 233 210 203 250 q 312 151 264 171 q 413 132 360 132 q 511 153 467 132 z "},"p":{"ha":783,"x_min":58,"x_max":744,"o":"m 427 -13 q 328 3 375 -13 q 241 54 281 20 q 236 57 239 55 q 231 60 234 60 q 227 55 227 60 q 226 47 226 50 q 224 -42 224 3 q 223 -131 224 -87 q 223 -164 223 -147 q 222 -198 224 -182 q 215 -218 221 -212 q 195 -225 210 -225 l 85 -225 q 58 -197 58 -225 q 61 -92 58 -144 q 64 13 63 -39 q 68 234 67 123 q 70 454 70 344 q 70 521 70 488 q 69 587 69 554 q 97 615 69 615 l 184 615 q 211 598 205 615 q 216 565 216 581 q 224 548 217 548 q 232 551 227 548 q 335 610 281 589 q 452 631 389 631 q 612 587 547 631 q 711 467 677 542 q 744 304 744 393 q 705 136 744 207 q 595 26 666 64 q 427 -13 524 -13 m 395 126 q 489 150 446 126 q 556 215 531 174 q 582 307 582 256 q 530 440 582 388 q 397 492 477 492 q 294 463 339 492 q 229 379 250 433 q 229 311 229 345 q 229 243 229 277 q 233 229 229 240 q 239 215 237 218 q 304 149 260 171 q 395 126 347 126 z "},"þ":{"ha":798,"x_min":60,"x_max":760,"o":"m 436 -12 q 334 4 383 -12 q 245 55 285 20 q 240 59 243 56 q 234 62 237 62 q 230 56 231 62 q 229 49 229 51 l 226 -198 q 198 -225 226 -225 l 88 -225 q 60 -197 60 -225 q 63 -86 60 -142 q 67 24 66 -31 q 71 257 70 141 q 73 490 73 373 q 72 645 73 568 q 70 801 71 723 q 68 875 69 838 q 67 949 67 912 q 95 978 67 978 l 202 978 q 223 971 218 978 q 230 950 229 964 q 232 892 233 927 q 231 833 231 857 q 232 702 232 767 q 233 571 233 637 q 233 564 233 568 q 238 559 234 559 q 248 564 241 559 q 350 623 297 602 q 467 644 404 644 q 629 596 564 644 q 727 471 694 548 q 760 304 760 393 q 719 135 760 206 q 605 26 678 64 q 436 -12 532 -12 m 402 127 q 499 149 454 127 q 571 212 543 172 q 598 307 598 253 q 574 399 598 357 q 508 467 549 441 q 416 492 467 492 q 305 466 355 492 q 233 379 254 439 q 232 311 233 345 q 232 242 232 276 q 236 228 232 239 q 243 214 241 217 q 310 149 264 170 q 402 127 355 127 z "},"q":{"ha":778,"x_min":39,"x_max":720,"o":"m 318 -13 q 166 31 229 -13 q 72 146 104 75 q 39 301 39 218 q 75 471 39 393 q 180 596 111 549 q 345 644 248 644 q 534 572 454 644 q 538 568 536 570 q 544 566 541 566 q 549 578 551 566 q 549 603 547 591 q 568 615 551 615 l 681 615 q 709 587 709 615 q 708 521 709 554 q 708 454 708 488 q 709 234 708 344 q 713 13 711 123 q 717 -92 715 -39 q 720 -197 720 -144 q 692 -225 720 -225 l 583 -225 q 555 -198 555 -225 l 551 47 q 551 54 551 50 q 546 58 550 58 q 537 54 543 58 q 433 3 488 19 q 318 -13 378 -13 m 385 126 q 475 149 432 126 q 539 215 518 172 q 545 229 541 218 q 549 243 549 239 q 549 311 549 277 q 549 379 549 345 q 485 463 529 433 q 384 492 441 492 q 255 443 308 492 q 203 317 203 395 q 226 222 203 265 q 291 152 250 178 q 385 126 332 126 z "},"r":{"ha":463,"x_min":64,"x_max":465,"o":"m 185 615 q 213 590 211 615 l 220 513 q 221 503 220 512 q 226 494 222 494 q 233 501 229 494 q 237 510 237 509 q 305 592 265 562 q 406 622 345 622 q 443 620 420 622 q 465 597 465 617 q 460 565 465 587 q 451 521 456 543 q 444 488 446 499 q 435 470 441 476 q 416 463 429 463 q 402 464 409 463 q 389 465 396 465 q 298 432 335 465 q 243 349 262 398 q 225 253 225 300 l 225 28 q 197 0 225 0 l 92 0 q 64 28 64 0 q 65 238 64 134 q 66 448 66 343 l 66 587 q 94 615 66 615 l 185 615 z "},"s":{"ha":415,"x_min":35,"x_max":382,"o":"m 193 -18 q 113 -3 155 -18 q 43 39 71 11 q 35 57 35 47 q 39 78 35 61 q 49 112 43 94 q 56 135 54 130 q 63 151 58 143 q 78 159 68 159 q 118 142 91 159 q 180 125 145 125 q 242 184 242 125 q 217 238 242 223 q 164 268 193 253 q 77 342 107 298 q 47 452 47 387 q 97 583 47 536 q 228 629 146 629 q 259 627 238 629 q 304 618 281 624 q 343 603 327 612 q 359 579 359 593 q 354 551 359 566 q 345 523 349 536 q 338 506 342 514 q 321 498 333 498 q 291 505 307 498 q 256 513 275 513 q 210 497 230 513 q 191 454 191 482 q 210 405 191 422 q 258 374 229 387 q 315 340 286 360 q 362 286 343 321 q 382 190 382 251 q 333 43 382 103 q 193 -18 285 -18 z "},"š":{"ha":415,"x_min":-12,"x_max":477,"o":"m 193 -18 q 113 -3 155 -18 q 43 39 71 11 q 35 57 35 47 q 39 78 35 61 q 49 112 43 94 q 56 135 54 130 q 63 151 58 143 q 78 159 68 159 q 118 142 91 159 q 180 125 145 125 q 242 184 242 125 q 217 238 242 223 q 164 268 193 253 q 77 342 107 298 q 47 452 47 387 q 97 583 47 536 q 228 629 146 629 q 259 627 238 629 q 304 618 281 624 q 343 603 327 612 q 359 579 359 593 q 354 551 359 566 q 345 523 349 536 q 338 506 342 514 q 321 498 333 498 q 291 505 307 498 q 256 513 275 513 q 210 497 230 513 q 191 454 191 482 q 210 405 191 422 q 258 374 229 387 q 315 340 286 360 q 362 286 343 321 q 382 190 382 251 q 333 43 382 103 q 193 -18 285 -18 m 97 957 q 115 950 106 957 q 138 930 119 946 q 179 896 157 915 q 218 863 201 877 q 237 850 235 850 q 255 864 239 850 q 291 896 271 878 q 329 930 312 915 q 350 950 346 946 q 369 957 357 957 l 436 957 q 460 955 444 957 q 477 941 477 953 q 469 923 477 932 q 455 909 460 914 q 393 851 424 880 q 331 793 361 823 q 292 756 311 775 q 253 720 273 738 q 234 711 243 711 q 215 720 225 711 q 175 756 195 738 q 136 793 155 775 q 73 851 104 823 q 10 909 41 880 q -4 923 5 914 q -12 941 -12 932 q 5 955 -12 953 q 29 957 22 957 l 97 957 z "},"ß":{"ha":694,"x_min":41,"x_max":650,"o":"m 114 629 l 114 671 q 144 809 114 745 q 232 915 175 874 q 366 955 288 955 q 484 933 429 955 q 572 866 538 911 q 606 751 606 821 q 593 656 606 703 q 544 575 580 610 q 539 568 539 570 q 541 563 539 565 q 545 560 543 562 q 630 440 610 513 q 650 290 650 367 q 641 182 650 236 q 607 84 631 128 q 541 13 583 39 q 433 -14 498 -14 q 367 -4 402 -14 q 309 27 332 5 q 302 42 302 34 q 311 65 302 49 q 330 98 320 81 q 345 121 340 115 q 353 132 348 127 q 364 136 357 136 q 387 129 376 136 q 417 121 397 121 q 459 140 444 121 q 480 187 473 159 q 488 244 486 216 q 489 292 489 273 q 486 347 489 316 q 473 408 483 378 q 444 456 464 437 q 392 475 425 475 q 385 478 385 475 l 385 602 q 394 625 385 618 q 414 640 403 633 q 435 663 426 648 q 444 711 444 679 q 427 779 444 748 q 368 809 410 809 q 312 787 331 809 q 284 730 292 764 q 275 662 277 696 q 274 601 274 627 q 273 315 273 458 q 273 28 273 172 q 245 0 273 0 l 138 0 q 111 28 111 0 q 112 248 111 138 q 114 467 114 357 q 103 476 114 476 q 77 474 92 475 q 52 478 63 473 q 41 503 41 484 l 41 593 q 52 618 41 613 q 77 622 63 623 q 103 621 92 621 q 114 629 114 621 z "},"t":{"ha":475,"x_min":43,"x_max":440,"o":"m 137 625 q 136 741 137 683 q 136 857 136 799 q 163 884 136 884 l 270 884 q 298 857 298 884 q 297 741 298 799 q 297 625 297 683 q 306 616 297 616 l 412 616 q 440 589 440 616 q 440 546 440 568 q 439 503 439 525 q 412 475 439 475 l 306 475 q 297 467 297 475 q 298 248 297 357 q 298 28 298 138 q 271 0 298 0 l 163 0 q 135 28 135 0 q 136 248 135 138 q 137 467 137 357 q 123 477 137 477 q 90 475 109 477 q 58 477 72 473 q 43 503 43 482 l 43 589 q 71 616 43 616 l 128 616 q 137 625 137 616 z "},"u":{"ha":766,"x_min":67,"x_max":702,"o":"m 581 0 q 553 24 557 0 q 550 52 551 38 q 547 79 548 66 q 545 86 547 81 q 541 92 544 92 q 535 89 538 92 q 530 83 532 85 q 421 9 486 32 q 290 -13 357 -13 q 184 6 235 -13 q 100 66 133 26 q 67 168 67 106 q 68 325 67 246 q 69 482 69 404 l 69 587 q 97 615 69 615 l 201 615 q 229 587 229 615 l 229 481 q 229 353 229 417 q 229 224 228 288 q 263 148 230 170 q 346 126 297 126 q 450 159 407 126 q 515 242 492 191 q 538 349 538 294 l 538 587 q 566 615 538 615 l 669 615 q 697 587 697 615 q 697 529 697 558 q 696 471 696 500 q 697 321 696 396 q 699 171 699 245 q 701 100 700 136 q 702 28 702 64 q 674 0 702 0 l 581 0 z "},"ú":{"ha":766,"x_min":67,"x_max":702,"o":"m 581 0 q 553 24 557 0 q 550 52 551 38 q 547 79 548 66 q 545 86 547 81 q 541 92 544 92 q 535 89 538 92 q 530 83 532 85 q 421 9 486 32 q 290 -13 357 -13 q 184 6 235 -13 q 100 66 133 26 q 67 168 67 106 q 68 325 67 246 q 69 482 69 404 l 69 587 q 97 615 69 615 l 201 615 q 229 587 229 615 l 229 481 q 229 353 229 417 q 229 224 228 288 q 263 148 230 170 q 346 126 297 126 q 450 159 407 126 q 515 242 492 191 q 538 349 538 294 l 538 587 q 566 615 538 615 l 669 615 q 697 587 697 615 q 697 529 697 558 q 696 471 696 500 q 697 321 696 396 q 699 171 699 245 q 701 100 700 136 q 702 28 702 64 q 674 0 702 0 l 581 0 m 569 920 q 594 918 576 920 q 611 904 611 916 q 602 886 611 895 q 587 871 593 877 q 513 803 550 838 q 438 734 476 768 q 419 727 429 727 l 379 727 q 358 730 370 727 q 347 744 347 732 q 350 758 347 751 q 357 769 353 764 l 452 908 q 475 920 460 920 l 569 920 z "},"û":{"ha":766,"x_min":67,"x_max":702,"o":"m 581 0 q 553 24 557 0 q 550 52 551 38 q 547 79 548 66 q 545 86 547 81 q 541 92 544 92 q 535 89 538 92 q 530 83 532 85 q 421 9 486 32 q 290 -13 357 -13 q 184 6 235 -13 q 100 66 133 26 q 67 168 67 106 q 68 325 67 246 q 69 482 69 404 l 69 587 q 97 615 69 615 l 201 615 q 229 587 229 615 l 229 481 q 229 353 229 417 q 229 224 228 288 q 263 148 230 170 q 346 126 297 126 q 450 159 407 126 q 515 242 492 191 q 538 349 538 294 l 538 587 q 566 615 538 615 l 669 615 q 697 587 697 615 q 697 529 697 558 q 696 471 696 500 q 697 321 696 396 q 699 171 699 245 q 701 100 700 136 q 702 28 702 64 q 674 0 702 0 l 581 0 m 516 727 q 498 734 505 727 q 475 753 493 738 q 435 788 456 769 q 397 821 414 807 q 378 834 380 834 q 361 821 376 834 q 326 789 345 807 q 289 754 306 770 q 267 734 273 739 q 248 727 258 727 l 180 727 q 156 729 173 727 q 140 743 140 731 q 148 761 140 751 q 161 775 156 770 q 261 871 211 823 q 363 964 312 918 q 372 970 368 967 q 382 973 377 973 q 393 970 388 973 q 401 964 397 967 q 503 871 453 918 q 603 775 553 823 q 616 761 608 770 q 625 743 625 751 q 608 729 625 731 q 584 727 591 727 l 516 727 z "},"ü":{"ha":766,"x_min":67,"x_max":702,"o":"m 581 0 q 553 24 557 0 q 550 52 551 38 q 547 79 548 66 q 545 86 547 81 q 541 92 544 92 q 535 89 538 92 q 530 83 532 85 q 421 9 486 32 q 290 -13 357 -13 q 184 6 235 -13 q 100 66 133 26 q 67 168 67 106 q 68 325 67 246 q 69 482 69 404 l 69 587 q 97 615 69 615 l 201 615 q 229 587 229 615 l 229 481 q 229 353 229 417 q 229 224 228 288 q 263 148 230 170 q 346 126 297 126 q 450 159 407 126 q 515 242 492 191 q 538 349 538 294 l 538 587 q 566 615 538 615 l 669 615 q 697 587 697 615 q 697 529 697 558 q 696 471 696 500 q 697 321 696 396 q 699 171 699 245 q 701 100 700 136 q 702 28 702 64 q 674 0 702 0 l 581 0 m 142 794 q 168 858 142 831 q 231 886 193 886 q 293 860 266 886 q 319 798 319 833 q 292 734 319 762 q 228 706 264 706 q 167 732 192 706 q 142 794 142 759 m 444 794 q 472 858 444 831 q 536 886 499 886 q 597 859 572 886 q 623 798 623 833 q 595 735 623 764 q 533 706 568 706 q 470 731 496 706 q 444 794 444 757 z "},"ù":{"ha":766,"x_min":67,"x_max":702,"o":"m 581 0 q 553 24 557 0 q 550 52 551 38 q 547 79 548 66 q 545 86 547 81 q 541 92 544 92 q 535 89 538 92 q 530 83 532 85 q 421 9 486 32 q 290 -13 357 -13 q 184 6 235 -13 q 100 66 133 26 q 67 168 67 106 q 68 325 67 246 q 69 482 69 404 l 69 587 q 97 615 69 615 l 201 615 q 229 587 229 615 l 229 481 q 229 353 229 417 q 229 224 228 288 q 263 148 230 170 q 346 126 297 126 q 450 159 407 126 q 515 242 492 191 q 538 349 538 294 l 538 587 q 566 615 538 615 l 669 615 q 697 587 697 615 q 697 529 697 558 q 696 471 696 500 q 697 321 696 396 q 699 171 699 245 q 701 100 700 136 q 702 28 702 64 q 674 0 702 0 l 581 0 m 345 727 q 325 735 333 727 q 257 803 290 768 q 189 873 223 838 q 177 887 184 878 q 170 904 170 896 q 185 918 170 916 q 209 920 201 920 l 307 920 q 331 907 323 920 q 372 839 352 875 q 410 769 391 803 q 415 758 413 764 q 418 745 418 751 q 407 730 418 732 q 386 727 395 727 l 345 727 z "},"v":{"ha":703,"x_min":30,"x_max":673,"o":"m 359 -14 q 355 -12 357 -14 q 257 168 305 77 q 160 347 208 258 q 98 460 130 404 q 37 574 67 517 q 32 585 35 579 q 30 596 30 591 q 41 612 30 609 q 62 615 53 615 l 186 615 q 212 600 203 615 q 233 556 223 579 q 254 512 243 534 q 305 405 279 458 q 357 298 330 351 q 360 293 359 296 q 365 290 362 290 q 370 293 368 290 q 372 298 372 296 q 419 405 397 351 q 465 511 441 458 q 483 555 474 533 q 503 598 492 578 q 528 615 511 615 l 642 615 q 662 612 651 615 q 673 596 673 609 q 671 585 673 591 q 667 574 669 580 q 598 442 633 508 q 530 309 564 376 q 448 149 488 229 q 364 -12 407 68 q 359 -14 362 -14 z "},"w":{"ha":1013,"x_min":30,"x_max":983,"o":"m 440 615 l 515 615 q 540 600 531 615 q 562 559 551 581 q 583 517 572 538 q 634 418 608 468 q 686 317 659 368 q 693 310 690 310 q 701 317 697 310 q 747 417 725 367 q 793 517 770 468 q 811 559 802 537 q 831 600 821 581 q 857 615 841 615 l 952 615 q 972 612 962 615 q 983 596 983 608 q 981 586 983 591 q 977 576 979 581 q 905 414 942 494 q 833 252 869 333 q 783 134 808 193 q 730 17 758 75 q 722 0 728 10 q 706 -10 715 -10 q 691 0 697 -10 q 681 16 684 9 q 593 188 635 100 q 507 360 551 275 q 504 365 506 362 q 499 368 502 368 q 494 365 496 368 q 491 360 492 362 q 412 189 450 276 q 333 18 375 102 q 324 1 330 12 q 308 -9 317 -9 q 293 2 299 -9 q 283 19 286 12 q 227 145 254 81 q 172 271 200 208 q 104 424 138 347 q 35 576 69 500 q 32 586 33 581 q 30 596 30 591 q 40 612 30 608 q 60 615 51 615 l 156 615 q 180 600 172 615 q 200 565 191 583 q 218 528 209 546 q 269 425 243 477 q 322 322 295 373 q 330 315 326 315 q 337 322 334 315 q 351 350 340 328 q 378 404 363 373 q 407 464 393 434 q 432 513 422 493 q 441 533 441 532 q 434 550 441 538 q 418 575 426 562 q 411 597 411 589 q 421 612 411 609 q 440 615 431 615 z "},"x":{"ha":603,"x_min":31,"x_max":576,"o":"m 393 323 q 409 294 393 321 q 449 230 425 268 q 498 152 473 191 q 543 82 524 112 q 567 43 562 52 q 573 31 570 37 q 576 18 576 25 q 565 3 576 5 q 543 0 553 0 l 413 0 q 390 13 399 0 q 337 94 362 52 q 287 176 313 136 q 280 182 283 182 q 264 160 277 182 q 235 106 252 138 q 204 49 218 75 q 185 14 191 22 q 161 0 176 0 l 66 0 q 45 3 57 0 q 33 18 33 5 q 36 31 33 25 q 42 43 39 37 q 65 80 47 51 q 106 146 83 109 q 152 220 130 183 q 189 281 174 256 q 203 309 203 306 q 186 341 203 313 q 143 409 168 370 q 92 489 117 449 q 48 559 66 530 q 31 597 31 589 q 43 612 31 610 q 64 615 55 615 l 195 615 q 219 602 210 615 q 239 570 224 595 q 272 515 254 545 q 304 464 290 486 q 321 442 318 442 q 328 450 325 442 q 362 524 347 486 q 395 599 376 563 q 420 615 404 615 l 513 615 q 534 612 522 615 q 545 597 545 609 q 530 561 545 589 q 492 494 515 532 q 446 418 469 456 q 408 354 423 380 q 393 323 393 327 z "},"y":{"ha":661,"x_min":26,"x_max":635,"o":"m 175 -225 q 155 -222 165 -225 q 144 -205 144 -218 q 145 -195 144 -200 q 149 -186 147 -191 q 202 -68 175 -127 q 256 49 230 -10 l 256 55 q 143 315 199 185 q 31 576 87 446 q 26 595 26 587 q 37 612 26 608 q 57 615 47 615 l 176 615 q 192 611 186 615 q 201 597 197 606 q 222 549 213 574 q 240 500 231 524 q 287 382 264 441 q 334 264 309 323 q 338 259 336 262 q 342 255 340 255 q 347 258 345 255 q 350 264 349 262 q 402 382 377 322 q 453 501 427 442 q 473 550 463 525 q 495 599 483 576 q 521 615 505 615 l 605 615 q 625 612 615 615 q 635 595 635 608 q 631 576 635 587 q 530 336 581 456 q 429 95 479 216 q 386 -6 408 44 q 343 -107 365 -57 q 322 -158 332 -132 q 300 -208 311 -184 q 274 -225 292 -225 l 175 -225 z "},"ý":{"ha":661,"x_min":26,"x_max":635,"o":"m 175 -225 q 155 -222 165 -225 q 144 -205 144 -218 q 145 -195 144 -200 q 149 -186 147 -191 q 202 -68 175 -127 q 256 49 230 -10 l 256 55 q 143 315 199 185 q 31 576 87 446 q 26 595 26 587 q 37 612 26 608 q 57 615 47 615 l 176 615 q 192 611 186 615 q 201 597 197 606 q 222 549 213 574 q 240 500 231 524 q 287 382 264 441 q 334 264 309 323 q 338 259 336 262 q 342 255 340 255 q 347 258 345 255 q 350 264 349 262 q 402 382 377 322 q 453 501 427 442 q 473 550 463 525 q 495 599 483 576 q 521 615 505 615 l 605 615 q 625 612 615 615 q 635 595 635 608 q 631 576 635 587 q 530 336 581 456 q 429 95 479 216 q 386 -6 408 44 q 343 -107 365 -57 q 322 -158 332 -132 q 300 -208 311 -184 q 274 -225 292 -225 l 175 -225 m 526 895 q 550 893 533 895 q 568 879 568 891 q 558 861 568 870 q 544 846 549 852 q 470 778 507 812 q 395 709 433 743 q 376 702 386 702 l 336 702 q 315 705 327 702 q 303 719 303 707 q 307 732 303 726 q 313 744 310 739 l 409 883 q 432 895 417 895 l 526 895 z "},"ÿ":{"ha":661,"x_min":26,"x_max":635,"o":"m 175 -225 q 155 -222 165 -225 q 144 -205 144 -218 q 145 -195 144 -200 q 149 -186 147 -191 q 202 -68 175 -127 q 256 49 230 -10 l 256 55 q 143 315 199 185 q 31 576 87 446 q 26 595 26 587 q 37 612 26 608 q 57 615 47 615 l 176 615 q 192 611 186 615 q 201 597 197 606 q 222 549 213 574 q 240 500 231 524 q 287 382 264 441 q 334 264 309 323 q 338 259 336 262 q 342 255 340 255 q 347 258 345 255 q 350 264 349 262 q 402 382 377 322 q 453 501 427 442 q 473 550 463 525 q 495 599 483 576 q 521 615 505 615 l 605 615 q 625 612 615 615 q 635 595 635 608 q 631 576 635 587 q 530 336 581 456 q 429 95 479 216 q 386 -6 408 44 q 343 -107 365 -57 q 322 -158 332 -132 q 300 -208 311 -184 q 274 -225 292 -225 l 175 -225 m 98 769 q 124 833 98 806 q 187 861 150 861 q 249 834 222 861 q 276 772 276 808 q 248 709 276 737 q 184 681 220 681 q 123 707 149 681 q 98 769 98 734 m 401 769 q 428 833 401 806 q 492 861 456 861 q 554 834 528 861 q 579 772 579 808 q 552 710 579 739 q 490 681 524 681 q 427 706 452 681 q 401 769 401 732 z "},"z":{"ha":585,"x_min":33,"x_max":531,"o":"m 273 463 q 264 468 273 468 l 83 468 q 55 496 55 468 q 55 542 55 519 q 54 587 54 564 q 82 615 54 615 l 484 615 q 505 612 494 615 q 516 596 516 609 q 514 585 516 591 q 509 574 511 579 q 485 529 503 564 q 440 448 466 495 q 387 350 414 401 q 335 255 359 300 q 296 183 311 211 q 281 153 281 155 q 290 148 281 148 l 503 148 q 530 121 530 148 l 531 28 q 503 0 531 0 l 66 0 q 45 3 57 0 q 33 18 33 6 q 36 31 33 24 q 41 41 39 37 q 66 86 47 52 q 112 167 85 120 q 166 264 138 214 q 218 359 194 315 q 258 432 243 403 q 273 463 273 460 z "},"ž":{"ha":585,"x_min":33,"x_max":551,"o":"m 273 463 q 264 468 273 468 l 83 468 q 55 496 55 468 q 55 542 55 519 q 54 587 54 564 q 82 615 54 615 l 484 615 q 505 612 494 615 q 516 596 516 609 q 514 585 516 591 q 509 574 511 579 q 485 529 503 564 q 440 448 466 495 q 387 350 414 401 q 335 255 359 300 q 296 183 311 211 q 281 153 281 155 q 290 148 281 148 l 503 148 q 530 121 530 148 l 531 28 q 503 0 531 0 l 66 0 q 45 3 57 0 q 33 18 33 6 q 36 31 33 24 q 41 41 39 37 q 66 86 47 52 q 112 167 85 120 q 166 264 138 214 q 218 359 194 315 q 258 432 243 403 q 273 463 273 460 m 171 945 q 189 938 180 945 q 212 918 193 934 q 253 884 231 903 q 292 851 275 865 q 311 838 309 838 q 329 851 313 838 q 365 884 345 865 q 403 918 386 903 q 424 938 420 934 q 443 945 431 945 l 510 945 q 534 943 517 945 q 551 929 551 941 q 543 911 551 920 q 529 897 534 902 q 467 839 498 867 q 405 781 435 810 q 366 744 385 763 q 327 708 347 726 q 308 699 317 699 q 289 708 299 699 q 249 744 269 726 q 210 781 229 763 q 147 839 178 810 q 84 897 115 867 q 70 911 79 902 q 62 929 62 920 q 79 943 62 941 q 103 945 96 945 l 171 945 z "},"":{"ha":705,"x_min":41,"x_max":602,"o":"m 150 0 q 122 28 122 0 q 124 239 122 134 q 125 449 125 344 q 113 458 125 458 q 83 456 100 458 q 54 460 66 455 q 41 485 41 465 l 41 589 q 54 614 41 610 q 83 618 66 619 q 113 616 100 616 q 125 625 125 616 q 125 666 125 646 q 125 706 125 686 q 147 838 125 777 q 218 937 169 899 q 345 975 267 975 q 416 964 383 975 q 480 933 449 953 q 486 931 484 931 q 500 934 493 931 q 516 937 508 937 q 577 909 552 937 q 602 846 602 882 q 578 781 602 810 q 515 751 553 751 q 466 768 486 751 q 434 809 446 785 q 432 812 433 810 q 429 816 431 814 q 424 809 425 815 q 417 800 422 802 q 402 814 414 801 q 363 827 390 827 q 312 805 329 827 q 291 752 296 783 q 286 695 286 721 l 286 625 q 294 617 286 617 l 562 617 q 589 589 589 617 l 589 493 q 591 261 589 377 q 593 28 593 144 q 565 0 593 0 l 458 0 q 431 28 431 0 q 430 238 431 133 q 429 449 429 344 q 421 457 429 457 l 294 457 q 286 449 286 457 q 285 238 286 344 q 284 28 284 133 q 256 0 284 0 l 150 0 z "},"ﬁ":{"ha":705,"x_min":41,"x_max":602,"o":"m 150 0 q 122 28 122 0 q 124 239 122 134 q 125 449 125 344 q 113 458 125 458 q 83 456 100 458 q 54 460 66 455 q 41 485 41 465 l 41 589 q 54 614 41 610 q 83 618 66 619 q 113 616 100 616 q 125 625 125 616 q 125 666 125 646 q 125 706 125 686 q 147 838 125 777 q 218 937 169 899 q 345 975 267 975 q 416 964 383 975 q 480 933 449 953 q 486 931 484 931 q 500 934 493 931 q 516 937 508 937 q 577 909 552 937 q 602 846 602 882 q 578 781 602 810 q 515 751 553 751 q 466 768 486 751 q 434 809 446 785 q 432 812 433 810 q 429 816 431 814 q 424 809 425 815 q 417 800 422 802 q 402 814 414 801 q 363 827 390 827 q 312 805 329 827 q 291 752 296 783 q 286 695 286 721 l 286 625 q 294 617 286 617 l 562 617 q 589 589 589 617 l 589 493 q 591 261 589 377 q 593 28 593 144 q 565 0 593 0 l 458 0 q 431 28 431 0 q 430 238 431 133 q 429 449 429 344 q 421 457 429 457 l 294 457 q 286 449 286 457 q 285 238 286 344 q 284 28 284 133 q 256 0 284 0 l 150 0 z "},"":{"ha":721,"x_min":41,"x_max":619,"o":"m 157 0 q 129 28 129 0 q 131 239 129 134 q 132 449 132 344 q 124 457 132 457 l 69 457 q 41 485 41 457 q 41 537 41 511 q 41 589 41 564 q 55 615 41 610 q 86 618 68 620 q 118 616 104 616 q 132 625 132 615 q 132 665 132 645 q 132 705 132 686 q 156 840 132 779 q 231 938 180 901 q 362 975 282 975 q 405 971 384 975 q 447 960 426 967 q 452 959 450 959 q 457 968 460 959 q 463 978 454 978 l 591 978 q 619 949 619 978 q 617 720 619 835 q 615 489 615 604 q 617 259 615 374 q 619 28 619 144 q 591 0 619 0 l 485 0 q 457 28 457 0 q 456 238 457 133 q 455 449 455 344 q 447 457 455 457 l 300 457 q 292 449 292 457 q 292 238 292 344 q 291 28 291 133 q 263 0 291 0 l 157 0 m 292 617 l 456 617 q 456 725 456 671 q 456 833 456 779 q 447 815 452 824 q 438 798 443 806 q 379 827 417 827 q 325 807 344 827 q 299 757 307 787 q 292 699 292 728 l 292 617 z "},"ﬂ":{"ha":721,"x_min":41,"x_max":619,"o":"m 157 0 q 129 28 129 0 q 131 239 129 134 q 132 449 132 344 q 124 457 132 457 l 69 457 q 41 485 41 457 q 41 537 41 511 q 41 589 41 564 q 55 615 41 610 q 86 618 68 620 q 118 616 104 616 q 132 625 132 615 q 132 665 132 645 q 132 705 132 686 q 156 840 132 779 q 231 938 180 901 q 362 975 282 975 q 405 971 384 975 q 447 960 426 967 q 452 959 450 959 q 457 968 460 959 q 463 978 454 978 l 591 978 q 619 949 619 978 q 617 720 619 835 q 615 489 615 604 q 617 259 615 374 q 619 28 619 144 q 591 0 619 0 l 485 0 q 457 28 457 0 q 456 238 457 133 q 455 449 455 344 q 447 457 455 457 l 300 457 q 292 449 292 457 q 292 238 292 344 q 291 28 291 133 q 263 0 291 0 l 157 0 m 292 617 l 456 617 q 456 725 456 671 q 456 833 456 779 q 447 815 452 824 q 438 798 443 806 q 379 827 417 827 q 325 807 344 827 q 299 757 307 787 q 292 699 292 728 l 292 617 z "},"ª":{"ha":639,"x_min":25,"x_max":595,"o":"m 267 608 q 94 664 163 608 q 25 828 25 719 q 60 945 25 897 q 150 1021 94 994 q 270 1047 206 1047 q 369 1036 320 1047 q 460 998 418 1025 q 467 994 465 994 q 474 1003 473 994 q 477 1021 475 1013 q 492 1030 480 1030 l 567 1030 q 595 1002 595 1030 q 592 824 595 913 q 589 646 589 734 q 562 618 589 618 l 484 618 q 466 630 468 618 q 466 653 465 642 q 460 665 468 665 q 454 662 458 665 q 363 623 410 637 q 267 608 317 608 m 311 718 q 368 723 333 718 q 432 743 403 728 q 467 785 462 758 q 468 826 469 800 q 467 868 467 852 q 427 910 454 895 q 368 931 399 925 q 309 937 336 937 q 240 926 277 937 q 177 892 203 916 q 151 829 151 868 q 177 766 151 790 q 241 729 204 741 q 311 718 279 718 z "},"º":{"ha":639,"x_min":25,"x_max":614,"o":"m 25 825 q 54 925 25 883 q 130 994 83 967 q 230 1034 176 1021 q 333 1047 284 1047 q 465 1023 401 1047 q 572 950 530 1000 q 614 825 614 901 q 586 726 614 767 q 515 658 559 684 q 419 618 471 631 q 319 606 368 606 q 217 618 269 606 q 122 656 165 630 q 52 724 79 683 q 25 825 25 766 m 152 824 q 172 777 152 796 q 221 746 191 758 q 280 729 250 734 q 332 724 311 724 q 397 733 361 724 q 460 765 433 743 q 487 824 487 787 q 457 884 487 862 q 389 917 428 907 q 319 927 349 927 q 251 917 290 927 q 181 884 211 907 q 152 824 152 862 z "},"Δ":{"ha":555,"x_min":-54,"x_max":734,"o":"m -24 0 q -44 3 -33 0 q -54 20 -54 7 q -50 39 -54 28 q 46 268 -1 153 q 140 496 94 382 q 238 742 190 619 q 338 986 287 865 q 343 989 339 989 q 347 986 347 989 q 444 741 397 864 q 541 496 492 618 q 634 267 587 381 q 729 39 681 153 q 734 20 734 28 q 723 3 734 7 q 703 0 713 0 l -24 0 m 180 163 l 499 163 q 419 374 459 269 q 340 585 380 479 q 261 374 301 479 q 180 163 221 269 z "},"∆":{"ha":555,"x_min":-54,"x_max":734,"o":"m -24 0 q -44 3 -33 0 q -54 20 -54 7 q -50 39 -54 28 q 46 268 -1 153 q 140 496 94 382 q 238 742 190 619 q 338 986 287 865 q 343 989 339 989 q 347 986 347 989 q 444 741 397 864 q 541 496 492 618 q 634 267 587 381 q 729 39 681 153 q 734 20 734 28 q 723 3 734 7 q 703 0 713 0 l -24 0 m 180 163 l 499 163 q 419 374 459 269 q 340 585 380 479 q 261 374 301 479 q 180 163 221 269 z "},"µ":{"ha":532,"x_min":8,"x_max":516,"o":"m 182 -26 q 168 -25 175 -26 q 160 -33 161 -24 q 159 -69 159 -51 q 159 -106 159 -87 l 158 -250 q 158 -281 157 -264 q 157 -313 159 -297 q 130 -340 155 -340 l 36 -340 q 8 -311 8 -340 q 11 -190 8 -251 q 14 -68 14 -129 q 20 443 20 187 q 20 511 20 477 q 20 581 20 546 q 47 608 20 608 l 149 608 q 177 581 177 608 l 177 214 q 190 149 177 182 q 243 116 203 116 q 299 140 277 116 q 333 201 321 165 q 350 274 345 237 q 355 336 355 311 l 355 581 q 382 608 355 608 l 485 608 q 513 581 513 608 q 512 509 513 545 q 512 437 512 473 q 514 233 512 335 q 516 28 516 131 q 488 0 516 0 l 396 0 q 368 25 371 0 q 366 51 367 38 q 363 77 365 64 q 362 86 363 78 q 357 94 361 94 q 350 88 354 94 q 345 80 347 82 q 278 4 318 33 q 182 -26 239 -26 z "},"μ":{"ha":532,"x_min":8,"x_max":516,"o":"m 182 -26 q 168 -25 175 -26 q 160 -33 161 -24 q 159 -69 159 -51 q 159 -106 159 -87 l 158 -250 q 158 -281 157 -264 q 157 -313 159 -297 q 130 -340 155 -340 l 36 -340 q 8 -311 8 -340 q 11 -190 8 -251 q 14 -68 14 -129 q 20 443 20 187 q 20 511 20 477 q 20 581 20 546 q 47 608 20 608 l 149 608 q 177 581 177 608 l 177 214 q 190 149 177 182 q 243 116 203 116 q 299 140 277 116 q 333 201 321 165 q 350 274 345 237 q 355 336 355 311 l 355 581 q 382 608 355 608 l 485 608 q 513 581 513 608 q 512 509 513 545 q 512 437 512 473 q 514 233 512 335 q 516 28 516 131 q 488 0 516 0 l 396 0 q 368 25 371 0 q 366 51 367 38 q 363 77 365 64 q 362 86 363 78 q 357 94 361 94 q 350 88 354 94 q 345 80 347 82 q 278 4 318 33 q 182 -26 239 -26 z "},"π":{"ha":545,"x_min":13,"x_max":529,"o":"m 13 486 q 41 513 13 513 l 501 513 q 529 486 529 513 l 529 396 q 517 372 529 376 q 491 368 506 367 q 464 369 475 369 q 452 360 452 370 q 454 194 452 277 q 456 28 456 111 q 428 0 456 0 l 340 0 q 313 28 313 0 q 312 194 313 111 q 312 360 312 277 q 304 368 312 368 l 236 368 q 228 360 228 368 q 228 194 228 277 q 227 28 227 111 q 199 0 227 0 l 111 0 q 83 28 83 0 q 85 194 83 111 q 86 360 86 277 q 75 369 86 370 q 50 368 64 369 q 24 372 35 367 q 13 396 13 377 l 13 486 z "},"¹":{"ha":335,"x_min":23,"x_max":282,"o":"m 23 917 q 51 945 23 945 l 254 945 q 282 918 282 945 q 281 664 282 791 q 280 411 280 538 q 252 383 280 383 l 157 383 q 130 411 130 383 l 130 787 q 114 798 130 798 q 77 794 98 797 q 40 797 56 792 q 24 823 24 802 q 23 870 24 847 q 23 917 23 894 z "},"²":{"ha":532,"x_min":45,"x_max":501,"o":"m 97 808 q 81 816 87 808 q 72 831 75 824 q 63 851 69 837 q 51 879 56 865 q 45 897 45 892 q 51 911 45 904 q 144 971 84 951 q 253 990 203 990 q 366 969 314 990 q 449 906 417 949 q 480 797 480 863 q 457 704 480 747 q 402 628 433 661 q 348 575 371 595 q 324 551 324 555 q 330 547 324 548 q 337 547 336 547 l 473 547 q 501 519 501 547 l 501 435 q 473 408 501 408 l 87 408 q 60 435 60 408 l 60 486 q 74 511 60 502 q 107 530 90 521 q 140 549 124 539 q 212 601 172 570 q 282 671 252 632 q 311 752 311 710 q 290 824 311 797 q 221 851 269 851 q 165 840 191 851 q 123 819 140 829 q 97 808 105 808 z "},"³":{"ha":525,"x_min":45,"x_max":477,"o":"m 231 402 q 139 416 187 402 q 56 458 91 430 q 45 477 45 467 q 56 507 45 487 q 71 536 66 527 q 79 549 74 543 q 93 555 85 555 q 119 544 102 555 q 159 522 136 533 q 214 511 183 511 q 294 531 258 511 q 330 602 330 551 q 291 677 330 659 q 204 695 252 695 q 134 686 170 695 q 130 685 132 685 q 119 696 119 685 q 138 723 119 701 q 181 774 157 746 q 224 825 205 802 q 243 852 243 848 q 239 857 243 856 q 232 857 235 857 l 88 857 q 61 884 62 857 q 60 917 60 901 q 60 949 60 932 q 87 977 60 977 l 397 977 q 418 974 406 977 q 431 959 431 971 q 413 923 431 950 q 373 864 395 896 q 332 806 350 831 q 315 775 315 781 q 323 768 315 770 q 431 716 386 754 q 477 608 477 679 q 441 496 477 543 q 351 426 406 450 q 235 402 295 402 l 231 402 z "},"⁴":{"ha":552,"x_min":32,"x_max":523,"o":"m 450 642 q 461 633 450 633 q 486 634 472 633 q 511 631 500 635 q 522 606 522 626 q 522 578 522 593 q 517 551 523 562 q 493 540 511 540 q 468 541 486 540 q 450 532 450 542 l 450 429 q 422 401 450 401 l 339 401 q 311 429 311 401 l 311 532 q 303 540 311 540 l 56 540 q 36 550 40 540 q 32 572 32 559 q 38 590 32 582 q 106 675 71 633 q 176 760 142 718 q 259 863 218 811 q 345 964 301 915 q 366 975 354 975 l 425 975 q 452 947 452 975 q 451 795 452 871 q 450 642 450 719 m 199 634 l 311 634 l 311 767 q 255 701 283 734 q 199 634 227 667 z "},"⁄":{"ha":424,"x_min":-54,"x_max":530,"o":"m 499 987 q 519 984 509 987 q 530 968 530 981 q 528 958 530 963 q 524 947 526 952 q 390 663 457 805 q 257 377 323 520 q 201 256 229 317 q 145 136 174 196 q 118 75 132 106 q 89 16 104 45 q 64 0 81 0 l -22 0 q -43 3 -32 0 q -54 19 -54 6 q -52 30 -54 24 q -47 40 -50 35 q 86 326 20 183 q 219 611 153 468 q 275 732 247 671 q 330 852 302 792 q 358 912 345 882 q 387 972 372 943 q 412 987 395 987 l 499 987 z "},"∕":{"ha":424,"x_min":-54,"x_max":530,"o":"m 499 987 q 519 984 509 987 q 530 968 530 981 q 528 958 530 963 q 524 947 526 952 q 390 663 457 805 q 257 377 323 520 q 201 256 229 317 q 145 136 174 196 q 118 75 132 106 q 89 16 104 45 q 64 0 81 0 l -22 0 q -43 3 -32 0 q -54 19 -54 6 q -52 30 -54 24 q -47 40 -50 35 q 86 326 20 183 q 219 611 153 468 q 275 732 247 671 q 330 852 302 792 q 358 912 345 882 q 387 972 372 943 q 412 987 395 987 l 499 987 z "},"½":{"ha":1086,"x_min":24,"x_max":1041,"o":"m 751 987 q 772 984 761 987 q 783 968 783 981 q 781 958 783 963 q 776 947 779 952 q 633 661 704 804 q 490 375 562 519 q 431 255 461 315 q 370 135 400 195 q 340 75 355 105 q 309 15 325 45 q 284 0 300 0 l 198 0 q 178 3 189 0 q 167 18 167 6 q 169 30 167 24 q 174 41 171 36 q 318 326 246 183 q 460 611 389 468 q 519 732 490 671 q 579 852 549 793 q 609 913 594 882 q 640 972 623 943 q 664 987 648 987 l 751 987 m 24 919 q 52 948 24 948 l 227 948 q 254 921 252 948 q 256 857 256 890 q 256 793 256 825 q 258 659 257 726 q 258 524 258 591 q 258 469 258 497 q 258 413 258 441 q 230 385 258 385 l 139 385 q 111 413 111 385 q 112 464 111 439 q 112 514 112 489 q 110 701 112 608 q 110 745 110 722 q 109 789 110 768 q 96 799 108 800 q 68 797 84 799 q 41 800 53 795 q 27 825 28 804 q 25 872 26 848 q 24 919 24 896 m 696 395 q 679 405 685 395 q 669 423 673 415 q 657 451 666 432 q 649 478 649 470 q 654 492 649 485 q 733 550 682 530 q 831 570 785 570 q 966 516 916 570 q 1017 378 1017 461 q 998 284 1017 328 q 954 208 979 241 q 910 155 929 175 q 891 132 891 136 q 896 127 891 128 q 903 127 901 127 l 1010 127 q 1038 100 1036 127 q 1040 59 1040 79 q 1041 18 1041 38 q 1013 -12 1041 -12 l 694 -12 q 667 16 667 -12 l 666 69 q 677 91 666 82 q 753 158 712 121 q 823 239 793 195 q 852 333 852 283 q 848 377 852 354 q 831 416 844 400 q 791 432 819 432 q 734 414 758 432 q 696 395 710 395 z "},"¼":{"ha":1086,"x_min":24,"x_max":1065,"o":"m 828 987 q 849 985 838 987 q 861 969 861 982 q 858 957 861 963 q 852 945 856 951 q 802 856 827 900 q 751 766 777 811 q 652 586 701 676 q 553 405 602 496 q 478 269 515 337 q 404 134 441 201 q 370 74 387 104 q 336 14 354 43 q 312 0 328 0 l 225 0 q 205 3 216 0 q 193 18 193 5 q 196 31 193 24 q 201 42 199 37 q 360 327 281 184 q 517 612 439 469 q 583 733 550 673 q 650 853 616 793 q 683 913 667 883 q 717 973 699 944 q 741 987 725 987 l 828 987 m 24 916 q 52 945 24 945 l 233 945 q 261 918 259 945 q 263 855 263 887 q 263 791 262 823 q 264 656 264 724 q 265 522 265 589 q 265 467 265 494 q 264 411 264 439 q 237 383 264 383 l 144 383 q 117 411 117 383 l 117 500 q 117 597 117 549 q 115 695 117 646 q 116 741 115 718 q 114 787 116 764 q 100 797 113 798 q 71 795 87 797 q 42 798 55 793 q 27 823 28 802 q 25 869 26 846 q 24 916 24 893 m 998 545 l 998 469 q 998 392 998 431 q 999 315 998 353 q 999 278 1000 297 q 1000 241 999 259 q 1015 232 1002 231 q 1036 233 1029 233 q 1059 221 1054 233 q 1064 194 1065 210 q 1063 165 1063 178 q 1054 142 1063 147 q 1033 139 1045 138 q 1011 140 1021 140 q 1002 130 1002 140 l 1006 28 q 978 0 1007 0 l 895 0 q 867 27 869 0 q 867 79 866 53 q 865 130 868 105 q 857 139 864 139 l 651 139 q 632 149 635 139 q 629 172 629 159 q 633 189 629 182 q 695 279 663 235 q 758 369 727 324 q 825 466 792 417 q 892 562 858 515 q 915 573 901 573 l 970 573 q 998 545 998 573 m 781 233 l 864 233 q 863 295 863 264 q 863 356 863 326 q 822 294 842 325 q 781 233 802 264 z "},"¾":{"ha":1086,"x_min":58,"x_max":1036,"o":"m 839 987 q 860 984 848 987 q 871 968 871 981 q 868 957 871 963 q 863 946 866 951 q 713 661 788 804 q 563 376 637 519 q 500 255 532 315 q 437 135 469 195 q 406 75 422 105 q 374 15 391 44 q 349 0 365 0 l 262 0 q 241 3 253 0 q 230 19 230 6 q 232 31 230 24 q 237 41 235 37 q 388 327 313 184 q 538 612 464 469 q 601 733 569 673 q 663 852 632 793 q 694 913 679 882 q 727 972 710 943 q 751 987 736 987 l 839 987 m 204 402 q 66 459 123 402 q 58 476 58 467 q 65 499 58 481 q 82 533 72 517 q 102 549 92 549 q 124 539 113 549 q 151 520 136 530 q 186 511 165 511 q 240 538 223 511 q 257 598 257 566 q 240 667 257 639 q 177 695 223 695 q 145 690 161 695 q 126 685 130 685 q 120 690 122 685 q 117 698 117 694 q 129 727 117 705 q 156 775 140 749 q 183 823 172 802 q 195 852 195 845 q 185 857 195 857 l 96 857 q 68 884 71 857 q 66 948 66 916 q 94 977 66 977 l 338 977 q 358 973 348 977 q 369 958 369 970 q 356 918 369 945 q 328 861 344 891 q 299 805 312 830 q 287 771 287 780 q 294 764 287 767 q 401 608 401 722 q 347 462 401 522 q 204 402 293 402 m 975 546 l 975 465 q 975 390 975 427 q 975 314 975 352 q 975 279 975 297 q 976 243 975 260 q 990 234 977 233 q 1010 235 1003 235 q 1036 210 1035 235 q 1036 188 1036 199 q 1036 165 1036 177 q 1027 144 1036 149 q 1007 140 1019 139 q 987 141 996 141 q 979 133 979 141 q 980 81 979 107 q 981 30 981 56 q 954 1 981 1 l 871 1 q 843 28 845 1 q 843 80 842 54 q 841 132 844 106 q 833 140 840 140 l 638 140 q 618 150 622 140 q 615 173 615 160 q 620 191 615 184 q 675 275 646 233 q 731 358 704 317 q 799 460 765 409 q 867 562 832 512 q 890 574 876 574 l 947 574 q 975 546 975 574 m 765 235 l 840 235 q 839 294 839 264 q 839 353 839 324 q 802 294 820 324 q 765 235 783 264 z "},"*":{"ha":494,"x_min":35,"x_max":466,"o":"m 267 621 q 238 620 254 621 q 211 624 222 618 q 199 648 199 629 l 199 722 q 193 731 199 731 q 165 720 189 731 q 119 696 142 708 q 86 684 95 684 q 64 699 73 684 q 47 728 59 709 q 36 757 36 748 q 42 771 36 766 q 55 779 48 776 q 82 791 61 782 q 122 810 103 801 q 141 823 141 820 q 121 837 141 826 q 79 858 101 847 q 51 871 57 868 q 35 892 35 880 q 44 918 35 901 q 58 944 54 935 q 80 960 67 960 q 114 947 88 960 q 163 923 139 935 q 193 910 188 910 q 198 920 198 910 l 198 1001 q 226 1029 198 1029 l 273 1029 q 301 1004 301 1029 q 301 962 301 983 q 300 920 300 941 q 305 910 300 910 q 325 917 309 910 q 360 934 340 924 q 397 951 380 944 q 420 958 414 958 q 442 943 434 958 q 456 917 447 935 q 466 892 466 900 q 461 878 466 884 q 449 869 456 873 q 420 856 443 867 q 376 834 397 845 q 355 821 355 824 q 375 808 355 818 q 417 788 395 798 q 444 775 439 778 q 457 767 452 772 q 462 753 462 762 q 450 724 462 745 q 433 695 438 704 q 412 681 424 681 q 379 693 404 681 q 331 718 355 706 q 302 730 307 730 q 296 721 296 730 q 296 685 296 703 q 295 648 296 667 q 267 621 294 621 z "},"\\":{"ha":397,"x_min":-42,"x_max":429,"o":"m 93 1069 q 119 1050 112 1069 q 140 983 131 1017 q 159 916 150 949 q 194 798 177 857 q 228 680 211 739 q 326 345 277 513 q 426 9 375 177 q 429 -5 429 0 q 419 -22 429 -18 q 399 -26 410 -26 l 294 -26 q 268 -7 275 -26 q 247 60 256 26 q 229 127 238 94 q 194 245 212 186 q 160 363 177 304 q 62 699 111 531 q -39 1034 12 866 q -42 1048 -42 1043 q -33 1065 -42 1061 q -13 1069 -24 1069 l 93 1069 z "},"·":{"ha":298,"x_min":52,"x_max":243,"o":"m 52 411 q 69 457 52 437 q 110 489 85 477 q 158 501 135 501 q 220 474 196 501 q 243 411 243 448 q 220 348 243 374 q 158 321 197 321 q 87 346 121 321 q 52 411 52 371 z "},"∙":{"ha":298,"x_min":52,"x_max":243,"o":"m 52 411 q 69 457 52 437 q 110 489 85 477 q 158 501 135 501 q 220 474 196 501 q 243 411 243 448 q 220 348 243 374 q 158 321 197 321 q 87 346 121 321 q 52 411 52 371 z "},"•":{"ha":627,"x_min":39,"x_max":589,"o":"m 39 435 q 77 569 39 510 q 178 661 115 627 q 312 695 240 695 q 448 662 385 695 q 550 570 511 628 q 589 435 589 511 q 550 301 589 359 q 448 212 511 244 q 312 180 385 180 q 177 213 239 180 q 77 303 115 245 q 39 435 39 360 z "},":":{"ha":278,"x_min":39,"x_max":234,"o":"m 40 487 q 71 551 40 525 q 137 577 101 577 q 203 551 174 577 q 233 487 233 525 q 203 423 233 448 q 136 398 174 398 q 69 423 98 398 q 40 487 40 448 m 39 90 q 69 154 39 127 q 136 180 100 180 q 203 155 172 180 q 234 92 234 130 q 203 26 234 52 q 134 0 173 0 q 68 25 97 0 q 39 90 39 50 z "},",":{"ha":298,"x_min":1,"x_max":268,"o":"m 237 126 q 257 123 246 126 q 268 107 268 120 q 266 96 268 102 q 261 85 264 91 q 224 14 243 50 q 186 -58 205 -22 q 160 -110 173 -83 q 131 -161 146 -136 q 106 -175 123 -175 l 32 -175 q 12 -172 22 -175 q 1 -156 1 -169 q 3 -145 1 -151 q 7 -134 5 -139 q 44 -59 25 -96 q 81 16 62 -22 q 103 63 92 39 q 125 111 113 87 q 151 126 134 126 l 237 126 z "},"…":{"ha":896,"x_min":16,"x_max":880,"o":"m 16 86 q 45 152 16 124 q 112 180 75 180 q 176 155 148 180 q 203 92 203 129 q 174 27 203 54 q 106 0 144 0 q 43 25 71 0 q 16 86 16 50 m 692 90 q 720 154 692 127 q 785 180 748 180 q 851 154 823 180 q 880 89 880 127 q 851 26 880 52 q 787 0 823 0 q 721 26 749 0 q 692 90 692 52 m 353 90 q 382 154 353 127 q 448 180 412 180 q 513 154 484 180 q 543 92 543 129 q 513 27 543 54 q 446 0 484 0 q 381 26 409 0 q 353 90 353 52 z "},"!":{"ha":322,"x_min":52,"x_max":271,"o":"m 82 1062 q 110 1090 82 1090 l 206 1090 q 234 1062 234 1090 q 233 683 234 873 q 232 304 232 494 q 204 277 232 277 l 112 277 q 84 304 84 277 q 83 683 84 494 q 82 1062 82 873 m 52 82 q 74 132 52 112 q 126 163 96 153 q 180 174 156 174 q 247 149 222 174 q 271 82 271 124 q 244 15 271 38 q 174 -7 216 -7 q 120 2 149 -7 q 72 32 92 12 q 52 82 52 52 z "},"¡":{"ha":322,"x_min":54,"x_max":270,"o":"m 54 705 q 73 755 54 736 q 120 783 92 774 q 174 791 149 791 q 243 768 216 791 q 270 701 270 745 q 245 635 270 660 q 179 611 220 611 q 123 622 153 611 q 74 654 94 633 q 54 705 54 675 m 80 -279 q 82 101 80 -89 q 83 481 83 291 q 111 509 83 509 l 203 509 q 231 481 231 509 q 233 101 231 291 q 235 -279 235 -89 q 207 -307 235 -307 l 108 -307 q 80 -279 80 -307 z "},"#":{"ha":922,"x_min":30,"x_max":872,"o":"m 393 934 q 422 909 422 934 q 421 902 422 905 q 409 823 415 863 q 397 743 403 783 q 390 710 394 728 q 387 678 387 692 q 395 669 387 669 l 549 669 q 557 675 555 669 q 562 709 560 692 q 567 743 564 726 q 580 827 574 785 q 593 910 587 869 q 621 934 597 934 l 714 934 q 734 929 726 934 q 742 911 742 924 q 741 901 742 905 q 722 790 732 846 q 704 678 712 734 l 704 675 q 712 669 704 669 l 844 669 q 872 644 872 669 q 870 597 872 623 q 864 550 867 572 q 836 525 861 525 l 692 525 q 684 518 686 525 q 679 489 683 512 q 670 442 674 465 q 667 413 667 419 q 675 404 667 404 l 808 404 q 836 379 836 404 q 832 332 836 359 q 825 284 828 306 q 798 258 822 258 l 655 258 q 647 251 648 258 q 643 218 644 235 q 638 185 641 201 q 628 105 633 145 q 616 24 623 64 q 589 0 612 0 l 496 0 q 467 24 467 0 q 468 28 467 26 q 468 31 468 30 q 479 109 473 70 q 491 186 485 147 q 496 217 493 201 q 500 249 500 234 q 492 258 500 258 l 339 258 q 331 251 332 258 q 326 218 328 235 q 321 185 323 201 q 309 104 315 145 q 296 24 302 64 q 268 0 292 0 l 174 0 q 146 24 146 0 q 147 33 146 30 q 160 109 153 71 q 173 186 167 148 q 179 217 175 201 q 182 249 182 234 q 174 258 182 258 l 58 258 q 30 283 30 258 q 35 330 30 300 q 43 378 40 359 q 71 404 47 404 l 197 404 q 205 410 202 404 q 208 428 205 412 q 214 464 211 444 q 220 501 218 485 q 223 518 223 517 q 214 525 223 525 l 98 525 q 71 551 71 525 q 74 598 71 569 q 79 644 77 627 q 107 669 83 669 l 232 669 q 240 675 239 669 q 245 709 243 692 q 250 743 247 726 q 261 827 256 785 q 274 910 267 869 q 302 934 278 934 l 393 934 m 370 525 q 360 464 366 494 q 349 404 355 433 l 519 404 q 529 464 524 434 q 538 525 534 494 l 370 525 z "},".":{"ha":298,"x_min":52,"x_max":246,"o":"m 52 90 q 83 154 52 127 q 150 180 113 180 q 216 155 186 180 q 246 92 246 130 q 216 26 246 52 q 148 0 186 0 q 81 25 111 0 q 52 90 52 50 z "},"?":{"ha":553,"x_min":16,"x_max":533,"o":"m 204 273 q 176 301 176 273 q 177 330 176 316 q 177 359 177 345 q 196 483 177 434 q 243 565 215 531 q 298 629 271 599 q 345 694 326 659 q 364 783 364 730 q 353 837 364 808 q 322 887 342 866 q 272 908 302 908 q 196 874 220 908 q 153 800 172 840 q 145 785 150 791 q 130 779 140 779 q 102 788 122 779 q 61 807 81 797 q 32 822 41 818 q 16 844 16 829 q 18 854 16 850 q 116 1004 47 945 q 283 1064 184 1064 q 470 989 408 1064 q 533 795 533 915 q 513 670 533 720 q 464 584 493 621 q 405 514 434 548 q 355 435 375 479 q 335 325 335 391 q 335 292 335 310 q 313 273 334 273 l 204 273 m 256 -7 q 188 17 216 -7 q 160 82 160 41 q 195 148 160 123 q 267 174 229 174 q 328 147 307 174 q 348 82 348 120 q 322 17 348 41 q 256 -7 296 -7 z "},"¿":{"ha":553,"x_min":20,"x_max":555,"o":"m 314 777 q 401 688 401 777 q 379 624 401 649 q 317 598 357 598 q 247 623 279 598 q 215 688 215 647 q 245 752 215 728 q 314 777 275 777 m 359 497 q 387 469 387 497 l 387 411 q 367 288 387 336 q 318 206 347 239 q 261 143 290 172 q 212 77 232 113 q 193 -14 193 41 q 221 -99 193 -59 q 300 -138 250 -138 q 355 -121 334 -138 q 390 -79 376 -104 q 416 -28 404 -54 q 424 -14 419 -20 q 438 -7 429 -7 q 465 -17 443 -7 q 510 -38 487 -27 q 538 -52 532 -49 q 550 -61 546 -56 q 555 -75 555 -66 q 553 -85 555 -81 q 452 -236 523 -177 q 280 -296 380 -296 q 90 -226 159 -296 q 20 -35 20 -157 q 41 97 20 45 q 93 185 62 149 q 155 256 124 222 q 207 335 186 290 q 228 449 228 380 q 229 480 228 464 q 250 497 229 497 l 359 497 z "},"\"":{"ha":421,"x_min":56,"x_max":382,"o":"m 172 1046 q 199 1018 199 1046 q 198 919 199 968 q 196 820 197 870 q 196 766 196 793 q 195 711 197 739 q 167 684 193 684 l 87 684 q 60 712 60 684 q 58 865 60 789 q 56 1018 56 942 q 84 1046 56 1046 l 172 1046 m 355 1046 q 382 1017 382 1046 q 381 924 382 970 q 378 830 379 877 q 377 771 377 801 q 376 711 378 741 q 347 684 374 684 l 268 684 q 240 712 240 684 q 240 865 240 789 q 241 1018 241 942 q 269 1046 241 1046 l 355 1046 z "},"'":{"ha":239,"x_min":44,"x_max":199,"o":"m 171 1046 q 199 1017 199 1046 q 197 928 199 973 q 193 840 195 884 q 193 776 193 808 q 190 711 193 743 q 162 684 188 684 l 74 684 q 46 712 46 684 q 45 865 46 789 q 44 1018 44 942 q 72 1046 44 1046 l 171 1046 z "},";":{"ha":278,"x_min":-15,"x_max":266,"o":"m 94 452 q 124 515 94 488 q 188 542 154 542 q 245 514 224 542 q 266 452 266 486 q 245 391 266 419 q 189 363 225 363 q 123 389 153 363 q 94 452 94 416 m 197 126 q 217 122 208 126 q 227 106 227 119 q 217 76 227 102 q 192 15 207 51 q 160 -58 176 -21 q 132 -122 144 -94 q 115 -159 119 -150 q 89 -175 106 -175 l 16 -175 q -5 -172 5 -175 q -15 -155 -15 -168 q -5 -126 -15 -152 q 18 -65 4 -101 q 47 7 33 -29 q 74 72 62 44 q 90 109 86 100 q 115 126 98 126 l 197 126 z "},"/":{"ha":397,"x_min":-20,"x_max":432,"o":"m 403 1069 q 423 1065 414 1069 q 432 1048 432 1061 q 429 1034 432 1043 q 328 699 378 866 q 230 363 278 531 q 196 245 213 304 q 161 127 179 186 q 143 60 152 94 q 122 -7 134 26 q 96 -26 115 -26 l 9 -26 q -11 -22 -2 -26 q -20 -5 -20 -18 q -18 9 -20 0 q 82 345 33 177 q 180 680 132 513 q 215 798 197 739 q 249 916 232 857 q 268 983 258 949 q 289 1050 277 1017 q 315 1069 296 1069 l 403 1069 z "},"_":{"ha":604,"x_min":71,"x_max":534,"o":"m 71 25 q 72 72 71 49 q 72 119 72 96 q 100 146 72 146 l 505 146 q 533 119 533 146 q 533 72 533 96 q 534 25 534 49 q 506 0 534 0 l 99 0 q 71 25 71 0 z "},"{":{"ha":473,"x_min":35,"x_max":431,"o":"m 376 937 l 366 938 q 319 911 332 938 q 307 849 307 884 q 306 791 306 814 l 305 637 q 288 530 304 579 q 227 441 272 481 q 223 435 223 437 q 227 428 223 432 q 285 349 264 392 q 306 254 306 307 l 306 74 q 307 15 306 50 q 320 -46 308 -20 q 367 -73 333 -73 l 404 -72 q 431 -98 431 -72 l 431 -190 q 404 -218 431 -218 l 334 -218 q 317 -219 326 -218 q 300 -219 309 -219 q 171 -174 202 -219 q 139 -37 139 -130 q 140 80 139 22 q 140 195 140 138 q 134 260 140 226 q 109 321 127 294 q 60 361 92 349 q 41 372 47 366 q 35 393 35 378 q 35 437 35 414 q 35 481 35 459 q 42 501 35 495 q 61 512 49 507 q 110 551 92 524 q 134 612 127 578 q 140 675 140 646 q 140 793 140 734 q 140 911 140 852 q 174 1045 140 1005 q 303 1084 208 1084 q 318 1084 311 1084 q 332 1084 326 1084 l 402 1084 q 430 1055 430 1084 q 430 1009 430 1033 q 429 964 430 986 q 401 937 427 937 l 376 937 z "},"}":{"ha":473,"x_min":42,"x_max":439,"o":"m 96 -72 l 106 -72 q 148 -54 136 -72 q 164 -11 161 -36 q 168 36 168 14 q 168 55 168 45 q 169 75 169 65 l 169 239 q 187 341 169 295 q 247 425 205 388 q 251 432 251 429 q 247 439 251 435 q 189 518 209 477 q 170 614 170 559 q 170 703 170 659 q 169 792 170 747 q 168 850 169 816 q 155 911 168 885 q 108 938 142 938 l 72 937 q 45 964 47 937 q 43 1009 43 986 q 43 1055 43 1033 q 71 1084 43 1084 l 141 1084 q 157 1084 149 1084 q 173 1084 165 1084 q 301 1044 267 1084 q 334 912 334 1004 q 334 795 334 854 q 334 677 334 736 q 340 612 334 648 q 365 547 347 576 q 413 505 382 518 q 432 494 425 500 q 438 474 438 488 q 438 430 438 452 q 439 385 439 408 q 432 365 439 371 q 414 354 426 359 q 365 311 382 341 q 340 245 347 281 q 334 178 334 209 q 334 67 334 123 q 335 -45 335 11 q 300 -179 335 -140 q 170 -219 266 -219 q 155 -219 163 -219 q 140 -218 147 -218 l 70 -218 q 42 -190 42 -218 l 43 -98 q 61 -73 43 -75 q 96 -72 79 -72 z "},"[":{"ha":498,"x_min":81,"x_max":463,"o":"m 83 1055 q 111 1084 83 1084 l 432 1084 q 460 1055 460 1084 q 460 1005 460 1034 q 458 956 460 976 q 451 935 457 942 q 431 928 446 928 l 266 928 q 258 920 258 928 l 258 -54 q 266 -62 258 -62 l 432 -62 q 453 -68 447 -62 q 460 -89 458 -75 q 462 -139 463 -112 q 462 -189 462 -165 q 434 -218 462 -218 l 109 -218 q 81 -189 81 -218 q 83 -79 81 -134 q 85 31 84 -24 q 87 263 86 147 q 87 495 87 379 q 85 775 87 635 q 83 1055 83 916 z "},"]":{"ha":498,"x_min":36,"x_max":417,"o":"m 417 -189 q 389 -218 417 -218 l 64 -218 q 37 -189 37 -218 q 36 -138 37 -165 q 39 -88 36 -111 q 46 -68 40 -75 q 66 -61 52 -61 l 235 -61 q 243 -53 243 -61 l 243 920 q 235 929 243 929 l 68 929 q 47 936 53 929 q 40 956 41 943 q 38 1005 38 977 q 39 1055 39 1034 q 66 1084 39 1084 l 387 1084 q 415 1055 415 1084 q 413 779 415 917 q 412 502 412 640 q 414 34 412 268 q 416 -78 415 -22 q 417 -189 417 -134 z "},"(":{"ha":488,"x_min":70,"x_max":433,"o":"m 70 422 q 95 651 70 534 q 171 876 120 768 q 300 1067 222 984 q 318 1077 308 1077 q 344 1067 323 1077 q 386 1046 365 1057 q 413 1031 407 1036 q 425 1023 419 1028 q 431 1009 431 1017 q 428 997 431 1002 q 421 987 425 992 q 392 948 406 968 q 365 907 378 929 q 267 674 298 799 q 236 422 236 549 q 280 123 236 265 q 422 -144 325 -19 q 429 -154 426 -149 q 433 -165 433 -159 q 427 -179 433 -174 q 414 -188 421 -184 q 387 -203 407 -192 q 347 -224 366 -214 q 319 -234 327 -234 q 300 -224 310 -234 q 171 -33 222 -140 q 95 192 119 75 q 70 422 70 309 z "},")":{"ha":488,"x_min":56,"x_max":418,"o":"m 418 422 q 393 192 418 309 q 318 -33 368 75 q 189 -224 267 -140 q 170 -234 179 -234 q 143 -224 163 -234 q 103 -203 123 -214 q 75 -188 83 -192 q 62 -179 68 -184 q 56 -165 56 -174 q 59 -154 56 -159 q 66 -144 62 -149 q 96 -104 81 -124 q 123 -63 110 -84 q 221 173 189 45 q 252 426 252 300 q 209 723 252 583 q 68 987 165 863 q 61 997 64 991 q 58 1008 58 1002 q 63 1021 58 1016 q 75 1030 69 1027 q 103 1045 82 1034 q 145 1067 124 1057 q 171 1077 165 1077 q 189 1067 181 1077 q 317 876 267 983 q 393 651 368 768 q 418 422 418 534 z "},"—":{"ha":1104,"x_min":97,"x_max":1007,"o":"m 97 265 q 97 311 97 288 q 98 357 98 334 q 125 384 98 384 l 979 384 q 1006 357 1006 384 q 1007 311 1006 334 q 1007 265 1007 288 q 979 240 1007 240 l 125 240 q 97 265 97 240 z "},"–":{"ha":785,"x_min":95,"x_max":683,"o":"m 95 269 q 95 313 95 290 q 96 357 96 335 q 123 384 97 384 l 654 384 q 682 356 682 384 q 683 312 682 334 q 683 269 683 290 q 654 240 683 240 l 123 240 q 95 269 95 240 z "},"-":{"ha":536,"x_min":70,"x_max":458,"o":"m 70 274 q 70 318 70 296 q 71 362 71 340 q 98 390 71 390 l 429 390 q 457 362 457 390 q 457 318 457 340 q 458 273 458 296 q 430 245 458 245 l 98 245 q 70 274 70 245 z "},"‐":{"ha":536,"x_min":70,"x_max":458,"o":"m 70 274 q 70 318 70 296 q 71 362 71 340 q 98 390 71 390 l 429 390 q 457 362 457 390 q 457 318 457 340 q 458 273 458 296 q 430 245 458 245 l 98 245 q 70 274 70 245 z "},"«":{"ha":699,"x_min":29,"x_max":617,"o":"m 302 92 q 285 98 294 92 q 271 109 277 104 q 200 176 235 142 q 129 243 165 210 q 84 285 106 264 q 39 328 61 306 q 29 348 29 338 q 39 368 29 357 q 90 417 64 393 q 143 464 117 441 q 207 522 175 493 q 270 580 239 551 q 284 592 275 585 q 302 600 294 600 q 317 584 315 600 q 319 559 319 568 l 319 487 q 301 455 319 475 q 261 412 284 435 q 221 372 238 390 q 203 347 203 354 q 221 322 203 340 q 261 281 238 304 q 301 238 284 258 q 319 206 319 218 q 318 168 319 187 q 318 130 318 149 q 316 106 318 121 q 302 92 313 92 m 600 92 q 584 98 592 92 q 570 109 575 104 q 501 173 535 140 q 433 237 467 205 q 384 282 409 259 q 335 328 359 305 q 328 337 331 332 q 324 348 324 342 q 334 368 324 357 q 448 475 387 422 q 565 580 509 528 q 579 592 570 585 q 597 600 589 600 q 612 584 610 600 q 614 559 614 568 l 614 487 q 596 456 614 476 q 556 413 579 436 q 516 373 533 391 q 498 348 498 355 q 513 327 498 344 q 549 289 528 310 q 586 249 569 267 q 609 223 604 231 q 616 197 614 216 q 617 159 617 178 q 616 130 616 140 q 614 107 616 122 q 600 92 612 92 z "},"»":{"ha":699,"x_min":73,"x_max":661,"o":"m 389 92 q 375 107 377 92 q 372 130 372 122 l 372 207 q 390 238 372 218 q 430 281 407 258 q 470 323 453 304 q 488 348 488 341 q 470 372 488 354 q 430 412 452 390 q 389 455 407 435 q 372 487 372 475 l 372 559 q 374 584 372 568 q 388 600 376 600 q 406 592 397 600 q 420 580 415 585 q 538 475 476 528 q 652 368 600 422 q 661 348 661 358 q 651 328 661 338 l 419 110 q 405 98 414 105 q 389 92 397 92 m 90 92 q 76 107 78 92 q 74 130 74 122 q 74 159 74 140 q 75 197 73 178 q 81 223 76 216 q 103 249 86 231 q 141 289 121 268 q 177 327 162 310 q 192 348 192 344 q 175 373 192 355 q 134 413 157 391 q 94 456 111 435 q 77 487 77 476 l 77 559 q 79 584 77 568 q 93 600 81 600 q 111 592 102 600 q 125 580 120 585 q 243 475 182 528 q 356 368 304 422 q 366 348 366 357 q 363 337 366 342 q 355 328 359 332 q 307 282 332 305 q 257 237 281 259 q 189 173 223 205 q 121 109 155 140 q 107 98 115 104 q 90 92 98 92 z "},"‹":{"ha":406,"x_min":28,"x_max":325,"o":"m 308 92 q 292 98 300 92 q 278 109 283 104 q 157 217 218 161 q 39 328 96 272 q 31 337 35 332 q 28 348 28 342 q 38 368 28 357 q 94 421 65 395 q 153 472 123 447 q 214 527 183 499 q 275 582 245 555 q 290 594 281 587 q 307 600 298 600 q 321 585 319 600 q 323 562 323 570 l 323 488 q 317 470 323 479 q 294 445 312 464 q 254 405 275 427 q 218 367 233 384 q 202 348 202 351 q 218 328 202 345 q 255 289 233 311 q 294 248 276 267 q 317 223 313 229 q 324 205 324 214 q 325 168 324 186 q 325 129 325 149 q 322 106 325 121 q 308 92 320 92 z "},"›":{"ha":406,"x_min":73,"x_max":378,"o":"m 90 90 q 75 105 77 90 q 73 127 73 119 q 73 166 73 147 q 73 205 73 186 q 81 224 73 214 q 105 249 86 231 q 147 289 125 267 q 186 327 170 310 q 203 348 203 344 q 186 368 203 351 q 148 406 170 385 q 106 445 125 427 q 82 469 87 463 q 75 488 75 478 q 74 526 75 507 q 74 564 74 545 q 76 587 74 572 q 91 602 79 602 q 107 596 99 602 q 121 585 115 590 q 245 478 182 531 q 367 368 309 425 q 375 358 371 363 q 378 347 378 353 q 375 336 378 341 q 367 327 371 331 q 319 284 344 305 q 271 241 295 263 q 195 174 233 208 q 119 106 157 140 q 105 96 113 102 q 90 90 97 90 z "},"„":{"ha":526,"x_min":56,"x_max":488,"o":"m 258 92 q 220 -20 258 33 q 130 -99 181 -73 q 119 -102 125 -102 q 98 -96 114 -102 q 69 -81 83 -90 q 56 -64 56 -72 q 72 -36 56 -54 q 105 13 89 -17 q 122 83 122 42 q 128 109 122 99 q 151 119 134 118 q 192 122 171 120 q 235 124 214 124 q 254 115 250 124 q 258 92 258 105 m 488 87 q 451 -22 488 30 q 364 -99 414 -73 q 353 -102 359 -102 q 332 -96 347 -102 q 302 -80 316 -90 q 289 -63 289 -71 q 305 -35 289 -54 q 337 12 321 -17 q 353 79 353 41 q 357 107 353 96 q 381 119 361 117 q 423 122 401 120 q 465 124 444 124 q 485 113 482 124 q 488 87 488 101 z "},"“":{"ha":526,"x_min":27,"x_max":482,"o":"m 278 871 q 316 978 278 930 q 405 1050 355 1026 q 416 1053 410 1053 q 439 1047 423 1053 q 468 1032 454 1041 q 482 1014 482 1023 q 465 985 482 1005 q 432 936 448 966 q 415 867 415 907 q 386 833 415 836 l 307 827 q 282 841 286 825 q 278 871 278 856 m 27 873 q 64 979 27 930 q 151 1050 101 1027 q 163 1053 155 1053 q 185 1047 169 1053 q 215 1032 201 1041 q 229 1014 229 1023 q 213 986 229 1005 q 180 938 197 966 q 164 871 164 909 q 159 844 164 854 q 135 833 155 834 l 56 827 q 31 841 35 825 q 27 873 27 857 z "},"”":{"ha":526,"x_min":58,"x_max":490,"o":"m 258 998 q 221 886 258 940 q 133 807 183 833 q 121 804 127 804 q 101 810 116 804 q 72 825 85 816 q 58 842 58 834 q 74 870 58 852 q 105 916 90 888 q 121 984 121 945 q 125 1013 121 1002 q 150 1025 130 1023 l 231 1031 q 253 1022 248 1032 q 258 998 258 1013 m 490 999 q 452 887 490 941 q 363 807 413 833 q 351 804 357 804 q 331 810 346 804 q 302 825 315 817 q 288 842 288 834 q 304 871 288 852 q 337 919 321 890 q 353 986 353 947 q 358 1013 353 1003 q 382 1025 363 1023 q 424 1028 403 1026 q 467 1030 446 1030 q 486 1021 482 1030 q 490 999 490 1013 z "},"‘":{"ha":288,"x_min":33,"x_max":236,"o":"m 33 872 q 71 978 33 930 q 159 1050 109 1026 q 171 1053 163 1053 q 193 1047 177 1053 q 222 1032 208 1041 q 236 1014 236 1023 q 220 986 236 1005 q 187 938 203 968 q 170 867 171 909 q 164 842 170 850 q 141 833 159 834 l 62 827 q 37 841 41 825 q 33 872 33 857 z "},"’":{"ha":288,"x_min":52,"x_max":253,"o":"m 253 998 q 215 887 253 941 q 126 807 176 833 q 115 804 121 804 q 94 810 109 804 q 65 825 79 816 q 52 842 52 834 q 67 870 52 852 q 99 917 83 888 q 115 985 115 945 q 120 1013 115 1002 q 144 1025 125 1023 q 187 1028 165 1026 q 230 1030 209 1030 q 249 1021 245 1030 q 253 998 253 1011 z "},"‚":{"ha":288,"x_min":50,"x_max":252,"o":"m 252 83 q 214 -28 252 25 q 126 -108 176 -82 q 115 -111 121 -111 q 93 -105 109 -111 q 64 -90 77 -99 q 50 -73 50 -81 q 66 -45 50 -63 q 99 2 83 -26 q 115 71 115 31 q 120 98 115 87 q 144 110 124 109 q 186 113 165 111 q 229 115 208 115 q 249 106 245 115 q 252 83 252 96 z "}," ":{"ha":347,"x_min":0,"x_max":0,"o":""}," ":{"ha":347,"x_min":0,"x_max":0,"o":""},"¢":{"ha":481,"x_min":14,"x_max":465,"o":"m 308 -98 q 279 -99 296 -98 q 251 -94 263 -100 q 239 -70 239 -89 q 240 -36 239 -59 q 232 -10 241 -13 q 198 -1 215 -5 q 165 11 182 3 q 49 128 84 50 q 14 292 14 206 l 14 302 q 30 416 14 359 q 80 521 46 473 q 167 597 114 569 q 199 610 182 605 q 232 620 215 615 q 240 635 241 622 q 238 665 239 648 q 242 693 237 681 q 267 705 247 705 q 295 705 279 705 q 322 701 311 706 q 334 677 334 696 l 334 625 q 340 617 334 619 q 401 596 372 608 q 456 561 431 584 q 465 543 465 553 q 454 519 465 536 q 431 487 444 503 q 414 464 418 471 q 405 455 410 459 q 393 450 400 450 q 366 464 381 450 q 339 477 350 477 q 334 469 334 477 q 334 302 334 385 q 334 136 334 219 q 340 127 334 127 q 365 138 353 127 q 389 150 376 150 q 407 138 398 150 q 426 115 412 132 q 451 83 439 99 q 463 58 463 66 q 438 28 463 42 q 384 4 413 14 q 342 -10 355 -6 q 335 -18 335 -12 l 336 -70 q 308 -98 336 -98 m 239 142 l 239 472 q 186 397 201 444 q 172 304 172 350 q 186 215 172 260 q 239 142 201 170 z "},"¤":{"ha":828,"x_min":110,"x_max":722,"o":"m 715 671 q 704 654 715 661 q 681 642 692 647 q 669 630 669 636 q 683 612 669 628 q 709 572 696 597 q 722 516 722 547 q 708 458 722 484 q 680 417 694 433 q 665 398 665 401 q 677 387 665 393 q 702 374 690 382 q 714 356 714 367 q 704 336 714 345 q 680 312 696 330 q 651 294 663 294 q 629 302 644 294 q 602 319 615 311 q 586 327 589 327 q 581 326 584 327 q 505 303 543 311 q 425 296 467 296 q 335 302 385 296 q 248 324 286 309 q 243 326 244 326 q 227 317 239 326 q 202 301 215 309 q 178 293 189 293 q 150 310 165 293 q 125 334 134 327 q 115 354 115 344 q 127 373 115 366 q 151 387 139 380 q 163 398 163 393 q 150 416 163 400 q 123 459 137 433 q 110 516 110 485 q 122 570 110 546 q 148 611 135 595 q 160 629 160 627 q 149 640 160 634 q 125 653 137 646 q 113 671 113 661 q 117 682 113 677 q 123 690 120 686 q 148 715 132 697 q 178 732 165 732 q 199 725 186 732 q 223 709 212 717 q 237 702 235 702 l 241 702 q 289 719 257 711 q 355 730 321 726 q 408 734 389 734 q 499 727 459 734 q 586 702 538 719 q 588 702 587 702 q 589 701 589 701 q 617 716 597 701 q 650 732 637 732 q 669 723 659 732 q 695 699 675 716 q 715 671 715 682 m 214 515 q 235 459 214 482 q 289 421 256 436 q 356 399 321 406 q 415 392 390 392 q 475 399 441 392 q 540 421 509 406 q 591 460 571 436 q 612 517 612 484 q 578 588 612 562 q 499 626 545 614 q 418 637 454 637 q 357 630 391 637 q 290 609 322 624 q 235 572 257 595 q 214 515 214 549 z "},"$":{"ha":597,"x_min":21,"x_max":586,"o":"m 307 -98 q 278 -98 294 -98 q 250 -94 262 -99 q 237 -70 237 -88 q 238 -41 237 -56 q 238 -13 238 -27 q 231 -4 238 -6 q 208 2 220 -1 q 183 8 195 5 q 105 40 147 20 q 33 85 62 61 q 21 106 21 95 q 32 132 21 111 q 55 175 43 153 q 71 204 66 197 q 79 216 74 210 q 93 222 85 222 q 104 219 99 222 q 115 212 110 216 q 149 190 126 204 q 195 163 172 175 q 232 151 219 151 q 239 159 239 151 q 239 317 239 238 q 239 475 239 396 q 233 484 239 481 q 102 598 145 532 q 58 766 58 665 q 93 916 58 845 q 201 1022 127 987 q 238 1036 220 1031 q 277 1045 257 1041 q 286 1062 286 1047 q 283 1094 286 1076 q 287 1126 281 1112 q 312 1139 292 1139 q 341 1140 325 1139 q 370 1136 357 1141 q 382 1112 382 1131 q 381 1083 382 1097 q 381 1054 381 1068 q 389 1045 381 1047 q 412 1042 400 1043 q 435 1037 423 1040 q 508 1010 469 1028 q 574 969 547 992 q 586 949 586 960 q 576 923 586 945 q 556 880 567 901 q 542 851 546 858 q 533 839 538 844 q 519 833 528 833 q 486 847 511 833 q 432 874 460 861 q 386 888 404 888 q 380 880 380 888 q 379 741 380 810 q 379 602 379 671 l 383 597 q 532 480 484 551 q 580 298 580 410 q 544 133 580 212 q 427 16 509 54 q 385 1 406 6 q 342 -8 364 -4 q 333 -24 332 -10 q 335 -55 334 -37 q 332 -85 337 -72 q 307 -98 327 -98 m 284 659 l 284 882 q 240 836 253 867 q 227 771 227 804 q 242 708 227 736 q 284 659 258 680 m 334 427 q 334 289 334 358 q 334 151 334 220 q 393 204 375 168 q 410 281 410 240 q 334 427 410 372 z "},"€":{"ha":642,"x_min":-51,"x_max":692,"o":"m -51 659 q -38 685 -51 680 q -6 688 -24 690 q 26 685 12 686 q 43 694 41 684 q 59 749 51 722 q 77 803 66 776 q 216 984 125 915 q 432 1054 307 1054 q 554 1035 491 1054 q 665 980 618 1016 q 677 960 677 970 q 667 929 677 955 q 645 878 656 904 q 630 843 633 851 q 622 828 627 836 q 607 821 616 821 q 594 824 600 821 q 583 831 588 828 q 512 872 548 857 q 432 887 476 887 q 339 858 380 887 q 270 785 298 829 q 225 698 241 742 q 224 693 224 696 q 233 687 224 687 l 357 687 q 385 659 385 687 l 385 580 q 357 552 385 552 l 205 552 q 196 540 196 552 q 196 522 196 528 q 196 495 196 515 q 205 475 196 475 l 357 475 q 385 448 385 475 l 385 368 q 357 340 385 340 l 235 340 q 226 334 226 340 q 227 330 226 332 q 309 206 255 256 q 446 156 362 156 q 595 205 529 156 q 607 214 600 210 q 621 218 614 218 q 636 211 631 218 q 645 195 642 203 q 660 163 649 188 q 682 116 671 139 q 692 87 692 93 q 683 69 692 78 q 615 25 656 43 q 529 -2 574 7 q 448 -11 485 -11 l 439 -11 q 220 61 311 -6 q 79 245 129 127 q 63 289 69 267 q 49 334 56 311 q 31 342 46 343 q -3 339 16 341 q -35 343 -21 338 q -49 369 -49 348 l -49 448 q -21 475 -49 475 q 7 474 -14 475 q 27 484 27 473 q 26 515 27 500 q 26 545 26 530 q 18 552 26 552 q -11 551 5 552 q -38 556 -26 551 q -50 580 -50 562 q -51 619 -50 600 q -51 659 -51 639 z "},"ƒ":{"ha":530,"x_min":-44,"x_max":550,"o":"m 171 618 l 171 741 q 262 1007 171 911 q 520 1116 353 1102 l 524 1116 q 549 1088 550 1116 l 546 977 q 539 957 545 962 q 519 949 532 951 q 487 943 503 946 q 456 934 471 939 q 362 854 388 908 q 337 731 337 800 q 337 674 337 703 q 336 618 336 646 q 345 610 336 610 l 492 610 q 520 582 520 610 l 520 478 q 492 450 520 450 l 345 450 q 336 442 336 450 q 336 294 336 368 q 337 144 336 219 q 253 -132 338 -40 q -16 -237 168 -223 l -19 -237 q -44 -208 -44 -237 q -44 -153 -44 -181 q -41 -98 -43 -124 q -34 -78 -39 -83 q -15 -71 -28 -73 q 18 -64 2 -67 q 50 -55 33 -61 q 144 26 118 -29 q 170 149 170 81 q 171 296 170 222 q 172 442 172 369 q 156 452 172 452 q 121 450 141 452 q 86 452 101 448 q 71 478 71 457 l 71 582 q 98 610 71 610 l 163 610 q 171 618 171 610 z "},"£":{"ha":648,"x_min":17,"x_max":652,"o":"m 294 581 q 302 573 294 573 l 428 573 q 456 545 456 573 q 455 490 456 517 q 455 434 455 462 q 427 406 455 406 l 302 406 q 294 398 294 406 l 294 282 q 291 230 294 255 q 279 180 288 205 q 277 173 277 176 q 287 168 277 168 l 461 168 q 498 183 488 168 q 509 224 509 199 q 509 260 509 241 q 535 280 510 279 l 623 281 q 652 254 652 281 q 652 213 652 233 q 652 172 652 193 q 613 48 652 97 q 494 0 573 0 l 45 0 q 17 28 17 0 q 17 85 17 56 q 19 142 18 115 q 45 168 20 168 l 77 168 q 117 190 106 168 q 129 242 127 213 q 130 292 130 272 l 131 398 q 120 407 131 408 q 94 406 109 407 q 68 410 79 405 q 57 434 57 415 l 57 545 q 68 570 57 565 q 94 573 79 574 q 120 572 109 572 q 131 581 131 572 q 130 682 131 631 q 130 783 129 733 q 166 912 131 858 q 260 996 201 966 q 391 1025 319 1025 q 529 994 466 1025 q 626 894 591 963 q 629 881 629 887 q 618 861 629 870 q 543 808 582 833 q 524 800 532 800 q 499 815 512 800 q 464 844 486 829 q 401 859 441 859 q 316 818 338 859 q 294 723 294 777 l 294 581 z "},"¥":{"ha":914,"x_min":27,"x_max":886,"o":"m 216 333 q 216 373 216 353 q 217 413 216 393 q 244 440 218 440 l 357 440 q 366 446 366 440 q 345 487 366 449 q 288 583 323 525 q 214 707 254 641 q 137 835 174 774 q 72 941 99 897 q 37 1000 45 986 q 30 1011 33 1005 q 27 1024 27 1017 q 39 1040 27 1037 q 60 1042 52 1042 l 203 1042 q 227 1029 218 1042 q 257 979 242 1004 q 286 929 271 954 q 370 785 328 857 q 453 640 411 712 q 460 633 456 633 q 467 640 464 633 q 549 784 509 712 q 631 928 589 857 q 659 979 645 954 q 688 1029 673 1004 q 713 1042 696 1042 l 853 1042 q 874 1040 863 1042 q 886 1024 886 1037 q 883 1011 886 1017 q 877 1000 880 1005 q 841 941 869 986 q 775 835 813 897 q 697 708 738 774 q 622 583 657 642 q 565 487 587 525 q 543 446 543 450 q 547 441 543 442 q 553 440 551 440 l 685 440 q 713 412 713 440 l 713 334 q 685 305 713 305 l 545 305 q 537 297 537 305 l 537 245 q 546 237 537 237 l 686 237 q 714 210 714 237 q 714 170 714 190 q 715 130 715 149 q 687 101 715 101 l 547 101 q 538 93 538 101 q 538 60 538 77 q 538 28 538 44 q 511 0 538 0 l 399 0 q 371 28 371 0 q 371 60 371 44 q 372 93 372 77 q 363 101 372 101 l 243 101 q 216 130 216 101 l 216 210 q 244 237 216 237 l 363 237 q 372 245 372 237 l 372 297 q 364 305 372 305 l 244 305 q 216 333 216 305 z "},"+":{"ha":561,"x_min":71,"x_max":482,"o":"m 71 291 q 71 335 71 313 q 72 380 71 357 q 99 407 73 407 l 197 407 q 205 416 205 407 l 205 569 q 233 597 205 597 l 320 597 q 348 569 348 597 l 348 416 q 357 407 348 407 l 454 407 q 481 379 481 407 q 482 335 481 357 q 482 292 482 313 q 454 263 482 263 l 357 263 q 349 254 349 263 q 349 178 349 216 q 349 102 350 140 q 321 74 349 74 l 232 74 q 204 102 204 74 l 204 205 q 205 230 204 218 q 205 254 205 242 q 196 263 205 263 l 99 263 q 71 291 71 263 z "},"­":{"ha":561,"x_min":75,"x_max":486,"o":"m 75 254 q 76 299 75 277 q 76 343 76 321 q 104 371 76 371 l 458 371 q 486 343 486 371 q 486 299 486 321 q 486 254 486 277 q 458 226 486 226 l 104 226 q 75 254 75 226 z "},"−":{"ha":561,"x_min":75,"x_max":486,"o":"m 75 254 q 76 299 75 277 q 76 343 76 321 q 104 371 76 371 l 458 371 q 486 343 486 371 q 486 299 486 321 q 486 254 486 277 q 458 226 486 226 l 104 226 q 75 254 75 226 z "},"×":{"ha":561,"x_min":93,"x_max":505,"o":"m 207 499 q 230 482 216 499 q 259 444 244 465 q 286 405 274 422 q 302 388 297 388 q 317 404 307 388 q 342 441 328 420 q 369 479 355 463 q 391 495 382 495 q 403 491 397 495 q 412 484 408 488 q 453 440 433 463 q 492 395 473 418 q 500 377 500 386 q 489 353 500 370 q 463 315 477 336 q 437 278 448 294 q 426 257 426 262 q 438 236 426 253 q 466 198 450 219 q 493 158 481 176 q 505 132 505 140 q 496 113 505 123 q 412 24 456 68 q 402 17 408 20 q 391 13 397 13 q 368 29 382 13 q 338 66 353 45 q 312 104 323 87 q 296 120 300 120 q 281 104 292 120 q 257 68 271 88 q 231 32 244 47 q 208 16 218 16 q 196 19 201 16 q 187 27 191 23 q 145 70 166 48 q 104 113 125 91 q 96 131 96 123 q 108 156 96 138 q 136 195 120 174 q 164 233 152 216 q 176 254 176 250 q 164 276 176 260 q 135 312 151 292 q 105 350 118 332 q 93 379 93 368 q 101 397 93 388 q 143 443 121 420 q 186 488 165 466 q 195 495 190 492 q 207 499 201 499 z "},"÷":{"ha":568,"x_min":64,"x_max":499,"o":"m 204 590 q 227 651 204 623 q 286 679 250 679 q 343 652 320 679 q 367 592 367 626 q 343 530 367 559 q 283 500 319 500 q 226 529 248 500 q 204 590 204 557 m 64 326 q 65 370 64 348 q 65 414 65 393 q 93 442 65 442 l 471 442 q 498 414 498 442 q 499 370 498 392 q 499 326 499 348 q 471 298 499 298 l 93 298 q 64 326 64 298 m 203 158 q 228 219 203 191 q 286 246 252 246 q 344 218 321 246 q 368 157 368 190 q 344 96 368 123 q 285 68 320 68 q 226 96 248 68 q 203 158 203 124 z "},"=":{"ha":606,"x_min":13,"x_max":593,"o":"m 15 547 q 43 574 15 574 l 563 574 q 591 547 591 574 l 591 457 q 563 429 591 429 l 43 429 q 15 457 15 429 l 15 547 m 13 173 q 13 220 13 197 q 14 266 14 243 q 41 293 14 293 l 564 293 q 592 266 592 293 q 592 220 592 243 q 593 173 593 197 q 565 148 593 148 l 41 148 q 13 173 13 148 z "},"≠":{"ha":612,"x_min":17,"x_max":598,"o":"m 515 769 q 527 766 522 769 q 536 758 532 762 q 564 733 544 750 q 583 702 583 716 q 572 676 583 694 q 546 638 560 659 q 519 601 531 617 q 508 580 508 585 q 517 574 508 574 l 568 574 q 596 547 596 574 l 596 457 q 568 429 596 429 l 408 429 q 400 426 402 429 l 318 307 q 315 298 315 302 q 318 294 315 295 q 325 293 322 293 l 570 293 q 597 266 597 293 q 598 220 597 243 q 598 173 598 197 q 570 148 598 148 l 213 148 l 206 144 q 158 73 182 109 q 109 1 134 37 q 100 -9 106 -5 q 87 -14 95 -14 q 55 5 75 -14 q 27 33 35 25 q 17 52 17 43 q 31 81 17 62 q 57 119 44 100 q 71 142 71 137 q 57 149 71 151 q 31 149 44 146 q 18 169 18 151 l 19 266 q 47 293 19 293 l 173 293 q 178 296 176 293 l 181 299 q 223 357 203 328 q 262 416 243 387 q 266 425 266 422 q 262 429 266 428 q 256 429 258 429 l 48 429 q 20 457 20 429 l 20 547 q 48 574 20 574 l 367 574 q 374 578 371 574 q 392 603 384 589 q 409 629 401 616 q 452 692 431 661 q 494 754 473 723 q 503 764 497 760 q 515 769 509 769 z "},">":{"ha":494,"x_min":9,"x_max":494,"o":"m 9 35 q 9 92 9 63 q 11 149 9 121 q 20 170 12 161 q 46 195 26 176 q 93 238 66 214 q 145 287 120 262 q 188 327 171 311 q 205 346 205 344 q 188 365 205 348 q 145 406 171 382 q 93 456 119 431 q 46 499 66 481 q 21 523 26 518 q 12 543 12 531 l 12 654 q 14 676 12 663 q 29 690 16 690 q 44 686 37 690 q 56 677 51 682 q 186 584 122 631 q 315 488 251 536 q 398 429 356 458 q 479 368 439 399 q 489 359 484 364 q 494 346 494 353 q 489 333 494 338 q 479 323 484 328 q 377 247 429 284 q 273 172 324 210 q 164 91 218 132 q 53 12 109 50 q 40 4 47 7 q 26 0 33 0 q 11 13 14 0 q 9 35 9 26 z "},"<":{"ha":494,"x_min":2,"x_max":486,"o":"m 483 542 q 474 522 483 530 q 448 496 469 515 q 401 453 428 477 q 350 404 375 428 q 308 363 324 380 q 291 345 291 347 q 308 326 291 342 q 350 286 325 310 q 402 237 376 262 q 450 194 429 213 q 475 169 470 175 q 484 149 484 160 q 486 92 486 121 q 486 35 486 63 q 484 13 486 26 q 469 0 481 0 q 455 4 462 0 q 442 12 448 7 q 325 96 382 52 q 208 181 267 139 q 112 251 161 216 q 17 322 63 286 q 7 332 12 326 q 2 345 2 337 q 7 357 2 352 q 17 367 12 363 q 112 438 63 404 q 208 507 160 472 q 322 593 265 550 q 439 677 380 637 q 451 686 444 682 q 466 690 458 690 q 481 676 479 690 q 483 654 483 663 l 483 542 z "},"≥":{"ha":473,"x_min":-3,"x_max":483,"o":"m -3 985 q -1 1007 -3 994 q 14 1021 1 1021 q 28 1017 21 1021 q 40 1009 35 1013 q 159 925 100 968 q 275 840 217 882 q 372 770 323 804 q 467 699 421 735 q 478 689 473 694 q 483 676 483 684 q 478 663 483 669 q 467 654 473 658 q 373 583 421 617 q 277 513 324 549 q 161 427 219 471 q 45 342 103 384 q 33 334 39 338 q 18 330 26 330 q 3 343 6 330 q 1 365 1 356 l 1 478 q 11 499 1 490 q 40 524 18 505 q 92 565 62 542 q 149 611 121 589 q 195 650 176 634 q 214 669 214 666 q 195 688 214 671 q 148 730 176 705 q 90 781 119 755 q 37 826 60 806 q 8 852 15 846 q -1 873 -1 861 q -3 929 -3 901 q -3 985 -3 958 m -3 98 q -3 146 -3 122 q -3 193 -3 170 q 25 220 -3 220 l 450 220 q 478 193 478 220 q 478 146 478 170 q 479 98 479 122 q 451 73 479 73 l 24 73 q -3 98 -3 73 z "},"≤":{"ha":473,"x_min":-9,"x_max":478,"o":"m 474 365 q 471 343 474 356 q 456 330 469 330 q 443 334 450 330 q 430 342 435 338 l 7 654 q -3 664 2 658 q -9 676 -9 669 q -3 689 -9 684 q 7 699 2 694 q 96 765 51 732 q 186 829 141 797 q 310 920 248 875 q 435 1009 372 966 q 447 1017 440 1013 q 461 1021 454 1021 q 476 1007 474 1021 q 478 985 478 994 q 478 929 478 958 q 476 872 478 900 q 468 852 475 861 q 441 827 462 846 q 394 783 421 808 q 342 733 368 758 q 300 692 317 709 q 283 673 283 675 q 299 655 283 671 q 341 615 316 638 q 393 567 367 591 q 439 524 419 543 q 465 499 460 505 q 474 479 474 490 l 474 365 m 18 102 q 19 147 18 124 q 19 192 19 170 q 47 220 19 220 l 449 220 q 477 193 477 220 l 477 102 q 450 73 477 73 l 46 73 q 18 102 18 73 z "},"±":{"ha":568,"x_min":81,"x_max":495,"o":"m 216 647 q 216 724 216 685 q 216 800 216 762 q 243 828 216 828 l 333 828 q 361 800 361 828 q 360 724 361 762 q 360 647 360 685 q 368 639 360 639 l 465 639 q 494 610 494 639 q 493 566 494 588 q 493 522 493 544 q 465 494 493 494 l 368 494 q 360 486 360 494 l 360 334 q 332 306 360 306 l 244 306 q 216 334 216 306 l 216 486 q 208 494 216 494 l 111 494 q 83 522 83 494 q 82 566 83 544 q 82 611 82 589 q 110 639 82 639 l 208 639 q 216 647 216 639 m 81 136 q 81 181 81 158 q 81 226 81 203 q 109 254 81 254 l 467 254 q 494 226 494 254 q 495 181 494 203 q 495 136 495 158 q 467 107 495 107 l 109 107 q 81 136 81 107 z "},"≈":{"ha":701,"x_min":22,"x_max":679,"o":"m 503 393 q 410 410 448 393 q 340 451 371 428 q 279 492 309 475 q 213 510 250 510 q 157 482 175 510 q 132 422 139 454 q 122 400 129 408 q 100 393 116 393 q 77 393 89 393 q 53 394 64 393 q 27 419 27 395 q 51 526 27 476 q 119 607 75 576 q 223 637 163 637 q 307 618 270 637 q 375 575 344 600 q 435 532 406 551 q 494 513 464 513 q 552 543 537 513 q 572 607 567 572 q 581 628 574 621 q 602 635 587 635 l 652 635 q 675 625 671 635 q 679 601 679 615 q 659 502 679 549 q 599 423 638 454 q 503 393 560 393 m 503 113 q 408 131 448 113 q 338 172 369 149 q 277 213 307 195 q 211 231 247 231 q 154 202 173 231 q 127 142 135 174 q 118 120 125 127 q 96 113 112 113 q 66 112 83 113 q 35 116 48 111 q 22 139 22 121 q 47 247 22 197 q 119 327 73 296 q 224 357 165 357 q 306 338 270 357 q 373 295 342 319 q 433 252 404 271 q 493 233 462 233 q 551 262 536 233 q 571 327 566 292 q 579 348 573 340 q 601 355 586 355 q 626 355 613 355 q 650 355 638 355 q 673 343 670 354 q 677 316 677 332 q 656 218 677 265 q 597 142 636 172 q 503 113 559 113 z "},"~":{"ha":676,"x_min":24,"x_max":656,"o":"m 656 822 q 636 721 656 769 q 577 643 616 673 q 479 613 538 613 q 392 631 429 613 q 325 671 355 648 q 268 712 296 694 q 205 730 239 730 q 151 702 168 730 q 127 643 134 675 q 119 621 125 629 q 97 614 113 614 q 67 613 85 614 q 37 616 50 612 q 24 639 24 621 q 46 745 24 695 q 110 826 68 795 q 214 857 153 857 q 294 839 259 857 q 359 795 330 820 q 417 752 389 770 q 475 733 445 733 q 532 764 517 733 q 551 828 546 795 q 559 849 553 842 q 581 856 566 856 q 605 856 593 856 q 630 855 618 856 q 652 846 648 854 q 656 822 656 837 z "},"¬":{"ha":639,"x_min":49,"x_max":591,"o":"m 49 309 q 49 364 49 336 q 50 419 50 392 q 77 447 50 447 l 562 447 q 589 419 589 447 q 590 297 589 358 q 591 175 591 236 q 563 146 591 146 l 453 146 q 425 174 425 146 l 425 272 q 416 281 425 281 l 77 281 q 49 309 49 281 z "},"∞":{"ha":861,"x_min":43,"x_max":818,"o":"m 631 304 q 530 317 577 304 q 438 359 484 330 q 433 361 434 361 q 428 359 430 361 q 336 317 385 330 q 235 304 287 304 q 131 326 185 304 q 54 398 76 349 q 46 418 50 408 q 43 439 43 429 q 75 517 43 486 q 150 563 106 548 q 234 578 195 578 q 335 566 288 578 q 428 524 382 553 q 433 522 432 522 q 438 524 436 522 q 531 566 481 553 q 631 578 580 578 q 713 564 670 578 q 787 519 757 549 q 818 443 818 489 q 788 365 818 395 q 715 319 758 334 q 631 304 671 304 m 388 439 q 370 465 388 455 q 325 480 351 475 q 275 488 299 486 q 240 490 252 490 q 200 488 224 490 q 157 475 176 485 q 138 441 138 465 q 157 407 138 418 q 201 393 176 396 q 242 390 226 390 q 276 392 252 390 q 326 399 300 394 q 370 414 351 405 q 388 439 388 424 m 478 439 q 496 415 478 425 q 541 400 515 406 q 590 392 566 395 q 624 390 614 390 q 665 393 641 390 q 708 407 689 396 q 727 441 727 418 q 707 475 727 465 q 662 488 687 486 q 620 490 636 490 q 586 488 609 490 q 538 480 563 486 q 496 465 513 475 q 478 439 478 454 z "},"∫":{"ha":330,"x_min":-31,"x_max":326,"o":"m 284 937 l 275 937 q 241 921 252 937 q 225 881 229 905 q 222 832 222 857 q 221 793 222 808 q 219 616 218 705 q 220 439 220 528 q 221 190 220 315 q 222 -60 222 65 q 212 -146 222 -110 q 175 -201 203 -182 q 90 -220 146 -220 q 76 -219 83 -220 q 61 -218 68 -218 l -2 -218 q -30 -190 -30 -218 q -31 -141 -30 -168 q -28 -93 -31 -113 q -7 -72 -26 -72 l 22 -72 q 57 -55 45 -72 q 72 -14 68 -39 q 76 35 76 10 q 77 75 76 60 q 79 284 79 178 q 78 494 78 390 q 77 703 78 598 q 77 912 76 808 q 84 1002 77 963 q 119 1063 92 1041 q 205 1085 146 1085 q 220 1084 213 1085 q 235 1084 228 1084 l 298 1084 q 326 1055 326 1084 l 324 958 q 310 938 323 939 q 284 937 297 937 z "},"∏":{"ha":545,"x_min":55,"x_max":458,"o":"m 55 1061 q 83 1090 55 1090 l 431 1090 q 458 1061 458 1090 q 456 774 458 918 q 454 486 454 630 q 456 198 454 342 q 458 -90 458 54 q 431 -118 458 -118 l 343 -118 q 315 -90 315 -118 q 315 227 315 68 q 314 544 314 386 q 314 740 314 642 q 315 937 315 838 q 307 945 315 945 l 208 945 q 199 936 199 945 q 200 721 199 829 q 201 506 201 614 q 200 208 201 357 q 199 -90 199 59 q 171 -118 199 -118 l 83 -118 q 55 -90 55 -118 q 56 3 55 -43 q 58 96 57 50 q 60 291 59 193 q 60 486 60 389 q 60 681 60 583 q 58 876 59 779 q 56 968 57 922 q 55 1061 55 1015 z "},"∑":{"ha":496,"x_min":1,"x_max":494,"o":"m 131 479 l 131 483 q 112 575 123 529 q 91 668 101 622 q 48 862 70 765 q 3 1056 26 959 q 2 1067 2 1064 q 11 1085 2 1081 q 31 1090 20 1090 l 465 1090 q 485 1086 476 1090 q 494 1068 494 1082 q 488 1041 494 1064 q 475 994 481 1017 q 466 964 468 970 q 439 945 459 945 l 196 945 q 188 938 188 945 l 188 935 q 235 711 212 823 q 281 486 259 599 q 282 481 282 484 q 281 475 282 477 q 234 251 259 363 q 188 27 210 140 l 188 24 q 196 17 188 17 l 439 17 q 466 -3 459 17 q 475 -33 469 -10 q 488 -79 482 -56 q 494 -106 494 -101 q 486 -124 494 -119 q 465 -128 477 -128 l 30 -128 q 10 -123 18 -128 q 1 -106 1 -119 q 3 -94 1 -102 q 52 118 27 12 q 99 331 76 224 l 123 441 l 131 479 z "},"√":{"ha":1320,"x_min":136,"x_max":1140,"o":"m 592 204 q 599 209 595 204 q 756 444 679 326 q 911 680 833 563 q 975 777 943 728 q 1041 871 1007 825 q 1064 884 1050 884 q 1091 884 1073 884 q 1124 882 1109 885 q 1140 866 1140 878 q 1137 853 1140 859 q 1131 841 1134 846 q 988 615 1060 728 q 846 389 916 502 q 772 269 808 329 q 697 148 735 208 q 656 81 677 115 q 614 15 636 47 q 605 2 610 9 q 591 -4 599 -4 q 577 2 583 -4 q 568 14 572 9 q 538 58 553 36 q 509 102 524 81 q 443 203 476 153 q 377 304 410 254 q 344 355 360 330 q 311 406 328 380 q 288 409 309 408 q 241 410 268 410 q 192 409 215 410 q 163 409 170 409 q 136 437 136 409 q 138 475 136 455 q 165 496 140 496 l 361 496 q 384 484 376 496 q 411 446 389 477 q 463 375 433 416 q 521 295 492 334 q 570 230 550 256 q 592 204 590 204 z "},"%":{"ha":1022,"x_min":39,"x_max":986,"o":"m 858 916 q 879 913 866 916 q 891 898 891 911 q 887 884 891 891 q 880 872 884 878 q 712 622 796 747 q 544 372 627 497 q 460 246 503 309 q 376 121 418 183 q 339 65 357 94 q 301 10 321 37 q 278 -2 292 -2 l 186 -1 q 166 2 178 -1 q 153 18 153 5 q 157 32 153 25 q 164 43 161 38 q 221 126 192 85 q 277 209 250 168 q 380 361 330 285 q 481 514 431 438 q 565 640 524 577 q 648 765 607 703 q 695 835 672 800 q 742 903 718 870 q 765 916 751 916 l 858 916 m 244 401 q 122 440 167 401 q 58 540 77 479 q 39 668 39 602 q 59 789 39 733 q 123 880 79 846 q 241 915 168 915 q 361 878 315 915 q 428 783 407 842 q 450 658 450 724 q 429 534 450 593 q 363 438 408 475 q 244 401 318 401 m 178 658 q 182 603 178 636 q 200 545 186 570 q 244 519 214 519 q 288 545 275 519 q 305 603 302 570 q 308 658 308 636 q 305 713 308 681 q 288 771 302 746 q 242 796 275 796 q 196 771 210 796 q 181 713 183 746 q 178 658 178 681 m 793 -31 q 668 6 716 -31 q 597 102 620 43 q 575 231 575 162 q 598 355 575 297 q 667 448 621 412 q 787 484 714 484 q 906 444 863 484 q 968 344 949 405 q 986 218 986 283 q 968 98 986 155 q 909 5 951 41 q 793 -31 867 -31 m 714 227 q 718 172 714 205 q 736 113 722 139 q 781 87 751 87 q 826 113 813 87 q 842 172 839 139 q 844 227 844 205 q 841 282 844 250 q 824 340 838 315 q 779 365 810 365 q 733 340 746 365 q 717 283 720 315 q 714 227 714 250 z "},"‰":{"ha":1522,"x_min":42,"x_max":1483,"o":"m 875 916 q 896 913 883 916 q 909 898 909 911 q 905 884 909 891 q 898 872 901 878 q 841 788 870 830 q 783 705 812 747 q 680 551 732 628 q 575 397 627 474 q 490 272 532 335 q 403 147 447 210 q 355 78 379 113 q 305 9 331 43 q 283 -2 297 -2 l 192 -1 q 171 2 184 -1 q 158 17 158 5 q 162 31 158 24 q 170 43 166 38 q 343 291 257 167 q 514 541 430 416 q 598 667 556 604 q 683 792 641 730 q 720 848 702 820 q 758 903 739 876 q 781 916 768 916 l 875 916 m 252 401 q 129 439 175 401 q 62 539 83 478 q 42 668 42 600 q 62 790 42 734 q 127 881 83 846 q 245 915 172 915 q 369 878 321 915 q 439 782 416 841 q 461 654 461 722 q 439 531 461 589 q 372 437 418 473 q 252 401 326 401 m 182 658 q 187 602 182 635 q 206 544 191 569 q 252 519 221 519 q 297 542 283 519 q 315 596 311 566 q 319 649 319 627 q 316 709 319 674 q 299 770 313 743 q 249 796 284 796 q 201 772 215 796 q 185 715 187 747 q 182 658 182 682 m 808 -31 q 685 4 734 -31 q 613 96 637 39 q 589 221 589 153 q 612 350 589 290 q 683 447 635 410 q 807 484 731 484 q 927 445 883 484 q 990 347 971 407 q 1009 221 1009 287 q 990 98 1009 156 q 926 5 970 41 q 808 -31 882 -31 m 1289 -31 q 1161 6 1211 -31 q 1087 104 1112 43 q 1063 235 1063 165 q 1087 358 1063 301 q 1158 449 1111 414 q 1278 484 1206 484 q 1401 443 1356 484 q 1465 340 1446 403 q 1483 211 1483 278 q 1465 92 1483 147 q 1404 3 1447 37 q 1289 -31 1361 -31 m 730 227 q 733 171 730 204 q 752 113 737 138 q 798 87 766 87 q 845 113 831 87 q 863 171 859 138 q 867 227 867 204 q 863 283 867 251 q 846 340 860 316 q 798 365 831 365 q 750 340 765 365 q 733 284 736 316 q 730 227 730 252 m 1203 234 q 1210 175 1203 210 q 1233 113 1216 140 q 1282 87 1250 87 q 1324 106 1312 87 q 1339 151 1336 125 q 1341 199 1341 178 q 1341 245 1341 217 q 1337 300 1341 273 q 1319 346 1332 328 q 1279 365 1305 365 q 1229 343 1245 365 q 1208 290 1213 321 q 1203 234 1203 260 z "},"◊":{"ha":560,"x_min":58,"x_max":503,"o":"m 58 518 q 71 553 58 520 q 105 637 84 585 q 150 746 125 688 q 196 858 174 804 q 234 950 218 912 q 254 998 250 989 q 264 1017 258 1004 q 280 1029 271 1029 q 296 1017 290 1029 q 306 998 303 1004 q 327 950 311 989 q 365 858 342 912 q 411 746 387 804 q 456 636 435 688 q 490 553 477 585 q 503 518 503 520 q 490 484 503 516 q 456 400 477 451 q 412 291 435 349 q 366 180 388 233 q 327 88 343 126 q 306 39 311 50 q 296 21 303 33 q 280 9 290 9 q 264 21 271 9 q 254 39 258 33 q 234 87 250 49 q 196 179 218 125 q 150 291 174 233 q 105 400 126 349 q 71 484 84 452 q 58 518 58 517 m 280 837 q 218 678 249 758 q 155 518 186 598 q 218 358 186 438 q 280 199 249 279 q 344 359 312 279 q 408 518 376 438 q 344 677 376 598 q 280 837 312 757 z "},"@":{"ha":863,"x_min":14,"x_max":848,"o":"m 432 -184 q 245 -146 324 -184 q 115 -39 167 -107 q 39 117 64 29 q 14 304 14 205 q 38 497 14 403 q 111 667 61 591 q 241 788 161 743 q 435 833 321 833 q 662 769 570 833 q 801 600 754 705 q 848 368 848 494 q 837 268 848 321 q 803 168 827 215 q 740 92 779 121 q 643 62 701 62 q 563 83 597 62 q 505 141 529 104 q 497 149 501 149 q 484 135 494 149 q 457 104 474 121 q 417 73 440 87 q 366 60 394 60 q 294 89 322 60 q 249 161 265 117 q 226 249 233 204 q 219 327 219 294 q 227 409 219 365 q 252 493 234 453 q 301 558 270 532 q 380 583 333 583 q 433 564 413 583 q 463 525 452 545 q 480 506 474 506 q 487 520 487 506 q 492 548 488 534 q 515 562 496 562 l 589 562 q 616 533 616 562 q 615 395 616 464 q 614 257 614 326 q 619 215 614 239 q 649 191 624 191 q 690 213 674 191 q 713 269 705 236 q 725 334 722 302 q 728 383 728 366 q 697 548 728 471 q 603 675 666 626 q 443 724 540 724 q 297 685 357 724 q 202 584 238 647 q 150 447 165 522 q 134 299 134 372 q 166 113 134 198 q 268 -24 198 27 q 449 -76 337 -76 q 552 -60 505 -76 q 646 -16 600 -44 q 656 -11 651 -13 q 665 -9 661 -9 q 686 -23 674 -9 q 708 -53 699 -37 q 717 -75 717 -68 q 707 -94 717 -85 q 577 -162 654 -140 q 432 -184 500 -184 m 416 174 q 450 190 437 174 q 470 229 463 207 q 479 267 477 251 q 480 322 481 294 q 480 377 480 350 q 472 416 480 394 q 450 454 465 437 q 415 470 435 470 q 382 453 394 470 q 365 412 370 436 q 359 363 360 387 q 358 325 358 339 q 359 286 358 311 q 366 235 361 260 q 383 191 371 209 q 416 174 395 174 z "},"&":{"ha":956,"x_min":47,"x_max":912,"o":"m 739 262 q 819 154 779 208 q 899 45 860 100 q 908 32 903 39 q 912 17 912 24 q 899 2 912 5 q 878 0 886 0 l 752 0 q 730 11 739 0 q 716 30 726 15 q 693 62 705 45 q 670 93 680 80 q 658 105 661 105 q 651 100 656 105 q 531 13 600 41 q 384 -16 463 -16 q 218 20 295 -16 q 94 124 141 56 q 47 287 47 192 l 47 290 q 98 457 50 383 q 226 574 146 530 q 257 590 241 583 q 288 602 272 596 q 295 610 295 605 q 287 625 295 614 q 276 639 279 635 q 221 738 245 682 q 197 848 197 795 q 231 974 197 920 q 322 1057 265 1027 q 448 1087 379 1087 q 591 1059 520 1087 q 709 976 662 1031 q 718 959 718 966 q 705 933 718 951 q 677 896 692 914 q 657 870 663 878 q 648 861 653 865 q 636 856 643 856 q 603 877 626 856 q 546 920 579 899 q 473 941 513 941 q 398 911 428 941 q 369 836 369 881 q 384 771 369 806 q 415 712 398 736 q 460 650 437 681 q 505 587 483 619 q 567 501 536 545 q 629 415 597 458 q 636 409 633 409 q 641 412 640 409 q 643 417 642 415 q 668 484 656 450 q 692 550 680 517 q 702 578 698 564 q 713 605 707 592 q 739 623 721 623 l 830 623 q 850 620 841 623 q 859 603 859 616 q 848 568 859 599 q 821 491 838 536 q 787 400 804 446 q 755 317 769 353 q 738 270 742 281 l 739 262 m 570 230 q 477 359 524 294 q 385 488 431 423 q 301 458 339 484 q 241 392 264 432 q 218 307 218 353 q 274 183 218 227 q 406 140 330 140 q 500 162 457 140 q 570 230 544 185 z "},"¶":{"ha":754,"x_min":37,"x_max":671,"o":"m 280 450 l 280 605 q 272 614 280 613 q 241 617 256 615 q 210 623 226 618 q 86 709 132 647 q 37 852 40 772 l 37 855 q 70 976 37 922 q 157 1059 102 1029 q 278 1090 212 1090 l 643 1090 q 671 1061 671 1090 q 669 968 671 1015 q 667 874 668 921 q 664 677 665 776 q 663 481 663 579 q 665 184 663 333 q 667 106 666 145 q 668 28 668 68 q 640 0 668 0 l 552 0 q 531 7 536 0 q 524 28 526 14 q 524 52 524 39 q 524 76 524 64 l 523 188 q 522 348 522 268 q 522 507 522 427 q 523 722 522 614 q 524 936 524 829 q 515 945 524 945 l 433 945 q 425 937 425 945 q 424 709 425 823 q 424 482 424 595 q 424 255 424 368 q 425 28 425 141 q 397 0 425 0 l 307 0 q 279 28 279 0 q 279 239 279 134 q 280 450 280 345 z "},"§":{"ha":564,"x_min":13,"x_max":549,"o":"m 275 -256 q 141 -231 211 -256 q 23 -162 71 -205 q 16 -154 19 -158 q 13 -144 13 -150 q 26 -114 13 -138 q 55 -65 40 -90 q 75 -33 70 -40 q 84 -22 79 -28 q 97 -17 89 -17 q 132 -38 107 -17 q 191 -80 157 -59 q 265 -101 226 -101 q 336 -66 313 -101 q 359 12 359 -32 q 322 97 359 70 q 236 140 285 123 q 130 191 178 160 q 55 268 83 221 q 26 381 26 314 q 47 491 26 441 q 119 574 68 540 q 125 582 125 578 q 120 589 125 585 q 61 676 78 629 q 45 781 45 724 q 107 974 45 899 q 294 1049 170 1049 q 412 1027 354 1049 q 513 962 470 1005 q 522 944 522 954 q 511 918 522 937 q 489 878 500 898 q 472 850 477 859 q 463 839 469 844 q 450 833 457 833 q 420 850 440 833 q 372 882 400 866 q 308 899 343 899 q 240 873 262 899 q 217 804 217 848 q 241 737 217 762 q 303 697 265 713 q 383 664 340 681 q 464 621 426 647 q 525 550 501 595 q 549 433 549 506 q 527 319 549 372 q 455 229 505 267 q 450 221 450 224 q 455 214 450 218 q 514 132 497 177 q 532 31 532 86 q 500 -110 532 -44 q 412 -216 469 -175 q 275 -256 355 -256 m 283 287 q 359 326 329 291 q 389 406 389 361 q 357 480 389 448 q 286 522 324 513 q 277 522 283 522 q 210 490 233 522 q 186 418 186 458 q 215 339 186 372 q 283 287 243 306 z "},"©":{"ha":859,"x_min":-7,"x_max":865,"o":"m 429 -51 q 247 -8 328 -51 q 110 107 166 35 q 23 269 53 179 q -7 452 -7 359 l -7 462 q 22 649 -7 558 q 106 813 51 740 q 243 929 162 886 q 429 972 324 972 q 613 929 532 972 q 750 815 694 887 q 836 653 806 743 q 865 468 865 564 l 865 452 q 836 269 865 359 q 749 107 806 179 q 612 -8 692 35 q 429 -51 531 -51 m 429 83 q 562 118 506 83 q 656 211 618 153 q 711 336 693 268 q 730 471 730 405 q 711 604 730 538 q 656 724 693 670 q 562 809 618 777 q 429 842 505 842 q 295 809 352 842 q 201 721 238 776 q 146 599 164 666 q 128 464 128 532 q 148 332 128 399 q 205 208 167 264 q 299 117 243 152 q 429 83 355 83 m 549 371 q 563 365 557 371 q 573 353 568 359 q 588 331 578 347 q 608 299 599 315 q 618 277 618 283 q 610 260 618 269 q 532 204 581 225 q 437 183 483 183 q 313 226 363 183 q 236 333 262 269 q 210 463 210 397 q 234 599 210 534 q 309 706 258 665 q 441 748 360 748 q 515 738 472 748 q 582 706 559 728 q 590 689 590 698 q 582 666 590 684 q 565 631 574 648 q 552 606 555 613 q 542 592 548 599 q 526 585 536 585 q 496 594 513 585 q 456 604 479 604 q 405 581 422 604 q 380 526 387 557 q 374 468 374 494 q 380 411 374 443 q 405 357 387 380 q 455 334 422 334 q 496 343 479 334 q 526 362 513 353 q 549 371 539 371 z "},"®":{"ha":859,"x_min":28,"x_max":831,"o":"m 451 381 l 440 381 q 299 404 371 381 q 165 469 227 426 q 66 573 104 512 q 28 712 28 635 q 66 856 28 795 q 165 958 104 918 q 300 1019 227 999 q 446 1040 374 1040 q 634 1003 546 1040 q 776 893 722 966 q 831 712 831 821 q 799 574 831 635 q 712 470 766 513 q 590 404 657 427 q 451 381 522 381 m 435 473 q 573 500 505 473 q 686 581 641 528 q 730 713 730 635 q 686 846 730 793 q 574 923 642 898 q 435 949 506 949 q 329 935 382 949 q 230 891 275 920 q 157 817 184 861 q 130 713 130 773 q 157 611 130 656 q 229 535 184 566 q 326 489 273 505 q 430 473 379 473 l 435 473 m 285 848 q 313 876 285 876 l 443 876 q 511 866 477 876 q 565 833 544 857 q 587 768 587 809 q 569 713 587 735 q 526 675 552 692 q 520 668 520 673 q 534 642 520 661 q 561 603 547 623 q 574 570 574 582 q 562 554 574 557 q 541 551 551 551 l 500 551 q 476 566 484 551 q 461 595 473 572 q 437 638 450 617 q 420 659 425 659 l 389 659 q 378 642 378 659 q 381 605 379 626 q 379 568 384 584 q 353 551 374 551 l 315 551 q 287 579 287 551 q 286 714 287 646 q 285 848 285 781 m 422 728 q 465 734 442 728 q 487 766 487 741 q 466 797 487 787 q 427 807 445 807 l 382 807 l 382 728 l 422 728 z "},"™":{"ha":871,"x_min":34,"x_max":827,"o":"m 34 1013 q 62 1042 34 1042 l 304 1042 q 332 1014 331 1042 q 332 993 332 1004 q 332 972 332 983 q 318 947 332 951 q 285 944 304 942 q 252 946 267 946 q 238 936 238 947 q 239 817 238 876 q 241 699 241 758 q 213 671 241 671 l 163 671 q 135 699 135 671 q 134 779 135 739 q 133 860 134 819 q 132 898 132 879 q 131 937 132 918 q 123 945 130 945 l 63 945 q 35 972 36 945 q 34 992 35 982 q 34 1013 34 1003 m 471 671 q 443 670 459 671 q 413 674 426 669 q 401 699 401 680 q 400 845 401 772 q 400 991 400 918 q 402 1014 400 998 q 416 1030 404 1030 q 433 1023 425 1030 q 448 1010 442 1016 q 479 979 454 1004 q 534 923 504 954 q 587 871 564 893 q 612 849 610 849 q 634 867 616 849 q 680 912 653 886 q 733 966 706 939 q 782 1011 761 993 q 812 1029 804 1029 q 825 1016 823 1029 q 827 994 827 1002 l 827 989 q 824 844 825 916 q 821 699 823 771 q 793 671 820 671 l 746 671 q 718 699 718 671 q 719 749 718 724 q 719 800 720 774 q 719 807 719 801 q 715 812 718 812 q 696 797 710 812 q 666 761 683 781 q 634 724 649 740 q 610 709 618 709 q 584 725 599 709 q 552 761 568 741 q 524 797 536 781 q 504 813 511 813 q 500 808 500 813 q 499 801 499 802 l 499 699 q 471 671 499 671 z "},"°":{"ha":545,"x_min":66,"x_max":472,"o":"m 66 813 q 98 899 66 865 q 177 952 130 934 q 269 970 224 970 q 361 952 314 970 q 440 899 408 934 q 472 813 472 865 q 440 727 472 762 q 361 675 408 692 q 269 658 314 658 q 178 675 225 658 q 98 728 131 693 q 66 813 66 762 m 272 747 q 316 753 291 747 q 359 773 340 759 q 377 811 377 787 q 359 850 377 836 q 315 871 340 865 q 271 878 290 878 q 227 871 252 878 q 183 849 202 864 q 165 811 165 835 q 184 773 165 787 q 228 753 203 759 q 272 747 254 747 z "},"|":{"ha":340,"x_min":90,"x_max":248,"o":"m 93 989 q 121 1017 93 1017 l 217 1017 q 245 989 245 1017 q 244 739 245 864 q 243 488 243 614 q 245 88 243 288 q 248 -312 248 -112 q 220 -340 248 -340 l 118 -340 q 90 -312 90 -340 q 92 88 90 -112 q 94 488 94 288 q 94 739 94 614 q 93 989 93 864 z "},"¦":{"ha":340,"x_min":96,"x_max":253,"o":"m 99 989 q 127 1017 99 1017 l 222 1017 q 250 989 250 1017 q 250 762 250 876 q 249 536 249 649 q 221 508 249 508 l 128 508 q 100 536 100 508 q 100 762 100 649 q 99 989 99 876 m 96 -314 q 98 -85 96 -199 q 100 143 100 28 q 127 171 100 171 l 222 171 q 250 143 250 171 q 251 -85 250 28 q 253 -314 253 -199 q 225 -342 253 -342 l 124 -342 q 96 -314 96 -342 z "},"†":{"ha":581,"x_min":56,"x_max":524,"o":"m 56 650 q 84 678 56 678 l 207 678 q 216 686 216 678 q 215 774 216 730 q 215 861 215 818 q 243 889 215 889 l 339 889 q 367 861 367 889 q 367 774 367 818 q 366 686 366 730 q 375 678 366 678 l 495 678 q 524 650 524 678 q 523 605 524 627 q 523 560 523 583 q 495 532 523 532 l 374 532 q 366 524 366 532 q 367 269 366 397 q 368 14 368 142 q 340 -14 368 -14 l 242 -14 q 214 14 214 -14 q 215 269 214 142 q 216 524 216 397 q 208 532 216 532 l 84 532 q 56 560 56 532 q 56 605 56 583 q 56 650 56 627 z "},"‡":{"ha":607,"x_min":47,"x_max":562,"o":"m 47 315 q 47 359 47 337 q 47 404 47 382 q 75 432 47 432 l 227 432 q 235 440 235 432 l 235 524 q 227 532 235 532 l 103 532 q 75 560 75 532 q 75 605 75 583 q 75 650 75 627 q 103 678 75 678 l 226 678 q 235 686 235 678 q 234 774 235 730 q 234 861 234 818 q 262 889 234 889 l 356 889 q 384 861 384 889 q 384 774 384 818 q 383 686 383 730 q 392 678 383 678 l 513 678 q 542 650 542 678 q 542 605 542 627 q 541 560 541 583 q 513 532 541 532 l 391 532 q 383 524 383 532 l 383 440 q 391 432 383 432 l 533 432 q 561 404 561 432 q 561 359 561 382 q 562 315 562 337 q 534 287 562 287 l 392 287 q 383 278 383 287 q 384 146 383 212 q 385 14 385 81 q 357 -14 385 -14 l 261 -14 q 233 14 233 -14 q 234 146 233 81 q 235 278 235 212 q 226 287 235 287 l 75 287 q 47 315 47 287 z "},"^":{"ha":648,"x_min":125,"x_max":519,"o":"m 444 695 q 416 709 434 695 q 379 741 399 723 q 344 773 360 760 q 322 787 328 787 q 299 773 315 787 q 264 741 283 760 q 228 709 245 723 q 201 695 210 695 l 157 695 q 138 697 151 695 q 125 710 125 699 q 130 724 125 718 q 138 735 134 730 q 219 835 178 785 q 301 932 260 885 q 310 941 305 937 q 322 945 315 945 q 334 941 329 945 q 343 932 339 937 q 426 835 385 885 q 506 734 467 785 q 514 723 510 730 q 519 709 519 717 q 507 697 519 699 q 488 695 495 695 l 444 695 z "},"̈":{"ha":180,"x_min":62,"x_max":543,"o":"m 62 762 q 87 826 62 799 q 151 854 113 854 q 213 828 186 854 q 239 766 239 802 q 212 702 239 730 q 148 674 184 674 q 87 701 112 674 q 62 762 62 727 m 364 762 q 392 826 364 799 q 456 854 419 854 q 517 827 492 854 q 543 766 543 801 q 515 703 543 732 q 453 674 488 674 q 390 700 416 674 q 364 762 364 725 z "},"̇":{"ha":54,"x_min":38,"x_max":227,"o":"m 38 848 q 67 909 38 885 q 132 932 96 932 q 198 907 168 932 q 227 844 227 882 q 198 782 227 808 q 134 757 169 757 q 67 783 96 757 q 38 848 38 810 z "},"̀":{"ha":101,"x_min":54,"x_max":302,"o":"m 229 695 q 209 703 217 695 q 141 771 174 736 q 73 841 107 806 q 61 855 68 846 q 54 872 54 864 q 70 886 54 884 q 93 888 85 888 l 191 888 q 215 875 207 888 q 256 807 236 843 q 294 737 275 771 q 299 726 297 732 q 302 713 302 720 q 291 698 302 701 q 270 695 279 695 l 229 695 z "},"́":{"ha":106,"x_min":124,"x_max":389,"o":"m 347 888 q 371 886 354 888 q 389 872 389 884 q 379 854 389 863 q 365 840 370 845 q 291 771 328 806 q 216 703 254 736 q 197 695 207 695 l 157 695 q 136 698 148 695 q 124 712 124 701 q 127 726 124 719 q 134 737 131 732 l 230 876 q 253 888 238 888 l 347 888 z "},"̂":{"ha":216,"x_min":39,"x_max":524,"o":"m 416 695 q 397 702 405 695 q 374 722 393 706 q 335 756 356 737 q 297 789 313 775 q 278 802 280 802 q 260 789 276 802 q 225 757 245 775 q 189 723 205 739 q 167 703 172 707 q 148 695 158 695 l 80 695 q 56 697 73 695 q 39 711 39 699 q 47 729 39 720 q 61 743 56 739 q 161 839 111 791 q 263 932 212 886 q 272 938 267 935 q 282 941 277 941 q 292 938 288 941 q 301 932 297 935 q 403 839 353 886 q 503 743 453 791 q 516 729 508 739 q 524 711 524 720 q 508 697 524 699 q 484 695 491 695 l 416 695 z "},"̌":{"ha":217,"x_min":9,"x_max":498,"o":"m 119 938 q 136 931 127 938 q 160 911 141 927 q 201 877 178 896 q 240 844 223 858 q 258 831 257 831 q 276 845 260 831 q 313 877 292 859 q 351 911 334 896 q 372 931 368 927 q 391 938 379 938 l 458 938 q 482 936 465 938 q 498 922 498 934 q 490 904 498 913 q 477 890 482 895 q 414 832 446 861 q 353 774 383 804 q 314 738 333 756 q 275 701 294 719 q 256 692 264 692 q 237 701 247 692 q 197 738 216 719 q 157 774 177 756 q 95 832 126 804 q 32 890 63 861 q 18 904 26 895 q 9 922 9 913 q 26 936 9 934 q 51 938 43 938 l 119 938 z "},"̊":{"ha":113,"x_min":45,"x_max":354,"o":"m 45 796 q 92 898 45 863 q 201 934 140 934 q 308 900 262 934 q 354 801 354 866 q 308 695 354 733 q 197 656 262 656 q 90 694 135 656 q 45 796 45 732 m 132 793 q 157 748 132 764 q 208 732 181 732 q 252 750 235 732 q 268 795 268 768 q 208 855 268 855 q 156 840 180 855 q 132 793 132 824 z "},"̃":{"ha":222,"x_min":68,"x_max":587,"o":"m 587 841 q 570 754 587 796 q 522 686 554 713 q 439 659 489 659 q 367 674 397 659 q 313 709 337 690 q 267 744 290 729 q 217 760 244 760 q 173 737 186 760 q 155 688 161 714 q 146 667 153 674 q 124 660 140 660 q 87 661 107 660 q 68 686 68 662 q 86 773 68 732 q 141 841 105 815 q 226 867 176 867 q 292 851 263 867 q 346 814 321 835 q 393 777 370 793 q 441 760 416 760 q 484 788 473 760 q 498 839 494 815 q 506 859 500 852 q 527 866 512 866 q 565 865 543 866 q 587 841 587 865 z "},"̧":{"ha":159,"x_min":4,"x_max":406,"o":"m 4 -273 q 13 -253 4 -266 q 32 -230 21 -240 q 52 -219 43 -219 q 63 -221 58 -219 q 73 -226 68 -223 q 158 -247 111 -247 q 201 -242 176 -247 q 246 -224 227 -237 q 265 -188 265 -211 q 247 -151 265 -163 q 204 -135 229 -139 q 161 -132 180 -132 q 121 -135 142 -132 q 81 -142 101 -138 q 72 -143 75 -143 q 47 -122 54 -143 q 35 -88 40 -101 q 33 -77 33 -83 q 45 -56 33 -66 q 134 9 87 -22 q 151 15 141 15 l 229 13 q 242 12 233 13 q 250 3 250 10 q 240 -15 250 -4 q 219 -36 229 -26 q 208 -52 208 -47 q 214 -56 208 -56 q 221 -57 219 -57 q 304 -71 262 -59 q 376 -111 347 -83 q 406 -189 406 -139 q 383 -260 406 -232 q 326 -306 361 -289 q 252 -329 291 -322 q 178 -336 212 -336 q 93 -327 138 -336 q 16 -292 49 -317 q 4 -273 4 -283 z "},"̵":{"ha":178,"x_min":19,"x_max":471,"o":"m 19 542 q 47 570 19 570 l 444 570 q 471 542 471 570 l 471 442 q 444 414 471 414 l 47 414 q 19 442 19 414 l 19 542 z "},"´":{"ha":485,"x_min":85,"x_max":387,"o":"m 340 888 q 367 886 348 888 q 387 873 387 884 q 375 854 387 864 q 357 839 363 844 q 269 769 313 804 q 178 701 224 734 q 161 695 170 695 l 117 695 q 98 697 111 695 q 85 709 85 699 q 90 723 85 716 q 100 735 96 730 q 164 809 130 769 q 229 880 198 848 q 250 888 238 888 l 340 888 z "},"˘":{"ha":485,"x_min":50,"x_max":435,"o":"m 244 680 q 142 714 180 680 q 82 802 103 749 q 51 907 62 854 q 50 916 50 909 q 78 939 50 939 l 129 939 q 157 916 151 939 q 174 862 164 892 q 202 812 183 833 q 253 791 220 791 q 299 813 285 791 q 319 865 313 836 q 330 917 324 895 q 356 939 335 939 l 407 939 q 435 916 435 939 q 434 907 435 909 q 405 803 425 856 q 347 715 385 751 q 247 680 309 680 l 244 680 z "},"ˇ":{"ha":485,"x_min":35,"x_max":442,"o":"m 142 949 q 163 940 153 949 q 178 922 167 936 q 204 891 190 907 q 229 862 218 874 q 242 850 240 850 q 261 870 245 850 q 293 912 277 890 q 313 939 309 934 q 335 949 321 949 l 404 949 q 427 947 412 949 q 442 932 442 945 q 436 917 442 925 q 425 903 431 909 q 344 811 385 857 q 262 719 304 764 q 253 710 258 714 q 241 707 248 707 q 230 710 235 707 q 220 718 224 714 q 136 810 178 764 q 53 903 95 857 q 42 917 48 908 q 35 933 35 925 q 50 947 35 945 q 73 949 65 949 l 142 949 z "},"¸":{"ha":485,"x_min":48,"x_max":444,"o":"m 48 -274 q 57 -253 48 -267 q 77 -230 65 -240 q 96 -219 88 -219 q 108 -221 102 -219 q 118 -227 113 -224 q 199 -247 155 -247 q 241 -241 217 -247 q 284 -223 266 -236 q 303 -188 303 -210 q 286 -152 303 -163 q 245 -136 269 -140 q 204 -132 222 -132 q 165 -135 185 -132 q 127 -142 146 -138 q 118 -142 124 -142 q 93 -122 99 -142 q 81 -87 86 -101 q 79 -77 79 -82 q 91 -56 79 -64 q 121 -33 100 -50 q 165 0 143 -16 q 195 15 187 16 l 273 13 q 287 12 278 13 q 296 3 296 10 q 285 -15 296 -4 q 263 -37 274 -26 q 253 -52 253 -47 q 258 -56 253 -56 q 265 -57 263 -57 q 345 -71 304 -59 q 415 -110 387 -83 q 444 -185 444 -137 q 407 -277 444 -244 q 317 -323 370 -310 q 216 -336 264 -336 q 134 -326 177 -336 q 60 -292 92 -316 q 48 -274 48 -283 z "},"ˆ":{"ha":485,"x_min":37,"x_max":439,"o":"m 334 703 q 312 713 321 703 q 297 732 309 718 q 272 762 286 746 q 248 791 259 779 q 235 803 237 803 q 215 783 231 803 q 184 741 199 763 q 164 714 168 720 q 142 703 156 703 l 73 703 q 51 706 65 703 q 37 720 37 708 q 42 736 37 728 q 52 749 47 744 q 133 843 92 796 q 216 935 174 889 q 236 946 226 946 q 257 935 247 946 q 341 843 300 890 q 423 749 383 796 q 434 736 428 744 q 439 720 439 728 q 425 706 439 708 q 402 703 410 703 l 334 703 z "},"¨":{"ha":485,"x_min":47,"x_max":439,"o":"m 276 762 q 300 825 276 796 q 359 854 324 854 q 416 825 394 854 q 439 764 439 796 q 415 704 439 733 q 358 674 392 674 q 299 701 323 674 q 276 762 276 728 m 47 762 q 70 825 47 796 q 128 853 92 853 q 186 826 162 853 q 210 765 210 798 q 186 703 210 732 q 127 674 162 674 q 71 702 94 674 q 47 762 47 730 z "},"˙":{"ha":485,"x_min":140,"x_max":345,"o":"m 140 848 q 172 909 140 886 q 239 932 203 932 q 311 910 277 932 q 345 845 345 887 q 314 781 345 806 q 245 757 282 757 q 174 783 208 757 q 140 848 140 808 z "},"`":{"ha":485,"x_min":87,"x_max":374,"o":"m 298 695 q 280 702 289 695 q 197 770 239 736 q 113 840 155 805 q 97 854 107 845 q 87 873 87 864 q 106 886 87 884 q 131 888 124 888 l 224 888 q 245 878 237 888 q 304 808 275 844 q 361 736 332 772 q 370 725 365 732 q 374 711 374 718 q 361 697 374 700 q 341 695 349 695 l 298 695 z "},"˝":{"ha":485,"x_min":20,"x_max":454,"o":"m 210 888 q 233 886 218 888 q 247 871 247 884 q 241 856 247 864 q 231 842 236 848 l 112 705 q 91 695 104 695 l 51 695 q 31 699 41 695 q 20 715 20 703 q 25 734 20 724 l 86 872 q 112 888 94 888 l 210 888 m 417 886 q 440 883 425 886 q 454 869 454 881 q 449 853 454 861 q 438 840 443 845 q 379 771 409 806 q 319 703 350 736 q 298 693 311 693 l 258 693 q 238 696 248 693 q 227 712 227 700 q 236 739 227 718 q 257 788 245 761 q 280 838 270 815 q 295 869 291 861 q 320 886 303 886 l 417 886 z "},"¯":{"ha":485,"x_min":47,"x_max":438,"o":"m 47 753 q 75 781 47 781 l 410 781 q 438 753 438 781 q 438 723 438 738 q 437 692 437 707 q 410 665 436 665 l 75 665 q 48 692 49 665 q 47 723 47 707 q 47 753 47 738 z "},"ˉ":{"ha":485,"x_min":47,"x_max":438,"o":"m 47 753 q 75 781 47 781 l 410 781 q 438 753 438 781 q 438 723 438 738 q 437 692 437 707 q 410 665 436 665 l 75 665 q 48 692 49 665 q 47 723 47 707 q 47 753 47 738 z "},"˛":{"ha":485,"x_min":42,"x_max":436,"o":"m 239 -321 q 144 -302 189 -321 q 71 -244 99 -282 q 42 -153 42 -206 q 65 -80 42 -113 q 122 -24 88 -47 q 190 13 157 0 q 198 14 195 14 l 201 14 q 227 13 206 14 q 271 10 247 12 q 314 4 296 7 q 332 -6 332 0 q 310 -25 332 -14 q 257 -50 287 -35 q 204 -86 227 -65 q 181 -137 181 -108 q 203 -188 181 -172 q 258 -203 226 -203 q 315 -190 292 -203 q 353 -162 338 -176 q 377 -149 368 -149 q 399 -163 385 -149 q 425 -196 414 -178 q 436 -219 436 -213 q 430 -235 436 -227 q 343 -298 399 -275 q 239 -321 288 -321 z "},"˚":{"ha":485,"x_min":51,"x_max":417,"o":"m 51 783 q 79 863 51 833 q 151 908 108 894 q 236 922 194 922 q 320 908 278 922 q 389 864 361 895 q 417 785 417 834 q 388 705 417 737 q 317 658 359 673 q 233 642 275 642 q 149 658 191 642 q 79 705 107 673 q 51 783 51 736 m 142 780 q 158 745 142 758 q 194 726 173 732 q 233 720 216 720 q 293 733 262 720 q 325 782 325 747 q 294 829 325 817 q 236 842 264 842 q 175 829 207 842 q 142 780 142 817 z "},"˜":{"ha":485,"x_min":14,"x_max":477,"o":"m 477 850 q 464 764 477 810 q 422 686 452 718 q 343 654 393 654 q 276 671 304 654 q 227 712 248 689 q 187 753 205 735 q 152 770 170 770 q 124 754 133 770 q 113 718 115 739 q 111 684 111 698 q 82 654 111 654 q 33 655 51 654 q 14 693 14 656 q 28 787 14 739 q 76 866 43 834 q 163 899 109 899 q 219 880 193 899 q 266 837 244 861 q 306 793 287 812 q 342 774 324 774 q 367 789 359 774 q 375 822 374 804 q 377 853 377 841 q 379 883 377 870 q 404 897 382 897 q 447 897 431 897 q 470 889 463 898 q 477 850 477 880 z "},"\u0000":{"ha":0,"x_min":0,"x_max":0,"o":""},"∂":{"ha":589,"x_min":68,"x_max":530,"o":"m 68 0 l 68 933 l 530 933 l 530 0 l 68 0 m 96 27 l 503 27 l 503 906 l 96 906 l 96 27 z "},"Ω":{"ha":716,"x_min":68,"x_max":654,"o":"m 68 0 l 68 933 l 654 933 l 654 0 l 68 0 m 96 27 l 627 27 l 627 906 l 96 906 l 96 27 z "},"Ω":{"ha":716,"x_min":68,"x_max":654,"o":"m 68 0 l 68 933 l 654 933 l 654 0 l 68 0 m 96 27 l 627 27 l 627 906 l 96 906 l 96 27 z "}}}
